{"glyphs":{"0":{"ha":833,"x_min":63,"x_max":792,"o":"m 225 289 q 251 166 213 211 q 367 121 289 121 q 496 166 443 121 q 561 289 549 211 l 628 713 q 602 835 640 790 q 486 881 564 881 q 357 835 410 881 q 293 713 304 790 l 225 289 m 140 713 q 260 933 163 853 q 508 1014 358 1014 q 636 992 581 1014 q 727 931 692 971 q 777 836 763 892 q 781 713 792 781 l 713 289 q 670 163 701 219 q 591 67 639 107 q 481 7 543 28 q 344 -14 418 -14 q 217 8 272 -14 q 126 69 161 29 q 76 165 90 108 q 72 289 63 221 l 140 713 m 367 549 q 394 602 372 582 q 446 622 415 622 q 492 602 476 622 q 501 549 507 582 l 483 438 q 457 384 478 404 q 404 364 436 364 q 359 384 374 364 q 350 438 344 404 l 367 549 z "},"1":{"ha":833,"x_min":46,"x_max":708,"o":"m 46 0 l 68 135 l 336 135 l 438 776 q 450 841 443 813 q 457 871 457 869 l 453 871 q 433 854 443 863 q 413 840 424 847 q 389 825 401 832 l 172 694 l 196 844 l 443 1000 l 625 1000 l 489 135 l 708 135 l 688 0 l 46 0 z "},"2":{"ha":833,"x_min":18,"x_max":782,"o":"m 772 728 q 742 620 764 671 q 684 519 721 569 q 594 419 647 469 q 465 313 540 368 l 292 182 q 265 166 279 174 q 239 153 250 158 q 211 140 225 146 l 210 135 q 253 138 231 136 q 293 138 271 138 q 336 139 315 139 l 692 139 l 669 0 l 18 0 l 44 164 l 379 408 q 479 490 438 451 q 549 565 521 528 q 594 642 578 603 q 618 722 611 681 q 591 836 629 793 q 482 879 553 879 q 347 838 401 879 q 282 726 293 797 l 126 726 q 171 846 139 793 q 252 936 203 899 q 366 994 301 974 q 506 1014 431 1014 q 628 992 574 1014 q 717 933 682 971 q 767 842 753 894 q 772 728 782 790 z "},"3":{"ha":833,"x_min":51,"x_max":786,"o":"m 450 606 q 578 581 522 604 q 668 517 633 558 q 717 421 703 476 q 719 296 731 365 q 676 168 708 225 q 594 70 643 111 q 479 8 544 29 q 339 -14 414 -14 q 217 5 271 -14 q 125 59 163 24 q 69 144 88 94 q 56 257 51 194 l 208 257 q 249 156 207 194 q 360 118 290 118 q 497 167 442 118 q 567 296 553 215 q 537 426 579 376 q 411 475 494 475 l 293 475 l 317 626 l 532 808 q 565 835 549 824 q 596 854 582 846 q 626 871 611 864 l 628 875 q 597 872 614 874 q 531 868 571 868 l 189 868 l 210 1000 l 786 1000 l 761 846 l 503 643 q 481 628 492 635 q 464 615 471 621 q 450 606 457 610 z "},"4":{"ha":833,"x_min":67,"x_max":757,"o":"m 242 388 l 235 340 l 542 340 l 579 576 l 731 576 l 639 0 l 488 0 l 519 206 l 67 206 l 103 433 l 585 1000 l 757 1000 l 242 388 z "},"5":{"ha":833,"x_min":58,"x_max":792,"o":"m 500 640 q 612 619 564 640 q 690 560 660 599 q 731 468 721 522 q 731 347 742 414 l 721 285 q 678 161 710 217 q 597 67 646 106 q 483 7 547 28 q 344 -14 419 -14 q 135 49 211 -14 q 58 219 58 113 l 215 219 q 261 146 222 174 q 367 118 300 118 q 500 163 446 118 q 565 285 554 208 l 575 347 q 548 469 588 424 q 429 514 508 514 q 272 449 326 514 l 119 449 l 214 1000 l 792 1000 l 771 864 l 339 864 l 282 536 l 289 536 q 335 589 306 565 q 400 624 360 608 q 500 640 440 640 z "},"6":{"ha":833,"x_min":51,"x_max":740,"o":"m 346 -14 q 213 9 271 -14 q 118 74 156 32 q 66 174 81 115 q 63 304 51 233 q 131 490 78 396 q 275 700 185 585 l 508 1000 l 686 1000 l 417 667 q 353 589 376 618 q 317 544 329 560 q 294 521 301 526 l 311 521 q 357 565 329 546 q 415 596 381 582 q 497 610 449 610 q 606 588 558 610 q 685 526 654 565 q 728 430 717 486 q 729 304 740 374 q 684 175 718 233 q 599 74 650 117 q 484 9 549 32 q 346 -14 419 -14 m 576 303 q 547 438 589 388 q 425 489 506 489 q 351 476 386 489 q 287 438 315 463 q 240 378 258 413 q 215 303 222 344 q 243 169 201 219 q 367 118 285 118 q 505 169 447 118 q 576 303 563 219 z "},"7":{"ha":833,"x_min":138,"x_max":829,"o":"m 307 860 l 283 711 l 138 711 l 183 1000 l 829 1000 l 804 836 l 318 0 l 147 0 l 600 769 q 644 833 626 813 q 663 856 654 846 l 664 863 q 622 861 643 861 q 587 860 606 861 q 554 860 568 860 l 307 860 z "},"8":{"ha":833,"x_min":49,"x_max":788,"o":"m 421 465 q 284 417 340 465 q 215 289 228 368 q 244 161 203 211 q 365 111 285 111 q 440 124 406 111 q 502 161 475 138 q 547 217 529 185 q 571 289 565 250 q 543 417 585 368 q 421 465 501 465 m 489 894 q 364 852 414 894 q 303 742 314 810 q 328 624 292 671 q 439 576 365 576 q 506 589 475 576 q 563 624 538 601 q 604 676 588 646 q 626 742 621 707 q 601 852 638 810 q 489 894 564 894 m 508 1014 q 633 995 579 1014 q 723 942 688 976 q 773 858 758 907 q 778 749 788 808 q 751 668 771 706 q 703 601 732 631 q 636 551 674 571 q 556 526 599 532 l 554 519 q 694 439 647 504 q 725 278 740 374 q 683 159 715 213 q 601 67 650 106 q 486 7 551 28 q 344 -14 421 -14 q 210 7 268 -14 q 115 66 153 28 q 63 158 78 104 q 58 275 49 211 q 87 365 65 324 q 141 438 108 406 q 215 490 174 469 q 306 519 257 511 l 306 526 q 233 551 264 532 q 182 601 201 571 q 155 668 163 631 q 154 749 147 706 q 194 858 164 808 q 270 942 224 907 q 377 995 317 976 q 508 1014 438 1014 z "},"9":{"ha":833,"x_min":114,"x_max":803,"o":"m 507 1014 q 640 991 582 1014 q 735 926 697 968 q 788 826 772 885 q 792 696 803 767 q 723 510 776 604 q 578 300 669 415 l 344 0 l 167 0 l 436 333 q 500 411 476 382 q 538 456 524 440 q 558 479 553 474 l 542 479 q 497 435 524 454 q 439 404 474 418 q 356 390 404 390 q 247 413 294 390 q 168 474 199 435 q 126 571 138 514 q 125 696 114 628 q 169 825 136 767 q 253 926 203 883 q 369 991 304 968 q 507 1014 433 1014 m 276 697 q 306 562 264 613 q 428 511 347 511 q 503 524 468 511 q 566 563 538 538 q 613 622 594 588 q 639 697 632 656 q 610 831 651 781 q 486 882 568 882 q 349 831 407 882 q 276 697 290 781 z "},"\u0000":{"ha":0,"x_min":0,"x_max":0,"o":""},"\r":{"ha":833,"x_min":0,"x_max":0,"o":""}," ":{"ha":833,"x_min":0,"x_max":0,"o":""},"H":{"ha":833,"x_min":44,"x_max":806,"o":"m 44 0 l 203 1000 l 356 1000 l 290 590 l 588 590 l 653 1000 l 806 1000 l 647 0 l 494 0 l 565 450 l 268 450 l 197 0 l 44 0 z "},"n":{"ha":833,"x_min":40,"x_max":742,"o":"m 40 0 l 161 764 l 306 764 l 285 632 l 297 632 q 382 740 322 701 q 525 778 442 778 q 624 758 581 778 q 694 701 667 738 q 731 613 721 664 q 732 499 742 561 l 653 0 l 501 0 l 578 482 q 557 604 589 561 q 454 647 525 647 q 335 606 383 647 q 271 493 286 565 l 193 0 l 40 0 z "},"p":{"ha":833,"x_min":10,"x_max":754,"o":"m 10 -229 l 167 764 l 310 764 l 289 632 l 301 632 q 388 739 328 700 q 531 778 447 778 q 633 756 589 778 q 706 696 678 735 q 744 601 733 657 q 743 479 754 546 l 713 288 q 674 164 701 219 q 606 69 646 108 q 514 8 565 29 q 404 -14 463 -14 q 275 26 324 -14 q 222 132 226 65 l 210 132 q 208 114 210 128 q 206 81 207 100 q 201 41 204 63 q 196 0 199 19 l 160 -229 l 10 -229 m 242 288 q 265 165 229 211 q 376 119 301 119 q 501 165 451 119 q 563 289 550 210 l 593 476 q 569 601 606 556 q 456 646 532 646 q 338 603 388 646 q 274 488 289 561 l 242 288 z "},"(":{"ha":833,"x_min":196,"x_max":793,"o":"m 383 368 q 380 228 371 293 q 417 113 389 164 q 490 28 444 63 q 597 -21 536 -6 l 572 -174 q 285 20 374 -121 q 231 368 196 161 l 274 632 q 441 982 308 843 q 793 1174 574 1121 l 768 1021 q 541 889 629 988 q 426 632 453 790 l 383 368 z "},"o":{"ha":833,"x_min":63,"x_max":753,"o":"m 225 288 q 250 165 213 210 q 367 121 288 121 q 497 165 444 121 q 561 288 549 208 l 590 478 q 565 600 603 556 q 449 644 526 644 q 319 599 372 644 q 256 478 267 554 l 225 288 m 104 478 q 146 603 115 547 q 224 697 176 658 q 335 757 272 736 q 471 778 397 778 q 599 757 544 778 q 690 697 654 736 q 739 603 725 658 q 742 478 753 547 l 713 288 q 592 67 689 147 q 344 -14 494 -14 q 217 7 272 -14 q 126 67 161 28 q 76 163 90 107 q 74 288 63 218 l 104 478 z "},"i":{"ha":833,"x_min":53,"x_max":724,"o":"m 75 139 l 351 139 l 428 626 l 188 626 l 210 764 l 597 764 l 499 139 l 724 139 l 701 0 l 53 0 l 75 139 m 426 979 q 463 1042 433 1018 q 535 1067 492 1067 l 567 1067 q 632 1042 610 1067 q 647 978 654 1018 q 611 915 640 938 q 539 892 582 892 l 507 892 q 442 915 464 892 q 426 979 419 939 z "},"l":{"ha":833,"x_min":118,"x_max":724,"o":"m 540 1014 l 417 236 q 431 165 410 190 q 496 139 451 139 l 724 139 l 701 0 l 467 0 q 300 63 354 0 q 264 236 246 126 l 365 876 l 118 876 l 140 1014 l 540 1014 z "},"O":{"ha":833,"x_min":63,"x_max":792,"o":"m 225 289 q 251 166 213 211 q 367 121 289 121 q 496 166 443 121 q 561 289 549 211 l 628 713 q 602 835 640 790 q 486 881 564 881 q 357 835 410 881 q 293 713 304 790 l 225 289 m 140 713 q 260 933 163 853 q 508 1014 358 1014 q 636 992 581 1014 q 727 931 692 971 q 777 836 763 892 q 781 713 792 781 l 713 289 q 670 163 701 219 q 591 67 639 107 q 481 7 543 28 q 344 -14 418 -14 q 217 8 272 -14 q 126 69 161 29 q 76 165 90 108 q 72 289 63 221 l 140 713 z "},"h":{"ha":833,"x_min":42,"x_max":742,"o":"m 42 0 l 203 1014 l 354 1014 l 314 764 q 306 722 311 744 q 295 678 300 699 q 288 645 290 658 q 285 632 285 632 l 297 632 q 382 740 322 701 q 525 778 442 778 q 624 758 581 778 q 694 701 667 738 q 731 613 721 664 q 732 499 742 561 l 653 0 l 501 0 l 578 482 q 557 604 589 561 q 454 647 525 647 q 335 606 383 647 q 271 490 286 564 l 193 0 l 42 0 z "},"k":{"ha":833,"x_min":49,"x_max":839,"o":"m 49 0 l 210 1014 l 363 1014 l 274 454 l 407 454 l 664 764 l 839 764 l 526 386 l 722 0 l 547 0 l 388 322 l 253 322 l 201 0 l 49 0 z "},"g":{"ha":833,"x_min":67,"x_max":774,"o":"m 293 65 q 188 86 233 65 q 115 145 143 107 q 76 238 86 183 q 76 360 67 293 l 96 483 q 134 605 107 550 q 201 698 161 660 q 294 757 242 736 q 406 778 346 778 q 540 738 490 778 q 596 625 590 697 l 606 625 l 628 764 l 774 764 l 660 50 q 620 -67 650 -15 q 544 -154 590 -118 q 438 -210 499 -190 q 306 -229 378 -229 l 108 -229 l 129 -99 l 326 -99 q 449 -59 401 -99 q 508 50 497 -19 l 511 72 l 540 218 l 532 218 q 440 106 504 146 q 293 65 376 65 m 232 361 q 256 241 219 285 q 368 197 293 197 q 495 242 444 197 q 557 361 546 286 l 578 492 q 550 605 586 564 q 439 646 514 646 q 313 602 364 646 q 250 482 263 558 l 232 361 z "},">":{"ha":833,"x_min":54,"x_max":738,"o":"m 738 538 l 711 379 l 54 88 l 81 242 l 524 431 q 560 444 543 439 q 592 453 578 450 q 621 458 607 457 l 622 469 q 594 475 610 471 q 535 496 568 479 l 147 690 l 172 829 l 738 538 z "},"}":{"ha":833,"x_min":15,"x_max":736,"o":"m 222 1169 l 303 1169 q 408 1153 363 1169 q 483 1106 454 1136 q 522 1031 513 1075 q 519 931 532 986 l 471 711 q 479 617 457 647 q 576 586 501 586 l 736 586 l 715 447 l 556 447 q 449 417 481 447 q 410 322 417 386 l 389 100 q 359 0 383 44 q 297 -75 335 -44 q 207 -122 258 -106 q 96 -137 156 -137 l 15 -137 l 38 1 l 104 1 q 197 28 163 1 q 238 108 232 54 l 258 332 q 319 458 265 408 q 456 511 374 508 l 457 518 q 338 573 375 521 q 317 701 301 625 l 367 924 q 351 1003 378 976 q 268 1031 325 1031 l 200 1031 l 222 1169 z "},"A":{"ha":833,"x_min":26,"x_max":768,"o":"m 456 1000 l 664 1000 l 768 0 l 613 0 l 590 265 l 293 265 l 186 0 l 26 0 l 456 1000 m 343 388 l 581 388 l 550 760 q 546 854 546 814 q 546 894 546 875 l 540 894 q 528 854 535 875 q 513 811 521 835 q 494 761 506 788 l 343 388 z "},"B":{"ha":833,"x_min":43,"x_max":799,"o":"m 779 739 q 703 591 764 647 q 556 528 643 535 l 553 518 q 696 452 650 514 q 725 285 742 390 q 608 75 704 150 q 363 0 513 0 l 43 0 l 201 1000 l 508 1000 q 726 931 654 1000 q 779 739 799 861 m 568 290 q 542 408 581 365 q 419 450 503 450 l 264 450 l 214 132 l 369 132 q 505 174 453 132 q 568 290 557 215 m 618 722 q 593 830 629 790 q 485 869 557 869 l 331 869 l 285 578 l 438 578 q 559 617 511 578 q 618 722 607 656 z "},"C":{"ha":833,"x_min":71,"x_max":799,"o":"m 515 1014 q 725 937 651 1014 q 788 729 799 860 l 638 729 q 604 840 643 800 q 494 879 565 879 q 365 834 417 879 q 300 711 313 789 l 233 289 q 258 165 221 210 q 374 121 296 121 q 498 161 447 121 q 565 271 549 201 l 715 271 q 588 62 685 138 q 353 -14 492 -14 q 225 7 281 -14 q 134 67 169 28 q 85 161 99 106 q 82 285 71 217 l 150 715 q 192 840 161 785 q 270 934 222 896 q 380 993 318 972 q 515 1014 442 1014 z "},"D":{"ha":833,"x_min":43,"x_max":785,"o":"m 358 139 q 495 186 439 139 q 564 313 551 233 l 624 689 q 594 814 635 767 q 474 861 553 861 l 331 861 l 215 139 l 358 139 m 43 0 l 201 1000 l 496 1000 q 626 978 569 1000 q 720 915 683 956 q 771 817 757 874 q 774 689 785 760 l 714 313 q 670 184 703 242 q 588 85 638 126 q 475 22 539 44 q 338 0 411 0 l 43 0 z "},"E":{"ha":833,"x_min":57,"x_max":818,"o":"m 215 1000 l 818 1000 l 797 867 l 346 867 l 300 582 l 703 582 l 682 446 l 279 446 l 229 135 l 681 135 l 660 0 l 57 0 l 215 1000 z "},"F":{"ha":833,"x_min":53,"x_max":825,"o":"m 211 1001 l 825 1001 l 803 863 l 338 863 l 292 576 l 722 576 l 700 438 l 272 438 l 204 0 l 53 0 l 211 1001 z "},"G":{"ha":833,"x_min":63,"x_max":790,"o":"m 411 528 l 751 528 l 714 289 q 672 163 703 219 q 592 67 640 107 q 481 7 544 28 q 344 -14 418 -14 q 217 8 272 -14 q 126 69 161 29 q 76 165 90 108 q 72 289 63 221 l 140 711 q 183 835 151 781 q 261 930 214 890 q 371 990 308 969 q 507 1011 433 1011 q 715 943 642 1011 q 790 749 789 875 l 636 749 q 595 841 635 807 q 486 875 556 875 q 356 831 408 875 q 292 711 304 788 l 225 289 q 251 165 213 210 q 367 121 289 121 q 497 165 444 121 q 561 289 549 210 l 578 394 l 390 394 l 411 528 z "},"I":{"ha":833,"x_min":54,"x_max":799,"o":"m 54 0 l 75 133 l 292 133 l 408 867 l 192 867 l 213 1000 l 799 1000 l 778 867 l 561 867 l 444 133 l 661 133 l 640 0 l 54 0 z "},"J":{"ha":833,"x_min":19,"x_max":793,"o":"m 325 119 q 460 166 406 119 q 528 290 515 213 l 618 863 l 247 863 l 269 1000 l 793 1000 l 681 290 q 638 163 669 219 q 557 67 606 107 q 444 7 508 28 q 303 -14 379 -14 q 183 6 236 -14 q 94 60 131 25 q 38 147 57 96 q 22 260 19 197 l 175 260 q 215 158 174 197 q 325 119 256 119 z "},"K":{"ha":833,"x_min":44,"x_max":878,"o":"m 203 1000 l 356 1000 l 289 586 l 432 586 l 706 1000 l 878 1000 l 556 513 l 732 0 l 565 0 l 417 450 l 268 450 l 197 0 l 44 0 l 203 1000 z "},"L":{"ha":833,"x_min":100,"x_max":726,"o":"m 411 1000 l 275 140 l 726 140 l 704 0 l 100 0 l 258 1000 l 411 1000 z "},"M":{"ha":833,"x_min":19,"x_max":835,"o":"m 19 0 l 178 1000 l 361 1000 l 426 674 q 431 639 429 658 q 435 604 433 619 q 438 567 436 585 l 443 567 q 457 604 450 585 q 472 639 464 619 q 488 674 481 658 l 644 1000 l 835 1000 l 676 0 l 538 0 l 574 224 l 642 672 q 653 729 647 700 q 664 783 658 758 q 678 842 671 813 l 669 842 q 647 789 658 815 q 624 738 636 765 q 601 688 613 711 l 485 442 l 353 442 l 310 688 q 301 740 306 713 q 294 790 297 767 q 288 843 290 817 l 282 843 q 278 785 279 815 q 272 730 275 760 q 264 672 268 700 l 157 0 l 19 0 z "},"N":{"ha":833,"x_min":36,"x_max":817,"o":"m 194 1000 l 385 1000 l 529 333 q 538 279 535 310 q 543 221 540 249 q 547 153 546 188 l 561 153 q 562 171 561 153 q 564 218 563 189 q 568 283 565 247 q 576 356 571 319 l 678 1000 l 817 1000 l 658 0 l 469 0 l 328 668 q 318 728 321 696 q 313 786 315 760 q 308 849 310 818 l 294 849 q 293 788 294 819 q 288 724 290 760 q 278 647 285 688 l 175 0 l 36 0 l 194 1000 z "},"P":{"ha":833,"x_min":43,"x_max":826,"o":"m 196 0 l 43 0 l 201 1000 l 543 1000 q 671 978 615 1000 q 762 918 726 957 q 812 824 797 879 q 815 701 826 768 q 773 578 804 633 q 694 483 742 522 q 585 424 647 444 q 449 403 522 403 l 260 403 l 196 0 m 469 535 q 596 581 544 535 q 660 701 647 626 q 634 822 671 776 q 522 868 597 868 l 333 868 l 281 535 l 469 535 z "},"Q":{"ha":833,"x_min":63,"x_max":792,"o":"m 344 -14 q 217 8 272 -14 q 126 69 161 29 q 76 165 90 108 q 72 289 63 221 l 140 713 q 260 933 163 853 q 508 1014 358 1014 q 636 992 581 1014 q 727 931 692 971 q 777 836 763 892 q 781 713 792 781 l 713 289 q 647 126 697 194 q 519 22 597 58 l 646 -229 l 486 -229 l 379 -12 q 363 -14 371 -14 q 344 -14 354 -14 m 225 289 q 251 166 213 211 q 367 121 289 121 q 496 166 443 121 q 561 289 549 211 l 628 713 q 602 835 640 790 q 486 881 564 881 q 357 835 410 881 q 293 713 304 790 l 225 289 z "},"R":{"ha":833,"x_min":44,"x_max":810,"o":"m 203 1000 l 526 1000 q 654 978 599 1000 q 745 919 710 957 q 795 826 781 881 q 799 704 810 771 q 720 528 782 600 q 564 426 658 456 l 701 0 l 536 0 l 413 407 l 261 407 l 196 0 l 44 0 l 203 1000 m 453 535 q 579 581 528 535 q 643 701 631 626 q 617 822 654 776 q 506 868 581 868 l 333 868 l 281 535 l 453 535 z "},"S":{"ha":833,"x_min":50,"x_max":789,"o":"m 344 -14 q 216 6 272 -14 q 122 63 160 26 q 67 149 85 99 q 58 261 50 200 l 215 261 q 249 160 207 199 q 369 121 292 121 q 504 157 453 121 q 567 257 556 193 q 547 357 575 314 q 458 421 518 400 l 358 456 q 194 567 246 492 q 157 742 142 642 q 271 942 178 871 q 513 1014 364 1014 q 634 994 581 1014 q 723 940 688 975 q 774 855 758 904 q 782 744 789 806 l 625 744 q 595 843 633 806 q 489 881 557 881 q 369 846 415 881 q 313 750 322 811 q 331 659 304 697 q 418 600 357 621 l 524 565 q 687 451 636 529 q 719 265 738 374 q 679 149 710 200 q 600 61 649 97 q 487 6 551 25 q 344 -14 422 -14 z "},"T":{"ha":833,"x_min":125,"x_max":864,"o":"m 125 863 l 147 1000 l 864 1000 l 843 863 l 561 863 l 425 0 l 269 0 l 407 863 l 125 863 z "},"U":{"ha":833,"x_min":71,"x_max":815,"o":"m 344 -14 q 219 7 274 -14 q 131 66 165 28 q 84 160 97 104 q 82 285 71 215 l 196 1000 l 349 1000 l 235 285 q 257 164 222 207 q 367 121 292 121 q 490 163 442 121 q 550 285 538 206 l 664 1000 l 815 1000 l 703 285 q 586 64 679 142 q 344 -14 493 -14 z "},"V":{"ha":833,"x_min":136,"x_max":876,"o":"m 136 1000 l 290 1000 l 353 240 q 356 190 356 214 q 357 147 357 167 q 357 107 357 125 l 363 107 q 375 147 368 125 q 390 190 382 167 q 408 240 397 214 l 717 1000 l 876 1000 l 449 0 l 239 0 l 136 1000 z "},"W":{"ha":833,"x_min":58,"x_max":894,"o":"m 58 0 l 117 1000 l 240 1000 l 188 292 q 182 235 186 268 q 174 169 178 201 q 164 97 169 135 l 179 97 q 196 169 188 135 q 211 235 203 201 q 226 292 219 268 l 429 1000 l 585 1000 l 558 292 q 555 235 557 268 q 550 171 553 201 q 544 97 547 135 l 560 97 q 574 169 567 135 q 587 235 581 201 q 599 292 593 268 l 771 1000 l 894 1000 l 633 0 l 447 0 l 478 701 q 484 772 481 738 q 490 836 488 807 q 500 900 494 869 l 483 900 q 472 836 479 869 q 460 772 467 807 q 442 701 453 738 l 242 0 l 58 0 z "},"X":{"ha":833,"x_min":-24,"x_max":860,"o":"m -24 0 l 343 513 l 151 1000 l 321 1000 l 419 735 q 432 701 426 717 q 440 672 438 685 q 447 646 444 658 l 451 646 q 467 672 458 658 q 484 699 474 683 q 506 733 494 715 l 693 1000 l 860 1000 l 515 517 l 718 0 l 550 0 l 439 294 q 427 330 432 314 q 418 358 422 346 q 411 385 414 372 l 406 385 q 390 358 399 372 q 374 330 383 346 q 351 296 364 314 l 146 0 l -24 0 z "},"Y":{"ha":833,"x_min":124,"x_max":888,"o":"m 278 1000 l 399 589 q 409 546 406 567 q 414 508 413 525 q 417 474 417 490 l 424 474 q 436 508 428 490 q 452 546 443 525 q 474 589 461 567 l 722 1000 l 888 1000 l 479 347 l 424 0 l 271 0 l 326 347 l 124 1000 l 278 1000 z "},"Z":{"ha":833,"x_min":44,"x_max":793,"o":"m 793 1000 l 771 860 l 238 132 l 336 138 l 672 138 l 650 0 l 44 0 l 67 139 l 599 865 l 599 868 l 497 863 l 192 863 l 214 1000 l 793 1000 z "},".":{"ha":833,"x_min":292,"x_max":568,"o":"m 303 117 q 353 210 313 175 q 451 246 393 246 q 539 210 510 246 q 558 117 568 175 q 508 22 549 58 q 408 -14 467 -14 q 321 22 350 -14 q 303 117 292 58 z "},"a":{"ha":833,"x_min":58,"x_max":756,"o":"m 69 288 l 100 479 q 138 602 111 547 q 203 696 164 657 q 293 756 243 735 q 401 778 343 778 q 526 740 483 778 q 572 632 568 701 l 585 632 l 607 764 l 750 764 l 657 178 q 666 136 653 151 q 704 121 679 121 l 756 121 l 736 -6 l 638 -6 q 535 33 571 -6 q 507 132 500 71 l 494 132 q 413 25 468 64 q 276 -14 357 -14 q 175 8 218 -14 q 105 69 132 29 q 68 164 78 108 q 69 288 58 219 m 349 119 q 459 159 414 119 q 521 269 504 199 l 556 501 q 528 608 560 569 q 432 646 496 646 q 310 601 358 646 q 250 476 263 556 l 221 289 q 241 165 208 210 q 349 119 274 119 z "},"b":{"ha":833,"x_min":42,"x_max":751,"o":"m 42 0 l 204 1014 l 354 1014 l 317 774 q 310 734 314 756 q 301 692 306 713 q 293 655 297 671 q 288 632 289 639 l 299 632 q 385 739 325 700 q 528 778 444 778 q 631 756 586 778 q 703 696 675 735 q 741 601 731 657 q 740 479 751 546 l 710 288 q 671 164 699 219 q 603 69 643 108 q 511 8 563 29 q 401 -14 460 -14 q 272 26 321 -14 q 219 132 224 65 l 208 132 l 188 0 l 42 0 m 239 288 q 263 165 226 211 q 374 119 299 119 q 498 165 449 119 q 560 289 547 210 l 590 476 q 566 601 603 556 q 453 646 529 646 q 331 600 382 646 q 268 476 281 554 l 239 288 z "},"c":{"ha":833,"x_min":74,"x_max":761,"o":"m 356 -14 q 229 8 285 -14 q 138 68 174 29 q 88 162 103 107 q 85 285 74 217 l 115 479 q 235 699 138 619 q 481 778 332 778 q 594 758 543 778 q 683 704 646 739 q 741 621 721 669 q 761 514 761 572 l 608 514 q 567 608 608 572 q 460 644 526 644 q 329 601 381 644 q 267 479 278 557 l 235 285 q 261 165 224 208 q 376 121 299 121 q 497 155 447 121 q 567 250 547 189 l 719 250 q 586 55 682 124 q 356 -14 490 -14 z "},"e":{"ha":833,"x_min":63,"x_max":753,"o":"m 344 -14 q 217 7 272 -14 q 126 67 161 28 q 76 160 90 106 q 74 282 63 214 l 106 482 q 147 605 117 550 q 226 698 178 660 q 335 757 274 736 q 471 778 397 778 q 598 757 543 778 q 688 697 653 736 q 738 603 724 658 q 742 482 753 549 l 719 342 l 232 342 l 224 288 q 249 158 211 204 q 365 111 286 111 q 469 131 424 111 q 540 185 515 150 l 689 185 q 635 103 669 140 q 557 41 601 67 q 458 1 513 15 q 344 -14 404 -14 m 588 451 l 593 482 q 568 608 606 563 q 450 653 531 653 q 319 608 371 653 q 256 482 268 563 l 250 451 l 588 451 z "},"f":{"ha":833,"x_min":-18,"x_max":838,"o":"m 3 -90 l 76 -90 q 181 -58 142 -90 q 232 38 221 -25 l 313 550 l 93 550 l 115 688 l 335 688 l 353 804 q 436 958 368 901 q 608 1014 504 1014 l 838 1014 l 817 878 l 596 878 q 535 859 558 878 q 504 804 511 840 l 486 688 l 789 688 l 767 550 l 464 550 l 383 38 q 278 -160 364 -90 q 53 -229 192 -229 l -18 -229 l 3 -90 z "},"j":{"ha":833,"x_min":15,"x_max":733,"o":"m 500 624 l 186 624 l 210 764 l 674 764 l 565 74 q 523 -49 554 7 q 444 -145 492 -106 q 335 -207 396 -185 q 204 -229 274 -229 l 15 -229 l 38 -87 l 222 -87 q 349 -43 297 -87 q 413 74 401 1 l 500 624 m 615 1067 l 647 1067 q 712 1042 690 1067 q 726 978 733 1018 q 689 915 719 938 q 615 892 658 892 l 583 892 q 519 915 540 892 q 504 978 497 938 q 542 1042 511 1018 q 615 1067 572 1067 z "},"m":{"ha":833,"x_min":7,"x_max":789,"o":"m 7 0 l 128 764 l 243 764 l 225 650 l 236 650 q 290 744 251 711 q 385 778 328 778 q 470 744 439 778 q 504 650 501 711 l 510 650 q 563 744 525 711 q 658 778 601 778 q 758 726 726 778 q 774 582 789 674 l 682 0 l 554 0 l 646 572 q 638 642 653 617 q 586 667 622 667 q 500 585 519 667 l 500 582 l 408 0 l 281 0 l 372 568 l 372 572 q 357 650 381 626 q 313 667 343 667 q 252 640 272 667 q 225 576 232 613 l 133 0 l 7 0 z "},"r":{"ha":833,"x_min":72,"x_max":797,"o":"m 72 0 l 193 764 l 336 764 l 315 632 l 326 632 q 415 740 353 701 q 563 778 478 778 q 741 701 685 778 q 776 492 797 624 l 768 438 l 613 438 l 619 476 q 596 603 632 557 q 485 649 560 649 q 363 603 413 649 q 300 482 314 558 l 224 0 l 72 0 z "},"s":{"ha":833,"x_min":56,"x_max":750,"o":"m 319 -14 q 126 41 196 -14 q 58 192 56 96 l 208 192 q 247 132 211 154 q 339 110 282 110 l 388 110 q 499 138 457 110 q 549 214 542 165 q 444 317 564 300 l 335 332 q 132 556 100 361 q 231 719 149 661 q 449 778 314 778 l 499 778 q 683 725 617 778 q 749 579 750 672 l 597 579 q 563 634 594 614 q 479 654 532 654 l 429 654 q 326 630 365 654 q 279 557 288 606 q 374 463 267 476 l 485 447 q 699 218 731 414 q 595 46 681 106 q 368 -14 510 -14 l 319 -14 z "},"t":{"ha":833,"x_min":101,"x_max":785,"o":"m 124 764 l 339 764 l 376 1000 l 529 1000 l 492 764 l 785 764 l 764 626 l 469 626 l 406 219 q 418 160 399 182 q 478 139 438 139 l 672 139 l 650 0 l 449 0 q 290 60 342 0 q 253 219 238 119 l 317 626 l 101 626 l 124 764 z "},"v":{"ha":833,"x_min":108,"x_max":826,"o":"m 108 764 l 257 764 l 351 250 q 358 197 357 222 q 361 151 360 171 q 361 111 361 129 l 372 111 q 381 151 375 129 q 393 197 385 171 q 417 250 401 222 l 665 764 l 826 764 l 439 0 l 261 0 l 108 764 z "},"w":{"ha":833,"x_min":68,"x_max":854,"o":"m 68 0 l 75 764 l 183 764 l 178 268 q 177 223 178 254 q 175 160 176 192 q 172 79 174 122 l 186 79 q 204 153 196 118 q 219 217 211 185 q 233 268 228 249 l 375 764 l 529 764 l 533 267 q 535 224 535 254 q 533 161 535 193 q 533 81 533 124 l 547 81 q 565 154 557 118 q 581 215 572 183 q 596 268 589 247 l 735 764 l 854 764 l 625 0 l 440 0 l 433 515 q 434 551 433 526 q 436 604 435 576 q 439 672 438 635 l 426 672 q 418 614 422 643 q 408 563 414 590 q 396 514 403 535 l 249 0 l 68 0 z "},"x":{"ha":833,"x_min":-14,"x_max":814,"o":"m -14 0 l 322 396 l 124 764 l 289 764 l 399 547 q 407 528 404 538 q 413 513 410 519 q 417 497 415 504 l 425 497 q 435 513 429 504 q 461 547 443 526 l 636 764 l 814 764 l 499 392 l 710 0 l 544 0 l 424 235 q 415 255 419 246 q 408 272 411 264 q 401 289 404 281 l 393 289 q 383 271 389 281 q 372 255 378 264 q 358 236 365 246 l 164 0 l -14 0 z "},"y":{"ha":833,"x_min":76,"x_max":772,"o":"m 96 335 l 164 764 l 314 764 l 250 361 q 272 239 238 283 q 376 194 306 194 q 494 235 446 194 q 556 349 542 276 l 622 764 l 772 764 l 653 28 q 550 -161 633 -93 q 336 -229 467 -229 l 117 -229 l 138 -97 l 349 -97 q 453 -65 413 -97 q 503 28 493 -32 l 511 81 l 539 208 l 528 208 q 443 102 501 139 q 303 65 385 65 q 133 138 189 65 q 96 335 76 211 z "},"z":{"ha":833,"x_min":36,"x_max":764,"o":"m 169 764 l 764 764 l 739 610 l 239 135 q 238 131 239 133 q 238 126 238 128 q 271 131 254 128 q 304 133 286 132 q 340 133 322 133 l 679 133 l 658 0 l 36 0 l 61 153 l 564 629 l 564 636 q 528 635 546 635 q 494 633 513 633 q 456 632 475 632 l 147 632 l 169 764 z "},",":{"ha":833,"x_min":185,"x_max":571,"o":"m 571 210 l 319 -222 l 185 -222 l 367 210 l 571 210 z "},"-":{"ha":833,"x_min":129,"x_max":706,"o":"m 150 528 l 706 528 l 685 394 l 129 394 l 150 528 z "},"+":{"ha":833,"x_min":85,"x_max":753,"o":"m 85 393 l 106 524 l 357 524 l 400 792 l 543 792 l 501 524 l 753 524 l 733 393 l 481 393 l 438 125 l 294 125 l 338 393 l 85 393 z "},"*":{"ha":833,"x_min":58,"x_max":799,"o":"m 58 528 l 128 661 l 228 624 q 274 601 250 615 q 319 572 297 588 q 360 540 340 556 q 394 513 381 525 l 401 517 q 395 563 399 536 q 390 619 392 590 q 388 678 388 649 q 393 733 389 707 l 411 847 l 553 847 l 535 733 q 522 678 531 707 q 501 619 513 649 q 478 564 490 590 q 457 517 467 538 l 461 513 q 504 542 481 525 q 555 574 528 558 q 609 603 582 589 q 661 625 636 617 l 772 664 l 799 524 l 689 486 q 636 472 664 478 q 580 463 608 467 q 524 458 551 460 q 476 456 497 456 l 472 447 q 505 418 488 435 q 540 381 522 401 q 574 340 558 361 q 601 299 590 319 l 653 206 l 528 126 l 476 219 q 456 266 465 240 q 440 319 447 292 q 428 372 433 346 q 418 417 422 397 l 408 417 q 388 372 400 397 q 360 319 375 346 q 328 265 344 292 q 293 218 311 239 l 213 124 l 107 206 l 186 299 q 227 340 204 319 q 274 381 250 361 q 323 419 299 401 q 365 449 347 436 l 363 456 q 315 459 342 457 q 261 465 289 461 q 207 476 233 469 q 158 490 181 482 l 58 528 z "},"/":{"ha":833,"x_min":-14,"x_max":840,"o":"m 679 1153 l 840 1153 l 149 -153 l -14 -153 l 679 1153 z "},"\\":{"ha":833,"x_min":194,"x_max":629,"o":"m 629 -153 l 475 -153 l 194 1153 l 347 1153 l 629 -153 z "},":":{"ha":833,"x_min":233,"x_max":586,"o":"m 243 106 q 290 192 251 158 q 385 226 329 226 q 467 192 439 226 q 486 106 496 158 q 438 19 478 51 q 344 -14 399 -14 q 262 19 290 -14 q 243 106 233 53 m 333 656 q 381 744 342 710 q 475 778 419 778 q 558 744 531 778 q 578 656 586 710 q 529 570 568 603 q 436 538 490 538 q 352 570 381 538 q 333 656 324 603 z "},";":{"ha":833,"x_min":147,"x_max":647,"o":"m 533 210 l 282 -222 l 147 -222 l 331 210 l 533 210 m 388 654 q 439 744 399 710 q 535 778 479 778 q 619 744 592 778 q 636 654 647 710 q 585 565 625 599 q 489 532 544 532 q 405 566 433 532 q 388 654 376 600 z "},"<":{"ha":833,"x_min":100,"x_max":783,"o":"m 217 461 l 215 450 q 243 444 228 447 q 272 436 256 442 q 303 422 288 431 l 688 232 l 665 88 l 100 379 l 125 538 l 783 829 l 758 674 l 314 486 q 277 474 294 479 q 246 465 260 468 q 217 461 231 463 z "},"=":{"ha":833,"x_min":76,"x_max":763,"o":"m 99 358 l 710 358 l 688 221 l 76 221 l 99 358 m 151 697 l 763 697 l 742 558 l 131 558 l 151 697 z "},"!":{"ha":833,"x_min":240,"x_max":589,"o":"m 357 169 l 389 169 q 454 145 432 169 q 469 81 476 121 q 433 17 463 40 q 360 -7 403 -7 l 328 -7 q 263 16 285 -7 q 247 79 240 39 q 284 144 254 119 q 357 169 314 169 m 424 1000 l 589 1000 l 553 778 l 449 313 l 344 313 l 388 778 l 424 1000 z "},"?":{"ha":833,"x_min":189,"x_max":744,"o":"m 307 169 l 340 169 q 404 145 383 169 q 418 81 425 121 q 381 17 411 40 q 307 -7 350 -7 l 275 -7 q 210 17 232 -7 q 196 81 189 40 q 233 145 203 121 q 307 169 264 169 m 733 697 q 632 503 714 575 q 421 428 550 432 l 400 294 l 258 294 l 299 560 l 392 560 q 522 599 471 560 q 585 708 574 638 q 556 818 596 779 q 436 857 517 857 l 244 857 l 267 1000 l 454 1000 q 586 978 529 1000 q 679 917 643 957 q 730 822 715 878 q 733 697 744 767 z "},"'":{"ha":833,"x_min":335,"x_max":544,"o":"m 386 1014 l 544 1014 l 510 801 l 460 597 l 335 597 l 351 801 l 386 1014 z "},"\"":{"ha":833,"x_min":236,"x_max":740,"o":"m 532 597 l 547 801 l 582 1014 l 740 1014 l 706 801 l 656 597 l 532 597 m 236 597 l 253 801 l 288 1014 l 446 1014 l 410 801 l 361 597 l 236 597 z "},"#":{"ha":833,"x_min":4,"x_max":829,"o":"m 21 371 l 156 371 l 243 629 l 110 629 l 126 736 l 279 736 l 369 1000 l 486 1000 l 396 736 l 597 736 l 688 1000 l 804 1000 l 714 736 l 829 736 l 813 629 l 678 629 l 590 371 l 722 371 l 706 264 l 554 264 l 464 0 l 347 0 l 438 264 l 236 264 l 146 0 l 29 0 l 119 264 l 4 264 l 21 371 m 474 371 l 561 629 l 360 629 l 272 371 l 474 371 z "},"%":{"ha":833,"x_min":13,"x_max":828,"o":"m 828 789 l 811 682 l 13 210 l 29 315 l 828 789 m 303 918 q 235 892 261 918 q 201 822 208 867 l 188 733 q 199 663 181 689 q 258 638 217 638 q 328 665 304 638 q 360 733 353 693 l 374 822 q 363 892 381 867 q 303 918 344 918 m 244 549 q 114 598 156 549 q 86 733 72 647 l 100 822 q 171 958 114 908 q 317 1007 228 1007 q 447 958 406 1007 q 475 822 489 908 l 461 733 q 390 598 447 647 q 244 549 333 549 m 579 363 q 511 337 538 363 q 478 267 485 311 l 464 178 q 475 108 457 133 q 535 82 493 82 q 604 110 579 82 q 636 178 629 138 l 650 267 q 639 337 657 311 q 579 363 621 363 m 521 -7 q 390 42 432 -7 q 363 178 349 92 l 376 267 q 447 402 390 353 q 593 451 504 451 q 724 402 682 451 q 751 267 765 353 l 738 178 q 667 42 724 92 q 521 -7 610 -7 z "},"{":{"ha":833,"x_min":99,"x_max":819,"o":"m 613 -153 l 532 -153 q 351 -90 411 -153 q 315 86 292 -26 l 364 306 q 356 400 379 369 q 258 431 333 431 l 99 431 l 121 569 l 281 569 q 388 599 356 569 q 426 694 419 629 l 447 915 q 538 1090 458 1028 q 739 1153 618 1153 l 819 1153 l 797 1014 l 731 1014 q 638 988 672 1014 q 599 907 604 961 l 576 685 q 516 558 569 607 q 379 506 463 508 l 378 499 q 449 483 419 497 q 497 443 479 468 q 521 385 515 418 q 518 314 526 353 l 469 93 q 485 13 458 40 q 568 -15 511 -15 l 635 -15 l 613 -153 z "},"|":{"ha":833,"x_min":246,"x_max":606,"o":"m 453 1153 l 606 1153 l 399 -153 l 246 -153 l 453 1153 z "},"[":{"ha":833,"x_min":175,"x_max":750,"o":"m 382 1153 l 750 1153 l 725 1014 l 510 1014 l 353 -14 l 568 -14 l 543 -153 l 175 -153 l 382 1153 z "},"_":{"ha":833,"x_min":-3,"x_max":694,"o":"m 18 -36 l 694 -36 l 672 -171 l -3 -171 l 18 -36 z "},")":{"ha":833,"x_min":61,"x_max":639,"o":"m 282 1174 q 449 1098 378 1149 q 565 978 521 1047 q 624 820 608 908 q 622 632 639 732 l 579 368 q 415 17 544 153 q 61 -174 285 -119 l 86 -18 q 314 115 225 15 q 426 368 403 214 l 469 632 q 440 890 496 786 q 257 1026 383 994 l 282 1174 z "},"d":{"ha":833,"x_min":63,"x_max":810,"o":"m 74 288 l 103 479 q 142 601 114 546 q 210 696 169 657 q 301 756 250 735 q 411 778 353 778 q 542 739 494 778 q 594 632 590 700 l 606 632 q 607 654 606 639 q 610 689 608 669 q 615 728 613 708 q 619 764 618 749 l 660 1014 l 810 1014 l 650 0 l 506 0 l 526 132 l 515 132 q 428 26 489 65 q 286 -14 368 -14 q 183 8 228 -14 q 110 69 139 29 q 72 164 82 108 q 74 288 63 219 m 356 119 q 478 162 428 119 q 543 276 528 204 l 578 493 q 548 605 585 564 q 443 646 511 646 q 317 601 367 646 q 254 476 267 556 l 224 289 q 246 165 211 210 q 356 119 281 119 z "},"q":{"ha":833,"x_min":64,"x_max":771,"o":"m 288 -14 q 185 8 229 -14 q 112 69 140 29 q 74 164 83 108 q 74 288 64 219 l 104 479 q 142 601 115 546 q 210 696 169 657 q 303 756 251 735 q 413 778 354 778 q 543 739 496 778 q 596 632 590 700 l 607 632 l 628 764 l 771 764 l 613 -229 l 464 -229 l 500 0 q 508 41 503 19 q 517 81 513 63 q 524 114 521 100 q 528 132 526 128 l 517 132 q 429 26 490 65 q 288 -14 368 -14 m 225 289 q 247 165 213 210 q 357 119 282 119 q 478 160 428 119 q 543 272 528 201 l 579 497 q 547 606 583 565 q 444 646 511 646 q 317 601 367 646 q 254 476 267 556 l 225 289 z "},"u":{"ha":833,"x_min":68,"x_max":769,"o":"m 90 279 l 167 764 l 319 764 l 240 279 q 365 119 215 119 q 542 279 517 119 l 619 764 l 769 764 l 693 279 q 581 63 671 139 q 344 -14 490 -14 q 135 64 203 -14 q 90 279 68 142 z "},"—":{"ha":833,"x_min":8,"x_max":826,"o":"m 29 528 l 826 528 l 804 393 l 8 393 l 29 528 z "},"^":{"ha":833,"x_min":104,"x_max":733,"o":"m 435 1000 l 579 1000 l 733 458 l 599 458 l 513 801 q 506 836 508 819 q 500 867 503 853 q 496 897 497 883 l 485 897 q 479 867 483 883 q 470 836 476 853 q 453 801 464 819 l 253 458 l 104 458 l 435 1000 z "},"÷":{"ha":833,"x_min":129,"x_max":706,"o":"m 150 528 l 706 528 l 685 394 l 129 394 l 150 528 m 367 288 l 400 288 q 465 263 443 288 q 481 199 488 239 q 444 135 474 158 q 371 111 415 111 l 339 111 q 274 134 296 111 q 258 197 251 157 q 294 263 265 238 q 367 288 324 288 m 451 810 l 483 810 q 549 785 526 810 q 564 721 571 761 q 528 658 557 681 q 456 635 499 635 l 424 635 q 358 658 381 635 q 343 722 336 682 q 379 785 350 761 q 451 810 408 810 z "},"×":{"ha":833,"x_min":110,"x_max":733,"o":"m 733 642 l 514 451 l 671 265 l 568 175 l 411 363 l 194 175 l 110 276 l 325 463 l 168 650 l 271 739 l 429 553 l 649 743 l 733 642 z "},"±":{"ha":833,"x_min":46,"x_max":774,"o":"m 104 439 l 125 568 l 378 568 l 419 836 l 564 836 l 521 568 l 774 568 l 753 439 l 500 439 l 458 169 l 314 169 l 357 439 l 104 439 m 46 0 l 65 117 l 708 117 l 690 0 l 46 0 z "},"−":{"ha":833,"x_min":129,"x_max":706,"o":"m 150 528 l 706 528 l 685 394 l 129 394 l 150 528 z "},"@":{"ha":833,"x_min":-3,"x_max":858,"o":"m 13 174 l 85 611 q 138 780 100 706 q 235 906 176 854 q 369 986 293 958 q 535 1014 446 1014 q 778 935 699 1014 q 833 708 858 856 l 735 104 l 618 104 l 639 240 q 563 128 611 167 q 450 90 515 90 q 310 333 269 90 l 328 444 q 403 626 347 564 q 549 688 460 688 q 686 557 669 688 q 690 608 688 574 q 700 681 693 642 l 704 708 q 670 853 719 804 q 517 901 621 901 q 316 826 394 901 q 214 611 238 750 l 142 174 q 180 -33 121 43 q 364 -110 239 -110 l 461 -110 l 442 -229 l 344 -229 q 184 -201 253 -229 q 72 -120 115 -172 q 13 6 29 -68 q 13 174 -3 81 m 507 188 q 644 343 619 188 l 660 436 q 572 590 685 590 q 498 553 528 590 q 457 444 468 515 l 439 333 q 445 225 428 263 q 507 188 463 188 z "},"&":{"ha":833,"x_min":17,"x_max":797,"o":"m 35 233 l 58 379 q 115 510 69 458 q 233 583 161 563 q 194 684 203 640 q 192 774 185 728 q 225 869 200 826 q 289 941 250 911 q 378 988 328 971 q 488 1004 428 1004 q 676 940 614 1004 q 719 763 738 875 l 574 763 q 553 846 582 815 q 468 876 525 876 q 378 846 415 876 q 335 767 342 815 q 338 706 329 736 q 368 638 346 676 l 532 343 l 640 500 l 797 500 l 600 221 l 724 0 l 565 0 l 508 99 q 253 -14 404 -14 q 74 51 131 -14 q 35 233 17 117 m 282 115 q 367 142 326 115 q 443 215 408 169 l 285 493 q 206 379 221 468 l 183 233 q 200 146 174 176 q 282 115 226 115 z "},"]":{"ha":833,"x_min":100,"x_max":675,"o":"m 468 -153 l 100 -153 l 125 -14 l 340 -14 l 497 1014 l 282 1014 l 307 1153 l 675 1153 l 468 -153 z "},"$":{"ha":833,"x_min":44,"x_max":800,"o":"m 58 261 l 217 261 q 250 160 208 199 q 371 121 292 121 q 505 157 453 121 q 568 258 557 193 q 549 357 576 314 q 460 421 521 400 l 361 456 q 197 567 249 492 q 161 742 146 642 q 251 919 179 851 q 435 1007 322 988 l 436 1028 l 454 1139 l 607 1139 l 589 1028 l 583 1008 q 746 922 692 992 q 786 744 800 851 l 629 744 q 600 843 638 806 q 493 881 563 881 q 373 846 419 881 q 317 750 326 811 q 334 659 308 697 q 422 600 360 621 l 528 565 q 690 451 640 529 q 722 265 740 374 q 625 80 704 151 q 419 -8 546 8 l 417 -42 l 399 -153 l 246 -153 l 264 -42 l 274 -8 q 103 82 161 11 q 58 261 44 153 z "},"\n":{"ha":833,"x_min":0,"x_max":0,"o":""},"–":{"ha":833,"x_min":81,"x_max":754,"o":"m 101 528 l 754 528 l 733 394 l 81 394 l 101 528 z "},"·":{"ha":833,"x_min":292,"x_max":568,"o":"m 303 488 q 353 581 313 546 q 451 617 393 617 q 539 581 510 617 q 558 488 568 546 q 508 393 549 429 q 408 357 467 357 q 321 393 350 357 q 303 488 292 429 z "},"ı":{"ha":833,"x_min":53,"x_max":724,"o":"m 53 0 l 75 139 l 351 139 l 428 626 l 188 626 l 210 764 l 597 764 l 499 139 l 724 139 l 701 0 l 53 0 z "},"€":{"ha":833,"x_min":10,"x_max":813,"o":"m 10 339 l 25 438 l 119 438 l 135 535 l 40 535 l 57 635 l 151 635 l 164 715 q 206 840 175 785 q 284 934 236 896 q 394 993 332 972 q 529 1014 456 1014 q 739 937 665 1014 q 801 729 813 860 l 651 729 q 618 840 657 800 q 508 879 579 879 q 378 834 431 879 q 314 711 326 789 l 301 635 l 511 635 l 496 535 l 286 535 l 271 438 l 481 438 l 465 339 l 256 339 l 247 289 q 272 165 235 210 q 388 121 310 121 q 512 161 461 121 q 579 271 563 201 l 729 271 q 602 62 699 138 q 367 -14 506 -14 q 239 7 294 -14 q 148 67 183 28 q 99 161 113 106 q 96 285 85 217 l 104 339 l 10 339 z "},"•":{"ha":833,"x_min":233,"x_max":618,"o":"m 244 493 q 270 565 251 532 q 317 622 289 597 q 380 659 344 646 q 454 672 415 672 q 575 622 532 672 q 606 493 618 571 q 581 423 600 456 q 535 366 563 390 q 472 328 507 342 q 397 315 436 315 q 276 366 318 315 q 244 493 233 417 z "},"¦":{"ha":833,"x_min":247,"x_max":606,"o":"m 454 1153 l 606 1153 l 522 625 l 369 625 l 454 1153 m 331 375 l 483 375 l 400 -153 l 247 -153 l 331 375 z "},"»":{"ha":833,"x_min":-22,"x_max":797,"o":"m -22 56 l 250 339 q 274 361 263 353 q 293 376 285 369 q 313 388 303 383 l 313 390 q 303 401 308 394 q 275 439 290 414 l 90 722 l 257 722 l 467 389 l 154 56 l -22 56 m 586 339 q 610 361 599 353 q 628 376 621 369 q 644 388 638 383 l 644 390 q 635 401 640 394 q 607 439 622 414 l 422 722 l 588 722 l 797 389 l 490 56 l 315 56 l 586 339 z "},"«":{"ha":833,"x_min":24,"x_max":842,"o":"m 356 389 l 671 722 l 842 722 l 569 438 q 526 400 546 413 q 508 389 517 393 l 508 386 q 519 375 514 382 q 532 360 525 368 q 547 338 539 351 l 732 56 l 567 56 l 356 389 m 24 389 l 335 722 l 504 722 l 235 438 q 211 415 222 424 q 193 400 200 406 q 178 389 185 393 l 176 386 q 188 375 182 382 q 200 360 193 368 q 215 338 207 351 l 400 56 l 235 56 l 24 389 z "},"‹":{"ha":833,"x_min":201,"x_max":689,"o":"m 517 722 l 689 722 l 421 439 q 396 416 408 425 q 374 401 383 407 q 353 390 363 394 l 353 388 q 364 376 357 383 q 375 361 368 369 q 390 339 382 353 l 575 56 l 413 56 l 201 389 l 517 722 z "},"›":{"ha":833,"x_min":140,"x_max":625,"o":"m 625 389 l 313 56 l 140 56 l 408 339 q 432 361 421 353 q 453 376 443 369 q 474 388 464 383 l 474 390 q 464 401 469 394 q 453 416 460 407 q 438 439 446 425 l 253 722 l 415 722 l 625 389 z "},"‘":{"ha":833,"x_min":267,"x_max":653,"o":"m 267 644 l 518 1076 l 653 1076 l 471 644 l 267 644 z "},"’":{"ha":833,"x_min":182,"x_max":568,"o":"m 568 1078 l 317 646 l 182 646 l 364 1078 l 568 1078 z "},"“":{"ha":833,"x_min":75,"x_max":843,"o":"m 75 644 l 326 1076 l 461 1076 l 279 644 l 75 644 m 457 644 l 708 1076 l 843 1076 l 661 644 l 457 644 z "},"”":{"ha":833,"x_min":-10,"x_max":758,"o":"m 758 1078 l 507 646 l 372 646 l 554 1078 l 758 1078 m 376 1078 l 125 646 l -10 646 l 172 1078 l 376 1078 z "},"‚":{"ha":833,"x_min":185,"x_max":571,"o":"m 571 210 l 319 -222 l 185 -222 l 367 210 l 571 210 z "},"„":{"ha":833,"x_min":-10,"x_max":758,"o":"m 758 210 l 507 -222 l 372 -222 l 554 210 l 758 210 m 376 210 l 125 -222 l -10 -222 l 172 210 l 376 210 z "},"˜":{"ha":833,"x_min":236,"x_max":811,"o":"m 639 997 q 682 1014 664 997 q 707 1061 700 1031 l 711 1097 l 811 1097 l 806 1063 q 744 942 792 985 q 625 899 697 899 q 551 915 579 899 q 501 951 522 932 q 459 988 479 971 q 410 1004 439 1004 q 367 988 385 1004 q 342 939 349 971 l 336 906 l 236 906 l 242 940 q 304 1061 257 1018 q 424 1104 351 1104 q 498 1088 469 1104 q 548 1051 526 1071 q 590 1014 569 1031 q 639 997 610 997 z "},"¯":{"ha":833,"x_min":306,"x_max":706,"o":"m 326 1076 l 706 1076 l 685 947 l 306 947 l 326 1076 z "},"~":{"ha":833,"x_min":64,"x_max":774,"o":"m 549 347 q 476 360 507 347 q 424 390 446 372 q 386 431 403 408 q 353 471 369 453 q 320 501 338 489 q 279 514 303 514 q 208 446 219 514 l 193 354 l 64 354 l 79 451 q 149 583 93 535 q 290 632 204 632 q 390 606 353 632 q 451 549 426 581 q 499 492 476 518 q 558 465 522 465 q 629 533 618 465 l 644 625 l 774 625 l 758 528 q 688 396 744 444 q 549 347 632 347 z "},"˘":{"ha":833,"x_min":293,"x_max":782,"o":"m 300 1097 l 422 1097 q 441 1028 414 1053 q 522 1003 468 1003 q 614 1028 578 1003 q 657 1097 650 1053 l 782 1097 q 751 1016 775 1053 q 692 953 728 979 q 610 914 657 928 q 508 900 563 900 q 413 915 456 900 q 344 955 371 929 q 305 1017 317 981 q 300 1097 293 1054 z "},"˙":{"ha":833,"x_min":363,"x_max":599,"o":"m 479 1118 l 511 1118 q 576 1094 554 1118 q 592 1029 599 1069 q 556 965 585 989 q 483 942 526 942 l 451 942 q 385 965 408 942 q 369 1028 363 988 q 406 1093 376 1068 q 479 1118 436 1118 z "},"˚":{"ha":833,"x_min":394,"x_max":750,"o":"m 406 1000 q 469 1106 417 1067 q 597 1146 522 1146 q 711 1106 672 1146 q 739 1000 750 1067 q 675 894 728 933 q 547 854 622 854 q 433 894 472 854 q 406 1000 394 933 m 494 1000 q 558 926 482 926 q 651 1000 639 926 q 641 1056 658 1036 q 585 1075 624 1075 q 524 1056 549 1075 q 494 1000 500 1036 z "},"`":{"ha":833,"x_min":332,"x_max":619,"o":"m 332 1106 l 504 1106 l 619 903 l 476 903 l 332 1106 z "},"´":{"ha":833,"x_min":318,"x_max":628,"o":"m 510 1141 l 338 1159 l 222 969 l 365 953 l 510 1141 z "},"˝":{"ha":833,"x_min":225,"x_max":871,"o":"m 228 1211 l 56 1265 l -60 1099 l 83 1054 l 228 1211 m 519 1211 l 347 1265 l 232 1099 l 375 1054 l 519 1211 z "},"à":{"ha":833,"x_min":58,"x_max":756,"o":"m 69 288 l 100 479 q 138 602 111 547 q 203 696 164 657 q 293 756 243 735 q 401 778 343 778 q 526 740 483 778 q 572 632 568 701 l 585 632 l 607 764 l 750 764 l 657 178 q 666 136 653 151 q 704 121 679 121 l 756 121 l 736 -6 l 638 -6 q 535 33 571 -6 q 507 132 500 71 l 494 132 q 413 25 468 64 q 276 -14 357 -14 q 175 8 218 -14 q 105 69 132 29 q 68 164 78 108 q 69 288 58 219 m 349 119 q 459 159 414 119 q 521 269 504 199 l 556 501 q 528 608 560 569 q 432 646 496 646 q 310 601 358 646 q 250 476 263 556 l 221 289 q 241 165 208 210 q 349 119 274 119 m 332 1106 l 504 1106 l 619 903 l 476 903 l 332 1106 z "},"ñ":{"ha":833,"x_min":40,"x_max":811,"o":"m 40 0 l 161 764 l 306 764 l 285 632 l 297 632 q 382 740 322 701 q 525 778 442 778 q 624 758 581 778 q 694 701 667 738 q 731 613 721 664 q 732 499 742 561 l 653 0 l 501 0 l 578 482 q 557 604 589 561 q 454 647 525 647 q 335 606 383 647 q 271 493 286 565 l 193 0 l 40 0 m 639 997 q 682 1014 664 997 q 707 1061 700 1031 l 711 1097 l 811 1097 l 806 1063 q 744 942 792 985 q 625 899 697 899 q 551 915 579 899 q 501 951 522 932 q 459 988 479 971 q 410 1004 439 1004 q 367 988 385 1004 q 342 939 349 971 l 336 906 l 236 906 l 242 940 q 304 1061 257 1018 q 424 1104 351 1104 q 498 1088 469 1104 q 548 1051 526 1071 q 590 1014 569 1031 q 639 997 610 997 z "},"Ű":{"ha":833,"x_min":71,"x_max":871,"o":"m 344 -14 q 219 7 274 -14 q 131 66 165 28 q 84 160 97 104 q 82 285 71 215 l 196 1000 l 349 1000 l 235 285 q 257 164 222 207 q 367 121 292 121 q 490 163 442 121 q 550 285 538 206 l 664 1000 l 815 1000 l 703 285 q 586 64 679 142 q 344 -14 493 -14 m 228 1433 l 56 1487 l -60 1321 l 83 1276 l 228 1433 m 519 1433 l 347 1487 l 232 1321 l 375 1276 l 519 1433 z "},"ű":{"ha":833,"x_min":68,"x_max":871,"o":"m 90 279 l 167 764 l 319 764 l 240 279 q 365 119 215 119 q 542 279 517 119 l 619 764 l 769 764 l 693 279 q 581 63 671 139 q 344 -14 490 -14 q 135 64 203 -14 q 90 279 68 142 m 228 1211 l 56 1265 l -60 1099 l 83 1054 l 228 1211 m 519 1211 l 347 1265 l 232 1099 l 375 1054 l 519 1211 z "},"¨":{"ha":833,"x_min":297,"x_max":774,"o":"m 304 1008 q 340 1070 311 1047 q 408 1093 368 1093 q 470 1070 449 1093 q 485 1008 492 1047 q 449 944 478 968 q 381 921 421 921 q 319 944 340 921 q 304 1008 297 968 m 586 1008 q 622 1070 593 1047 q 692 1093 651 1093 q 753 1070 732 1093 q 767 1008 774 1047 q 731 944 760 968 q 663 921 703 921 q 601 944 622 921 q 586 1008 579 968 z "},"ä":{"ha":833,"x_min":58,"x_max":774,"o":"m 69 288 l 100 479 q 138 602 111 547 q 203 696 164 657 q 293 756 243 735 q 401 778 343 778 q 526 740 483 778 q 572 632 568 701 l 585 632 l 607 764 l 750 764 l 657 178 q 666 136 653 151 q 704 121 679 121 l 756 121 l 736 -6 l 638 -6 q 535 33 571 -6 q 507 132 500 71 l 494 132 q 413 25 468 64 q 276 -14 357 -14 q 175 8 218 -14 q 105 69 132 29 q 68 164 78 108 q 69 288 58 219 m 349 119 q 459 159 414 119 q 521 269 504 199 l 556 501 q 528 608 560 569 q 432 646 496 646 q 310 601 358 646 q 250 476 263 556 l 221 289 q 241 165 208 210 q 349 119 274 119 m 304 1008 q 340 1070 311 1047 q 408 1093 368 1093 q 470 1070 449 1093 q 485 1008 492 1047 q 449 944 478 968 q 381 921 421 921 q 319 944 340 921 q 304 1008 297 968 m 586 1008 q 622 1070 593 1047 q 692 1093 651 1093 q 753 1070 732 1093 q 767 1008 774 1047 q 731 944 760 968 q 663 921 703 921 q 601 944 622 921 q 586 1008 579 968 z "},"ˆ":{"ha":833,"x_min":267,"x_max":743,"o":"m 468 1104 l 611 1104 l 743 903 l 625 903 l 565 982 q 539 1018 544 1010 q 533 1029 535 1025 l 529 1029 q 519 1019 525 1025 q 505 1006 514 1014 q 482 983 496 997 l 394 903 l 267 903 l 468 1104 z "},"ˇ":{"ha":833,"x_min":306,"x_max":782,"o":"m 306 1104 l 425 1104 l 486 1024 q 502 1002 496 1011 q 511 988 508 993 q 518 978 515 982 l 521 978 q 531 989 524 982 q 545 1003 536 994 q 569 1025 554 1013 l 656 1104 l 782 1104 l 582 903 l 439 903 l 306 1104 z "},"č":{"ha":833,"x_min":74,"x_max":782,"o":"m 356 -14 q 229 8 285 -14 q 138 68 174 29 q 88 162 103 107 q 85 285 74 217 l 115 479 q 235 699 138 619 q 481 778 332 778 q 594 758 543 778 q 683 704 646 739 q 741 621 721 669 q 761 514 761 572 l 608 514 q 567 608 608 572 q 460 644 526 644 q 329 601 381 644 q 267 479 278 557 l 235 285 q 261 165 224 208 q 376 121 299 121 q 497 155 447 121 q 567 250 547 189 l 719 250 q 586 55 682 124 q 356 -14 490 -14 m 306 1104 l 425 1104 l 486 1024 q 502 1002 496 1011 q 511 988 508 993 q 518 978 515 982 l 521 978 q 531 989 524 982 q 545 1003 536 994 q 569 1025 554 1013 l 656 1104 l 782 1104 l 582 903 l 439 903 l 306 1104 z "},"¸":{"ha":833,"x_min":229,"x_max":553,"o":"m 351 36 l 440 36 l 390 -49 q 476 -68 439 -53 q 506 -83 492 -74 q 532 -103 521 -92 q 548 -131 543 -115 q 550 -167 553 -147 q 490 -244 543 -214 q 357 -274 436 -274 q 297 -273 321 -274 q 257 -271 272 -272 q 229 -267 239 -268 l 242 -186 q 268 -189 253 -187 q 300 -191 281 -190 q 343 -192 319 -192 q 392 -181 372 -192 q 415 -153 413 -171 q 383 -110 419 -125 q 275 -94 346 -94 l 351 36 z "},"˛":{"ha":833,"x_min":218,"x_max":514,"o":"m 488 14 l 465 -1 q 392 -67 417 -37 q 364 -125 368 -97 q 376 -171 360 -154 q 426 -187 393 -187 l 514 -187 l 499 -282 l 382 -282 q 260 -247 303 -282 q 228 -153 218 -211 q 266 -72 235 -112 q 367 14 297 -32 l 488 14 z "},"Ų":{"ha":833,"x_min":71,"x_max":815,"o":"m 344 -14 q 219 7 274 -14 q 131 66 165 28 q 84 160 97 104 q 82 285 71 215 l 196 1000 l 349 1000 l 235 285 q 257 164 222 207 q 367 121 292 121 q 490 163 442 121 q 550 285 538 206 l 664 1000 l 815 1000 l 703 285 q 586 64 679 142 q 344 -14 493 -14 m 536 14 l 514 -1 q 441 -67 465 -37 q 413 -125 417 -97 q 425 -171 408 -154 q 475 -187 442 -187 l 563 -187 l 547 -282 l 431 -282 q 309 -247 351 -282 q 276 -153 267 -211 q 315 -72 283 -112 q 415 14 346 -32 l 536 14 z "},"ų":{"ha":833,"x_min":68,"x_max":769,"o":"m 90 279 l 167 764 l 319 764 l 240 279 q 365 119 215 119 q 542 279 517 119 l 619 764 l 769 764 l 693 279 q 581 63 671 139 q 344 -14 490 -14 q 135 64 203 -14 q 90 279 68 142 m 497 14 l 475 -1 q 402 -67 426 -37 q 374 -125 378 -97 q 386 -171 369 -154 q 436 -187 403 -187 l 524 -187 l 508 -282 l 392 -282 q 270 -247 313 -282 q 238 -153 228 -211 q 276 -72 244 -112 q 376 14 307 -32 l 497 14 z "},"ç":{"ha":833,"x_min":74,"x_max":761,"o":"m 356 -14 q 229 8 285 -14 q 138 68 174 29 q 88 162 103 107 q 85 285 74 217 l 115 479 q 235 699 138 619 q 481 778 332 778 q 594 758 543 778 q 683 704 646 739 q 741 621 721 669 q 761 514 761 572 l 608 514 q 567 608 608 572 q 460 644 526 644 q 329 601 381 644 q 267 479 278 557 l 235 285 q 261 165 224 208 q 376 121 299 121 q 497 155 447 121 q 567 250 547 189 l 719 250 q 586 55 682 124 q 356 -14 490 -14 m 351 36 l 440 36 l 390 -49 q 476 -68 439 -53 q 506 -83 492 -74 q 532 -103 521 -92 q 548 -131 543 -115 q 550 -167 553 -147 q 490 -244 543 -214 q 357 -274 436 -274 q 297 -273 321 -274 q 257 -271 272 -272 q 229 -267 239 -268 l 242 -186 q 268 -189 253 -187 q 300 -191 281 -190 q 343 -192 319 -192 q 392 -181 372 -192 q 415 -153 413 -171 q 383 -110 419 -125 q 275 -94 346 -94 l 351 36 z "},"À":{"ha":833,"x_min":26,"x_max":768,"o":"m 456 1000 l 664 1000 l 768 0 l 613 0 l 590 265 l 293 265 l 186 0 l 26 0 l 456 1000 m 343 388 l 581 388 l 550 760 q 546 854 546 814 q 546 894 546 875 l 540 894 q 528 854 535 875 q 513 811 521 835 q 494 761 506 788 l 343 388 m 332 1328 l 504 1328 l 619 1125 l 476 1125 l 332 1328 z "},"Á":{"ha":833,"x_min":26,"x_max":768,"o":"m 456 1000 l 664 1000 l 768 0 l 613 0 l 590 265 l 293 265 l 186 0 l 26 0 l 456 1000 m 343 388 l 581 388 l 550 760 q 546 854 546 814 q 546 894 546 875 l 540 894 q 528 854 535 875 q 513 811 521 835 q 494 761 506 788 l 343 388 m 510 1363 l 338 1381 l 222 1191 l 365 1176 l 510 1363 z "},"Â":{"ha":833,"x_min":26,"x_max":813,"o":"m 456 1000 l 664 1000 l 768 0 l 613 0 l 590 265 l 293 265 l 186 0 l 26 0 l 456 1000 m 343 388 l 581 388 l 550 760 q 546 854 546 814 q 546 894 546 875 l 540 894 q 528 854 535 875 q 513 811 521 835 q 494 761 506 788 l 343 388 m 538 1326 l 681 1326 l 813 1125 l 694 1125 l 635 1204 q 608 1240 614 1232 q 603 1251 604 1247 l 599 1251 q 589 1242 594 1247 q 574 1228 583 1236 q 551 1206 565 1219 l 464 1125 l 336 1125 l 538 1326 z "},"Ã":{"ha":833,"x_min":26,"x_max":881,"o":"m 456 1000 l 664 1000 l 768 0 l 613 0 l 590 265 l 293 265 l 186 0 l 26 0 l 456 1000 m 343 388 l 581 388 l 550 760 q 546 854 546 814 q 546 894 546 875 l 540 894 q 528 854 535 875 q 513 811 521 835 q 494 761 506 788 l 343 388 m 708 1219 q 751 1236 733 1219 q 776 1283 769 1253 l 781 1319 l 881 1319 l 875 1285 q 814 1164 861 1207 q 694 1121 767 1121 q 620 1138 649 1121 q 570 1174 592 1154 q 528 1210 549 1193 q 479 1226 508 1226 q 436 1210 454 1226 q 411 1161 418 1193 l 406 1128 l 306 1128 l 311 1163 q 374 1283 326 1240 q 493 1326 421 1326 q 567 1310 539 1326 q 617 1273 596 1293 q 659 1236 639 1253 q 708 1219 679 1219 z "},"Ä":{"ha":833,"x_min":26,"x_max":829,"o":"m 456 1000 l 664 1000 l 768 0 l 613 0 l 590 265 l 293 265 l 186 0 l 26 0 l 456 1000 m 343 388 l 581 388 l 550 760 q 546 854 546 814 q 546 894 546 875 l 540 894 q 528 854 535 875 q 513 811 521 835 q 494 761 506 788 l 343 388 m 360 1231 q 395 1292 367 1269 q 464 1315 424 1315 q 526 1292 504 1315 q 540 1231 547 1269 q 505 1167 533 1190 q 436 1143 476 1143 q 374 1167 396 1143 q 360 1231 353 1190 m 642 1231 q 678 1292 649 1269 q 747 1315 707 1315 q 808 1292 788 1315 q 822 1231 829 1269 q 787 1167 815 1190 q 718 1143 758 1143 q 656 1167 678 1143 q 642 1231 635 1190 z "},"Å":{"ha":833,"x_min":26,"x_max":776,"o":"m 456 1000 l 664 1000 l 768 0 l 613 0 l 590 265 l 293 265 l 186 0 l 26 0 l 456 1000 m 343 388 l 581 388 l 550 760 q 546 854 546 814 q 546 894 546 875 l 540 894 q 528 854 535 875 q 513 811 521 835 q 494 761 506 788 l 343 388 m 432 1222 q 496 1328 443 1289 q 624 1368 549 1368 q 738 1328 699 1368 q 765 1222 776 1289 q 701 1116 754 1156 q 574 1076 649 1076 q 460 1116 499 1076 q 432 1222 421 1156 m 521 1222 q 585 1149 508 1149 q 678 1222 665 1149 q 667 1278 685 1258 q 611 1297 650 1297 q 551 1278 575 1297 q 521 1222 526 1258 z "},"Ç":{"ha":833,"x_min":71,"x_max":799,"o":"m 515 1014 q 725 937 651 1014 q 788 729 799 860 l 638 729 q 604 840 643 800 q 494 879 565 879 q 365 834 417 879 q 300 711 313 789 l 233 289 q 258 165 221 210 q 374 121 296 121 q 498 161 447 121 q 565 271 549 201 l 715 271 q 588 62 685 138 q 353 -14 492 -14 q 225 7 281 -14 q 134 67 169 28 q 85 161 99 106 q 82 285 71 217 l 150 715 q 192 840 161 785 q 270 934 222 896 q 380 993 318 972 q 515 1014 442 1014 m 351 36 l 440 36 l 390 -49 q 476 -68 439 -53 q 506 -83 492 -74 q 532 -103 521 -92 q 548 -131 543 -115 q 550 -167 553 -147 q 490 -244 543 -214 q 357 -274 436 -274 q 297 -273 321 -274 q 257 -271 272 -272 q 229 -267 239 -268 l 242 -186 q 268 -189 253 -187 q 300 -191 281 -190 q 343 -192 319 -192 q 392 -181 372 -192 q 415 -153 413 -171 q 383 -110 419 -125 q 275 -94 346 -94 l 351 36 z "},"È":{"ha":833,"x_min":57,"x_max":818,"o":"m 215 1000 l 818 1000 l 797 867 l 346 867 l 300 582 l 703 582 l 682 446 l 279 446 l 229 135 l 681 135 l 660 0 l 57 0 l 215 1000 m 332 1328 l 504 1328 l 619 1125 l 476 1125 l 332 1328 z "},"É":{"ha":833,"x_min":57,"x_max":818,"o":"m 215 1000 l 818 1000 l 797 867 l 346 867 l 300 582 l 703 582 l 682 446 l 279 446 l 229 135 l 681 135 l 660 0 l 57 0 l 215 1000 m 510 1363 l 338 1381 l 222 1191 l 365 1176 l 510 1363 z "},"Ê":{"ha":833,"x_min":57,"x_max":818,"o":"m 215 1000 l 818 1000 l 797 867 l 346 867 l 300 582 l 703 582 l 682 446 l 279 446 l 229 135 l 681 135 l 660 0 l 57 0 l 215 1000 m 468 1326 l 611 1326 l 743 1125 l 625 1125 l 565 1204 q 539 1240 544 1232 q 533 1251 535 1247 l 529 1251 q 519 1242 525 1247 q 505 1228 514 1236 q 482 1206 496 1219 l 394 1125 l 267 1125 l 468 1326 z "},"Ë":{"ha":833,"x_min":57,"x_max":818,"o":"m 215 1000 l 818 1000 l 797 867 l 346 867 l 300 582 l 703 582 l 682 446 l 279 446 l 229 135 l 681 135 l 660 0 l 57 0 l 215 1000 m 304 1231 q 340 1292 311 1269 q 408 1315 368 1315 q 470 1292 449 1315 q 485 1231 492 1269 q 449 1167 478 1190 q 381 1143 421 1143 q 319 1167 340 1143 q 304 1231 297 1190 m 586 1231 q 622 1292 593 1269 q 692 1315 651 1315 q 753 1292 732 1315 q 767 1231 774 1269 q 731 1167 760 1190 q 663 1143 703 1143 q 601 1167 622 1143 q 586 1231 579 1190 z "},"Ì":{"ha":833,"x_min":54,"x_max":799,"o":"m 54 0 l 75 133 l 292 133 l 408 867 l 192 867 l 213 1000 l 799 1000 l 778 867 l 561 867 l 444 133 l 661 133 l 640 0 l 54 0 m 332 1328 l 504 1328 l 619 1125 l 476 1125 l 332 1328 z "},"Í":{"ha":833,"x_min":54,"x_max":799,"o":"m 54 0 l 75 133 l 292 133 l 408 867 l 192 867 l 213 1000 l 799 1000 l 778 867 l 561 867 l 444 133 l 661 133 l 640 0 l 54 0 m 510 1363 l 338 1381 l 222 1191 l 365 1176 l 510 1363 z "},"Î":{"ha":833,"x_min":54,"x_max":799,"o":"m 54 0 l 75 133 l 292 133 l 408 867 l 192 867 l 213 1000 l 799 1000 l 778 867 l 561 867 l 444 133 l 661 133 l 640 0 l 54 0 m 474 1326 l 617 1326 l 749 1125 l 631 1125 l 571 1204 q 544 1240 550 1232 q 539 1251 540 1247 l 535 1251 q 525 1242 531 1247 q 510 1228 519 1236 q 488 1206 501 1219 l 400 1125 l 272 1125 l 474 1326 z "},"Ï":{"ha":833,"x_min":54,"x_max":799,"o":"m 54 0 l 75 133 l 292 133 l 408 867 l 192 867 l 213 1000 l 799 1000 l 778 867 l 561 867 l 444 133 l 661 133 l 640 0 l 54 0 m 306 1231 q 341 1292 313 1269 q 410 1315 369 1315 q 472 1292 450 1315 q 486 1231 493 1269 q 451 1167 479 1190 q 382 1143 422 1143 q 320 1167 342 1143 q 306 1231 299 1190 m 588 1231 q 624 1292 594 1269 q 693 1315 653 1315 q 754 1292 733 1315 q 768 1231 775 1269 q 733 1167 761 1190 q 664 1143 704 1143 q 602 1167 624 1143 q 588 1231 581 1190 z "},"Ò":{"ha":833,"x_min":63,"x_max":792,"o":"m 225 289 q 251 166 213 211 q 367 121 289 121 q 496 166 443 121 q 561 289 549 211 l 628 713 q 602 835 640 790 q 486 881 564 881 q 357 835 410 881 q 293 713 304 790 l 225 289 m 140 713 q 260 933 163 853 q 508 1014 358 1014 q 636 992 581 1014 q 727 931 692 971 q 777 836 763 892 q 781 713 792 781 l 713 289 q 670 163 701 219 q 591 67 639 107 q 481 7 543 28 q 344 -14 418 -14 q 217 8 272 -14 q 126 69 161 29 q 76 165 90 108 q 72 289 63 221 l 140 713 m 332 1328 l 504 1328 l 619 1125 l 476 1125 l 332 1328 z "},"Ó":{"ha":833,"x_min":63,"x_max":792,"o":"m 225 289 q 251 166 213 211 q 367 121 289 121 q 496 166 443 121 q 561 289 549 211 l 628 713 q 602 835 640 790 q 486 881 564 881 q 357 835 410 881 q 293 713 304 790 l 225 289 m 140 713 q 260 933 163 853 q 508 1014 358 1014 q 636 992 581 1014 q 727 931 692 971 q 777 836 763 892 q 781 713 792 781 l 713 289 q 670 163 701 219 q 591 67 639 107 q 481 7 543 28 q 344 -14 418 -14 q 217 8 272 -14 q 126 69 161 29 q 76 165 90 108 q 72 289 63 221 l 140 713 m 510 1363 l 338 1381 l 222 1191 l 365 1176 l 510 1363 z "},"Ô":{"ha":833,"x_min":63,"x_max":792,"o":"m 225 289 q 251 166 213 211 q 367 121 289 121 q 496 166 443 121 q 561 289 549 211 l 628 713 q 602 835 640 790 q 486 881 564 881 q 357 835 410 881 q 293 713 304 790 l 225 289 m 140 713 q 260 933 163 853 q 508 1014 358 1014 q 636 992 581 1014 q 727 931 692 971 q 777 836 763 892 q 781 713 792 781 l 713 289 q 670 163 701 219 q 591 67 639 107 q 481 7 543 28 q 344 -14 418 -14 q 217 8 272 -14 q 126 69 161 29 q 76 165 90 108 q 72 289 63 221 l 140 713 m 468 1326 l 611 1326 l 743 1125 l 625 1125 l 565 1204 q 539 1240 544 1232 q 533 1251 535 1247 l 529 1251 q 519 1242 525 1247 q 505 1228 514 1236 q 482 1206 496 1219 l 394 1125 l 267 1125 l 468 1326 z "},"Õ":{"ha":833,"x_min":63,"x_max":811,"o":"m 225 289 q 251 166 213 211 q 367 121 289 121 q 496 166 443 121 q 561 289 549 211 l 628 713 q 602 835 640 790 q 486 881 564 881 q 357 835 410 881 q 293 713 304 790 l 225 289 m 140 713 q 260 933 163 853 q 508 1014 358 1014 q 636 992 581 1014 q 727 931 692 971 q 777 836 763 892 q 781 713 792 781 l 713 289 q 670 163 701 219 q 591 67 639 107 q 481 7 543 28 q 344 -14 418 -14 q 217 8 272 -14 q 126 69 161 29 q 76 165 90 108 q 72 289 63 221 l 140 713 m 639 1219 q 682 1236 664 1219 q 707 1283 700 1253 l 711 1319 l 811 1319 l 806 1285 q 744 1164 792 1207 q 625 1121 697 1121 q 551 1138 579 1121 q 501 1174 522 1154 q 459 1210 479 1193 q 410 1226 439 1226 q 367 1210 385 1226 q 342 1161 349 1193 l 336 1128 l 236 1128 l 242 1163 q 304 1283 257 1240 q 424 1326 351 1326 q 498 1310 469 1326 q 548 1273 526 1293 q 590 1236 569 1253 q 639 1219 610 1219 z "},"Ö":{"ha":833,"x_min":63,"x_max":792,"o":"m 225 289 q 251 166 213 211 q 367 121 289 121 q 496 166 443 121 q 561 289 549 211 l 628 713 q 602 835 640 790 q 486 881 564 881 q 357 835 410 881 q 293 713 304 790 l 225 289 m 140 713 q 260 933 163 853 q 508 1014 358 1014 q 636 992 581 1014 q 727 931 692 971 q 777 836 763 892 q 781 713 792 781 l 713 289 q 670 163 701 219 q 591 67 639 107 q 481 7 543 28 q 344 -14 418 -14 q 217 8 272 -14 q 126 69 161 29 q 76 165 90 108 q 72 289 63 221 l 140 713 m 304 1231 q 340 1292 311 1269 q 408 1315 368 1315 q 470 1292 449 1315 q 485 1231 492 1269 q 449 1167 478 1190 q 381 1143 421 1143 q 319 1167 340 1143 q 304 1231 297 1190 m 586 1231 q 622 1292 593 1269 q 692 1315 651 1315 q 753 1292 732 1315 q 767 1231 774 1269 q 731 1167 760 1190 q 663 1143 703 1143 q 601 1167 622 1143 q 586 1231 579 1190 z "},"Š":{"ha":833,"x_min":50,"x_max":789,"o":"m 344 -14 q 216 6 272 -14 q 122 63 160 26 q 67 149 85 99 q 58 261 50 200 l 215 261 q 249 160 207 199 q 369 121 292 121 q 504 157 453 121 q 567 257 556 193 q 547 357 575 314 q 458 421 518 400 l 358 456 q 194 567 246 492 q 157 742 142 642 q 271 942 178 871 q 513 1014 364 1014 q 634 994 581 1014 q 723 940 688 975 q 774 855 758 904 q 782 744 789 806 l 625 744 q 595 843 633 806 q 489 881 557 881 q 369 846 415 881 q 313 750 322 811 q 331 659 304 697 q 418 600 357 621 l 524 565 q 687 451 636 529 q 719 265 738 374 q 679 149 710 200 q 600 61 649 97 q 487 6 551 25 q 344 -14 422 -14 m 306 1326 l 425 1326 l 486 1246 q 502 1224 496 1233 q 511 1210 508 1215 q 518 1200 515 1204 l 521 1200 q 531 1211 524 1204 q 545 1226 536 1217 q 569 1247 554 1235 l 656 1326 l 782 1326 l 582 1125 l 439 1125 l 306 1326 z "},"Ù":{"ha":833,"x_min":71,"x_max":815,"o":"m 344 -14 q 219 7 274 -14 q 131 66 165 28 q 84 160 97 104 q 82 285 71 215 l 196 1000 l 349 1000 l 235 285 q 257 164 222 207 q 367 121 292 121 q 490 163 442 121 q 550 285 538 206 l 664 1000 l 815 1000 l 703 285 q 586 64 679 142 q 344 -14 493 -14 m 332 1328 l 504 1328 l 619 1125 l 476 1125 l 332 1328 z "},"Ú":{"ha":833,"x_min":71,"x_max":815,"o":"m 344 -14 q 219 7 274 -14 q 131 66 165 28 q 84 160 97 104 q 82 285 71 215 l 196 1000 l 349 1000 l 235 285 q 257 164 222 207 q 367 121 292 121 q 490 163 442 121 q 550 285 538 206 l 664 1000 l 815 1000 l 703 285 q 586 64 679 142 q 344 -14 493 -14 m 510 1363 l 338 1381 l 222 1191 l 365 1176 l 510 1363 z "},"Û":{"ha":833,"x_min":71,"x_max":815,"o":"m 344 -14 q 219 7 274 -14 q 131 66 165 28 q 84 160 97 104 q 82 285 71 215 l 196 1000 l 349 1000 l 235 285 q 257 164 222 207 q 367 121 292 121 q 490 163 442 121 q 550 285 538 206 l 664 1000 l 815 1000 l 703 285 q 586 64 679 142 q 344 -14 493 -14 m 468 1326 l 611 1326 l 743 1125 l 625 1125 l 565 1204 q 539 1240 544 1232 q 533 1251 535 1247 l 529 1251 q 519 1242 525 1247 q 505 1228 514 1236 q 482 1206 496 1219 l 394 1125 l 267 1125 l 468 1326 z "},"Ü":{"ha":833,"x_min":71,"x_max":815,"o":"m 344 -14 q 219 7 274 -14 q 131 66 165 28 q 84 160 97 104 q 82 285 71 215 l 196 1000 l 349 1000 l 235 285 q 257 164 222 207 q 367 121 292 121 q 490 163 442 121 q 550 285 538 206 l 664 1000 l 815 1000 l 703 285 q 586 64 679 142 q 344 -14 493 -14 m 304 1231 q 340 1292 311 1269 q 408 1315 368 1315 q 470 1292 449 1315 q 485 1231 492 1269 q 449 1167 478 1190 q 381 1143 421 1143 q 319 1167 340 1143 q 304 1231 297 1190 m 586 1231 q 622 1292 593 1269 q 692 1315 651 1315 q 753 1292 732 1315 q 767 1231 774 1269 q 731 1167 760 1190 q 663 1143 703 1143 q 601 1167 622 1143 q 586 1231 579 1190 z "},"Ÿ":{"ha":833,"x_min":124,"x_max":888,"o":"m 278 1000 l 399 589 q 409 546 406 567 q 414 508 413 525 q 417 474 417 490 l 424 474 q 436 508 428 490 q 452 546 443 525 q 474 589 461 567 l 722 1000 l 888 1000 l 479 347 l 424 0 l 271 0 l 326 347 l 124 1000 l 278 1000 m 304 1231 q 340 1292 311 1269 q 408 1315 368 1315 q 470 1292 449 1315 q 485 1231 492 1269 q 449 1167 478 1190 q 381 1143 421 1143 q 319 1167 340 1143 q 304 1231 297 1190 m 586 1231 q 622 1292 593 1269 q 692 1315 651 1315 q 753 1292 732 1315 q 767 1231 774 1269 q 731 1167 760 1190 q 663 1143 703 1143 q 601 1167 622 1143 q 586 1231 579 1190 z "},"Ý":{"ha":833,"x_min":124,"x_max":888,"o":"m 278 1000 l 399 589 q 409 546 406 567 q 414 508 413 525 q 417 474 417 490 l 424 474 q 436 508 428 490 q 452 546 443 525 q 474 589 461 567 l 722 1000 l 888 1000 l 479 347 l 424 0 l 271 0 l 326 347 l 124 1000 l 278 1000 m 510 1363 l 338 1381 l 222 1191 l 365 1176 l 510 1363 z "},"Ž":{"ha":833,"x_min":44,"x_max":793,"o":"m 793 1000 l 771 860 l 238 132 l 336 138 l 672 138 l 650 0 l 44 0 l 67 139 l 599 865 l 599 868 l 497 863 l 192 863 l 214 1000 l 793 1000 m 310 1326 l 429 1326 l 490 1246 q 506 1224 500 1233 q 515 1210 513 1215 q 522 1200 519 1204 l 525 1200 q 535 1211 528 1204 q 549 1226 540 1217 q 574 1247 558 1235 l 660 1326 l 786 1326 l 586 1125 l 443 1125 l 310 1326 z "},"á":{"ha":833,"x_min":58,"x_max":756,"o":"m 69 288 l 100 479 q 138 602 111 547 q 203 696 164 657 q 293 756 243 735 q 401 778 343 778 q 526 740 483 778 q 572 632 568 701 l 585 632 l 607 764 l 750 764 l 657 178 q 666 136 653 151 q 704 121 679 121 l 756 121 l 736 -6 l 638 -6 q 535 33 571 -6 q 507 132 500 71 l 494 132 q 413 25 468 64 q 276 -14 357 -14 q 175 8 218 -14 q 105 69 132 29 q 68 164 78 108 q 69 288 58 219 m 349 119 q 459 159 414 119 q 521 269 504 199 l 556 501 q 528 608 560 569 q 432 646 496 646 q 310 601 358 646 q 250 476 263 556 l 221 289 q 241 165 208 210 q 349 119 274 119 m 510 1141 l 338 1159 l 222 969 l 365 953 l 510 1141 z "},"â":{"ha":833,"x_min":58,"x_max":756,"o":"m 69 288 l 100 479 q 138 602 111 547 q 203 696 164 657 q 293 756 243 735 q 401 778 343 778 q 526 740 483 778 q 572 632 568 701 l 585 632 l 607 764 l 750 764 l 657 178 q 666 136 653 151 q 704 121 679 121 l 756 121 l 736 -6 l 638 -6 q 535 33 571 -6 q 507 132 500 71 l 494 132 q 413 25 468 64 q 276 -14 357 -14 q 175 8 218 -14 q 105 69 132 29 q 68 164 78 108 q 69 288 58 219 m 349 119 q 459 159 414 119 q 521 269 504 199 l 556 501 q 528 608 560 569 q 432 646 496 646 q 310 601 358 646 q 250 476 263 556 l 221 289 q 241 165 208 210 q 349 119 274 119 m 468 1104 l 611 1104 l 743 903 l 625 903 l 565 982 q 539 1018 544 1010 q 533 1029 535 1025 l 529 1029 q 519 1019 525 1025 q 505 1006 514 1014 q 482 983 496 997 l 394 903 l 267 903 l 468 1104 z "},"ã":{"ha":833,"x_min":58,"x_max":811,"o":"m 69 288 l 100 479 q 138 602 111 547 q 203 696 164 657 q 293 756 243 735 q 401 778 343 778 q 526 740 483 778 q 572 632 568 701 l 585 632 l 607 764 l 750 764 l 657 178 q 666 136 653 151 q 704 121 679 121 l 756 121 l 736 -6 l 638 -6 q 535 33 571 -6 q 507 132 500 71 l 494 132 q 413 25 468 64 q 276 -14 357 -14 q 175 8 218 -14 q 105 69 132 29 q 68 164 78 108 q 69 288 58 219 m 349 119 q 459 159 414 119 q 521 269 504 199 l 556 501 q 528 608 560 569 q 432 646 496 646 q 310 601 358 646 q 250 476 263 556 l 221 289 q 241 165 208 210 q 349 119 274 119 m 639 997 q 682 1014 664 997 q 707 1061 700 1031 l 711 1097 l 811 1097 l 806 1063 q 744 942 792 985 q 625 899 697 899 q 551 915 579 899 q 501 951 522 932 q 459 988 479 971 q 410 1004 439 1004 q 367 988 385 1004 q 342 939 349 971 l 336 906 l 236 906 l 242 940 q 304 1061 257 1018 q 424 1104 351 1104 q 498 1088 469 1104 q 548 1051 526 1071 q 590 1014 569 1031 q 639 997 610 997 z "},"å":{"ha":833,"x_min":58,"x_max":756,"o":"m 69 288 l 100 479 q 138 602 111 547 q 203 696 164 657 q 293 756 243 735 q 401 778 343 778 q 526 740 483 778 q 572 632 568 701 l 585 632 l 607 764 l 750 764 l 657 178 q 666 136 653 151 q 704 121 679 121 l 756 121 l 736 -6 l 638 -6 q 535 33 571 -6 q 507 132 500 71 l 494 132 q 413 25 468 64 q 276 -14 357 -14 q 175 8 218 -14 q 105 69 132 29 q 68 164 78 108 q 69 288 58 219 m 349 119 q 459 159 414 119 q 521 269 504 199 l 556 501 q 528 608 560 569 q 432 646 496 646 q 310 601 358 646 q 250 476 263 556 l 221 289 q 241 165 208 210 q 349 119 274 119 m 392 1000 q 456 1106 403 1067 q 583 1146 508 1146 q 697 1106 658 1146 q 725 1000 736 1067 q 661 894 714 933 q 533 854 608 854 q 419 894 458 854 q 392 1000 381 933 m 481 1000 q 544 926 468 926 q 638 1000 625 926 q 627 1056 644 1036 q 571 1075 610 1075 q 510 1056 535 1075 q 481 1000 486 1036 z "},"è":{"ha":833,"x_min":63,"x_max":753,"o":"m 344 -14 q 217 7 272 -14 q 126 67 161 28 q 76 160 90 106 q 74 282 63 214 l 106 482 q 147 605 117 550 q 226 698 178 660 q 335 757 274 736 q 471 778 397 778 q 598 757 543 778 q 688 697 653 736 q 738 603 724 658 q 742 482 753 549 l 719 342 l 232 342 l 224 288 q 249 158 211 204 q 365 111 286 111 q 469 131 424 111 q 540 185 515 150 l 689 185 q 635 103 669 140 q 557 41 601 67 q 458 1 513 15 q 344 -14 404 -14 m 588 451 l 593 482 q 568 608 606 563 q 450 653 531 653 q 319 608 371 653 q 256 482 268 563 l 250 451 l 588 451 m 332 1106 l 504 1106 l 619 903 l 476 903 l 332 1106 z "},"é":{"ha":833,"x_min":63,"x_max":753,"o":"m 344 -14 q 217 7 272 -14 q 126 67 161 28 q 76 160 90 106 q 74 282 63 214 l 106 482 q 147 605 117 550 q 226 698 178 660 q 335 757 274 736 q 471 778 397 778 q 598 757 543 778 q 688 697 653 736 q 738 603 724 658 q 742 482 753 549 l 719 342 l 232 342 l 224 288 q 249 158 211 204 q 365 111 286 111 q 469 131 424 111 q 540 185 515 150 l 689 185 q 635 103 669 140 q 557 41 601 67 q 458 1 513 15 q 344 -14 404 -14 m 588 451 l 593 482 q 568 608 606 563 q 450 653 531 653 q 319 608 371 653 q 256 482 268 563 l 250 451 l 588 451 m 510 1141 l 338 1159 l 222 969 l 365 953 l 510 1141 z "},"ê":{"ha":833,"x_min":63,"x_max":753,"o":"m 344 -14 q 217 7 272 -14 q 126 67 161 28 q 76 160 90 106 q 74 282 63 214 l 106 482 q 147 605 117 550 q 226 698 178 660 q 335 757 274 736 q 471 778 397 778 q 598 757 543 778 q 688 697 653 736 q 738 603 724 658 q 742 482 753 549 l 719 342 l 232 342 l 224 288 q 249 158 211 204 q 365 111 286 111 q 469 131 424 111 q 540 185 515 150 l 689 185 q 635 103 669 140 q 557 41 601 67 q 458 1 513 15 q 344 -14 404 -14 m 588 451 l 593 482 q 568 608 606 563 q 450 653 531 653 q 319 608 371 653 q 256 482 268 563 l 250 451 l 588 451 m 468 1104 l 611 1104 l 743 903 l 625 903 l 565 982 q 539 1018 544 1010 q 533 1029 535 1025 l 529 1029 q 519 1019 525 1025 q 505 1006 514 1014 q 482 983 496 997 l 394 903 l 267 903 l 468 1104 z "},"ë":{"ha":833,"x_min":63,"x_max":774,"o":"m 344 -14 q 217 7 272 -14 q 126 67 161 28 q 76 160 90 106 q 74 282 63 214 l 106 482 q 147 605 117 550 q 226 698 178 660 q 335 757 274 736 q 471 778 397 778 q 598 757 543 778 q 688 697 653 736 q 738 603 724 658 q 742 482 753 549 l 719 342 l 232 342 l 224 288 q 249 158 211 204 q 365 111 286 111 q 469 131 424 111 q 540 185 515 150 l 689 185 q 635 103 669 140 q 557 41 601 67 q 458 1 513 15 q 344 -14 404 -14 m 588 451 l 593 482 q 568 608 606 563 q 450 653 531 653 q 319 608 371 653 q 256 482 268 563 l 250 451 l 588 451 m 304 1008 q 340 1070 311 1047 q 408 1093 368 1093 q 470 1070 449 1093 q 485 1008 492 1047 q 449 944 478 968 q 381 921 421 921 q 319 944 340 921 q 304 1008 297 968 m 586 1008 q 622 1070 593 1047 q 692 1093 651 1093 q 753 1070 732 1093 q 767 1008 774 1047 q 731 944 760 968 q 663 921 703 921 q 601 944 622 921 q 586 1008 579 968 z "},"ì":{"ha":833,"x_min":53,"x_max":724,"o":"m 53 0 l 75 139 l 351 139 l 428 626 l 188 626 l 210 764 l 597 764 l 499 139 l 724 139 l 701 0 l 53 0 m 332 1106 l 504 1106 l 619 903 l 476 903 l 332 1106 z "},"í":{"ha":833,"x_min":53,"x_max":724,"o":"m 53 0 l 75 139 l 351 139 l 428 626 l 188 626 l 210 764 l 597 764 l 499 139 l 724 139 l 701 0 l 53 0 m 510 1141 l 338 1159 l 222 969 l 365 953 l 510 1141 z "},"î":{"ha":833,"x_min":53,"x_max":743,"o":"m 53 0 l 75 139 l 351 139 l 428 626 l 188 626 l 210 764 l 597 764 l 499 139 l 724 139 l 701 0 l 53 0 m 468 1104 l 611 1104 l 743 903 l 625 903 l 565 982 q 539 1018 544 1010 q 533 1029 535 1025 l 529 1029 q 519 1019 525 1025 q 505 1006 514 1014 q 482 983 496 997 l 394 903 l 267 903 l 468 1104 z "},"ï":{"ha":833,"x_min":53,"x_max":774,"o":"m 53 0 l 75 139 l 351 139 l 428 626 l 188 626 l 210 764 l 597 764 l 499 139 l 724 139 l 701 0 l 53 0 m 304 1008 q 340 1070 311 1047 q 408 1093 368 1093 q 470 1070 449 1093 q 485 1008 492 1047 q 449 944 478 968 q 381 921 421 921 q 319 944 340 921 q 304 1008 297 968 m 586 1008 q 622 1070 593 1047 q 692 1093 651 1093 q 753 1070 732 1093 q 767 1008 774 1047 q 731 944 760 968 q 663 921 703 921 q 601 944 622 921 q 586 1008 579 968 z "},"ò":{"ha":833,"x_min":63,"x_max":753,"o":"m 225 288 q 250 165 213 210 q 367 121 288 121 q 497 165 444 121 q 561 288 549 208 l 590 478 q 565 600 603 556 q 449 644 526 644 q 319 599 372 644 q 256 478 267 554 l 225 288 m 104 478 q 146 603 115 547 q 224 697 176 658 q 335 757 272 736 q 471 778 397 778 q 599 757 544 778 q 690 697 654 736 q 739 603 725 658 q 742 478 753 547 l 713 288 q 592 67 689 147 q 344 -14 494 -14 q 217 7 272 -14 q 126 67 161 28 q 76 163 90 107 q 74 288 63 218 l 104 478 m 332 1106 l 504 1106 l 619 903 l 476 903 l 332 1106 z "},"ó":{"ha":833,"x_min":63,"x_max":753,"o":"m 225 288 q 250 165 213 210 q 367 121 288 121 q 497 165 444 121 q 561 288 549 208 l 590 478 q 565 600 603 556 q 449 644 526 644 q 319 599 372 644 q 256 478 267 554 l 225 288 m 104 478 q 146 603 115 547 q 224 697 176 658 q 335 757 272 736 q 471 778 397 778 q 599 757 544 778 q 690 697 654 736 q 739 603 725 658 q 742 478 753 547 l 713 288 q 592 67 689 147 q 344 -14 494 -14 q 217 7 272 -14 q 126 67 161 28 q 76 163 90 107 q 74 288 63 218 l 104 478 m 510 1141 l 338 1159 l 222 969 l 365 953 l 510 1141 z "},"ô":{"ha":833,"x_min":63,"x_max":753,"o":"m 225 288 q 250 165 213 210 q 367 121 288 121 q 497 165 444 121 q 561 288 549 208 l 590 478 q 565 600 603 556 q 449 644 526 644 q 319 599 372 644 q 256 478 267 554 l 225 288 m 104 478 q 146 603 115 547 q 224 697 176 658 q 335 757 272 736 q 471 778 397 778 q 599 757 544 778 q 690 697 654 736 q 739 603 725 658 q 742 478 753 547 l 713 288 q 592 67 689 147 q 344 -14 494 -14 q 217 7 272 -14 q 126 67 161 28 q 76 163 90 107 q 74 288 63 218 l 104 478 m 468 1104 l 611 1104 l 743 903 l 625 903 l 565 982 q 539 1018 544 1010 q 533 1029 535 1025 l 529 1029 q 519 1019 525 1025 q 505 1006 514 1014 q 482 983 496 997 l 394 903 l 267 903 l 468 1104 z "},"õ":{"ha":833,"x_min":63,"x_max":811,"o":"m 225 288 q 250 165 213 210 q 367 121 288 121 q 497 165 444 121 q 561 288 549 208 l 590 478 q 565 600 603 556 q 449 644 526 644 q 319 599 372 644 q 256 478 267 554 l 225 288 m 104 478 q 146 603 115 547 q 224 697 176 658 q 335 757 272 736 q 471 778 397 778 q 599 757 544 778 q 690 697 654 736 q 739 603 725 658 q 742 478 753 547 l 713 288 q 592 67 689 147 q 344 -14 494 -14 q 217 7 272 -14 q 126 67 161 28 q 76 163 90 107 q 74 288 63 218 l 104 478 m 639 997 q 682 1014 664 997 q 707 1061 700 1031 l 711 1097 l 811 1097 l 806 1063 q 744 942 792 985 q 625 899 697 899 q 551 915 579 899 q 501 951 522 932 q 459 988 479 971 q 410 1004 439 1004 q 367 988 385 1004 q 342 939 349 971 l 336 906 l 236 906 l 242 940 q 304 1061 257 1018 q 424 1104 351 1104 q 498 1088 469 1104 q 548 1051 526 1071 q 590 1014 569 1031 q 639 997 610 997 z "},"ö":{"ha":833,"x_min":63,"x_max":774,"o":"m 225 288 q 250 165 213 210 q 367 121 288 121 q 497 165 444 121 q 561 288 549 208 l 590 478 q 565 600 603 556 q 449 644 526 644 q 319 599 372 644 q 256 478 267 554 l 225 288 m 104 478 q 146 603 115 547 q 224 697 176 658 q 335 757 272 736 q 471 778 397 778 q 599 757 544 778 q 690 697 654 736 q 739 603 725 658 q 742 478 753 547 l 713 288 q 592 67 689 147 q 344 -14 494 -14 q 217 7 272 -14 q 126 67 161 28 q 76 163 90 107 q 74 288 63 218 l 104 478 m 304 1008 q 340 1070 311 1047 q 408 1093 368 1093 q 470 1070 449 1093 q 485 1008 492 1047 q 449 944 478 968 q 381 921 421 921 q 319 944 340 921 q 304 1008 297 968 m 586 1008 q 622 1070 593 1047 q 692 1093 651 1093 q 753 1070 732 1093 q 767 1008 774 1047 q 731 944 760 968 q 663 921 703 921 q 601 944 622 921 q 586 1008 579 968 z "},"š":{"ha":833,"x_min":56,"x_max":782,"o":"m 319 -14 q 126 41 196 -14 q 58 192 56 96 l 208 192 q 247 132 211 154 q 339 110 282 110 l 388 110 q 499 138 457 110 q 549 214 542 165 q 444 317 564 300 l 335 332 q 132 556 100 361 q 231 719 149 661 q 449 778 314 778 l 499 778 q 683 725 617 778 q 749 579 750 672 l 597 579 q 563 634 594 614 q 479 654 532 654 l 429 654 q 326 630 365 654 q 279 557 288 606 q 374 463 267 476 l 485 447 q 699 218 731 414 q 595 46 681 106 q 368 -14 510 -14 l 319 -14 m 306 1104 l 425 1104 l 486 1024 q 502 1002 496 1011 q 511 988 508 993 q 518 978 515 982 l 521 978 q 531 989 524 982 q 545 1003 536 994 q 569 1025 554 1013 l 656 1104 l 782 1104 l 582 903 l 439 903 l 306 1104 z "},"ù":{"ha":833,"x_min":68,"x_max":769,"o":"m 90 279 l 167 764 l 319 764 l 240 279 q 365 119 215 119 q 542 279 517 119 l 619 764 l 769 764 l 693 279 q 581 63 671 139 q 344 -14 490 -14 q 135 64 203 -14 q 90 279 68 142 m 332 1106 l 504 1106 l 619 903 l 476 903 l 332 1106 z "},"ú":{"ha":833,"x_min":68,"x_max":769,"o":"m 90 279 l 167 764 l 319 764 l 240 279 q 365 119 215 119 q 542 279 517 119 l 619 764 l 769 764 l 693 279 q 581 63 671 139 q 344 -14 490 -14 q 135 64 203 -14 q 90 279 68 142 m 510 1141 l 338 1159 l 222 969 l 365 953 l 510 1141 z "},"û":{"ha":833,"x_min":68,"x_max":769,"o":"m 90 279 l 167 764 l 319 764 l 240 279 q 365 119 215 119 q 542 279 517 119 l 619 764 l 769 764 l 693 279 q 581 63 671 139 q 344 -14 490 -14 q 135 64 203 -14 q 90 279 68 142 m 468 1104 l 611 1104 l 743 903 l 625 903 l 565 982 q 539 1018 544 1010 q 533 1029 535 1025 l 529 1029 q 519 1019 525 1025 q 505 1006 514 1014 q 482 983 496 997 l 394 903 l 267 903 l 468 1104 z "},"ü":{"ha":833,"x_min":68,"x_max":774,"o":"m 90 279 l 167 764 l 319 764 l 240 279 q 365 119 215 119 q 542 279 517 119 l 619 764 l 769 764 l 693 279 q 581 63 671 139 q 344 -14 490 -14 q 135 64 203 -14 q 90 279 68 142 m 304 1008 q 340 1070 311 1047 q 408 1093 368 1093 q 470 1070 449 1093 q 485 1008 492 1047 q 449 944 478 968 q 381 921 421 921 q 319 944 340 921 q 304 1008 297 968 m 586 1008 q 622 1070 593 1047 q 692 1093 651 1093 q 753 1070 732 1093 q 767 1008 774 1047 q 731 944 760 968 q 663 921 703 921 q 601 944 622 921 q 586 1008 579 968 z "},"ý":{"ha":833,"x_min":76,"x_max":772,"o":"m 96 335 l 164 764 l 314 764 l 250 361 q 272 239 238 283 q 376 194 306 194 q 494 235 446 194 q 556 349 542 276 l 622 764 l 772 764 l 653 28 q 550 -161 633 -93 q 336 -229 467 -229 l 117 -229 l 138 -97 l 349 -97 q 453 -65 413 -97 q 503 28 493 -32 l 511 81 l 539 208 l 528 208 q 443 102 501 139 q 303 65 385 65 q 133 138 189 65 q 96 335 76 211 m 510 1141 l 338 1159 l 222 969 l 365 953 l 510 1141 z "},"ÿ":{"ha":833,"x_min":76,"x_max":774,"o":"m 96 335 l 164 764 l 314 764 l 250 361 q 272 239 238 283 q 376 194 306 194 q 494 235 446 194 q 556 349 542 276 l 622 764 l 772 764 l 653 28 q 550 -161 633 -93 q 336 -229 467 -229 l 117 -229 l 138 -97 l 349 -97 q 453 -65 413 -97 q 503 28 493 -32 l 511 81 l 539 208 l 528 208 q 443 102 501 139 q 303 65 385 65 q 133 138 189 65 q 96 335 76 211 m 304 1008 q 340 1070 311 1047 q 408 1093 368 1093 q 470 1070 449 1093 q 485 1008 492 1047 q 449 944 478 968 q 381 921 421 921 q 319 944 340 921 q 304 1008 297 968 m 586 1008 q 622 1070 593 1047 q 692 1093 651 1093 q 753 1070 732 1093 q 767 1008 774 1047 q 731 944 760 968 q 663 921 703 921 q 601 944 622 921 q 586 1008 579 968 z "},"ž":{"ha":833,"x_min":36,"x_max":788,"o":"m 169 764 l 764 764 l 739 610 l 239 135 q 238 131 239 133 q 238 126 238 128 q 271 131 254 128 q 304 133 286 132 q 340 133 322 133 l 679 133 l 658 0 l 36 0 l 61 153 l 564 629 l 564 636 q 528 635 546 635 q 494 633 513 633 q 456 632 475 632 l 147 632 l 169 764 m 310 1104 l 429 1104 l 490 1024 q 506 1002 500 1011 q 515 988 513 993 q 522 978 519 982 l 525 978 q 535 989 528 982 q 549 1003 540 994 q 574 1025 558 1013 l 660 1104 l 786 1104 l 586 903 l 443 903 l 310 1104 z "},"Ñ":{"ha":833,"x_min":36,"x_max":817,"o":"m 194 1000 l 385 1000 l 529 333 q 538 279 535 310 q 543 221 540 249 q 547 153 546 188 l 561 153 q 562 171 561 153 q 564 218 563 189 q 568 283 565 247 q 576 356 571 319 l 678 1000 l 817 1000 l 658 0 l 469 0 l 328 668 q 318 728 321 696 q 313 786 315 760 q 308 849 310 818 l 294 849 q 293 788 294 819 q 288 724 290 760 q 278 647 285 688 l 175 0 l 36 0 l 194 1000 m 643 1219 q 686 1236 668 1219 q 711 1283 704 1253 l 715 1319 l 815 1319 l 810 1285 q 749 1164 796 1207 q 629 1121 701 1121 q 555 1138 583 1121 q 505 1174 526 1154 q 463 1210 483 1193 q 414 1226 443 1226 q 371 1210 389 1226 q 346 1161 353 1193 l 340 1128 l 240 1128 l 246 1163 q 308 1283 261 1240 q 428 1326 356 1326 q 502 1310 474 1326 q 552 1273 531 1293 q 594 1236 574 1253 q 643 1219 614 1219 z "},"Đ":{"ha":833,"x_min":33,"x_max":788,"o":"m 54 563 l 131 563 l 200 1000 l 496 1000 q 628 978 571 1000 q 722 915 685 956 q 773 816 758 874 q 776 689 788 758 l 717 313 q 673 184 706 242 q 590 85 640 126 q 476 22 540 44 q 338 0 413 0 l 42 0 l 110 431 l 33 431 l 54 563 m 263 431 l 217 139 l 360 139 q 495 186 439 139 q 564 313 551 233 l 622 689 q 594 814 636 767 q 474 861 553 861 l 331 861 l 283 563 l 429 563 l 408 431 l 263 431 z "},"Ð":{"ha":833,"x_min":33,"x_max":788,"o":"m 54 563 l 131 563 l 200 1000 l 496 1000 q 628 978 571 1000 q 722 915 685 956 q 773 816 758 874 q 776 689 788 758 l 717 313 q 673 184 706 242 q 590 85 640 126 q 476 22 540 44 q 338 0 413 0 l 42 0 l 110 431 l 33 431 l 54 563 m 263 431 l 217 139 l 360 139 q 495 186 439 139 q 564 313 551 233 l 622 689 q 594 814 636 767 q 474 861 553 861 l 331 861 l 283 563 l 429 563 l 408 431 l 263 431 z "},"þ":{"ha":833,"x_min":0,"x_max":746,"o":"m 0 -229 l 199 1014 l 350 1014 l 311 774 q 304 734 308 756 q 296 692 300 713 q 288 655 292 671 q 283 632 285 639 l 293 632 q 380 739 319 700 q 524 778 440 778 q 626 756 582 778 q 699 696 671 735 q 736 601 726 657 q 735 479 746 546 l 704 288 q 667 164 694 219 q 599 69 639 108 q 507 8 558 29 q 397 -14 456 -14 q 267 26 315 -14 q 214 132 219 65 l 204 132 l 149 -229 l 0 -229 m 232 269 q 263 160 226 200 q 369 119 299 119 q 493 165 443 119 q 556 289 543 210 l 585 476 q 561 601 597 556 q 449 646 525 646 q 327 600 378 646 q 264 476 276 554 l 232 269 z "},"Ø":{"ha":833,"x_min":-37,"x_max":889,"o":"m -37 -56 l 90 124 q 72 289 58 194 l 140 713 q 260 933 163 853 q 508 1014 358 1014 q 693 961 621 1014 l 750 1042 l 889 1042 l 765 869 q 781 713 794 801 l 713 289 q 670 163 701 219 q 591 67 639 107 q 481 7 543 28 q 344 -14 418 -14 q 167 35 235 -14 l 101 -56 l -37 -56 m 601 835 q 486 881 563 881 q 357 835 410 881 q 293 713 304 790 l 229 317 l 601 835 m 257 161 q 367 121 294 121 q 496 166 443 121 q 561 289 549 211 l 621 668 l 257 161 z "},"ø":{"ha":833,"x_min":-32,"x_max":849,"o":"m -32 -42 l 97 108 q 74 288 57 181 l 104 478 q 146 603 115 547 q 224 697 176 658 q 335 757 272 736 q 471 778 397 778 q 639 739 569 778 l 708 819 l 849 819 l 715 664 q 742 478 758 589 l 713 288 q 592 67 689 147 q 344 -14 494 -14 q 169 31 239 -14 l 108 -42 l -32 -42 m 271 147 q 367 121 308 121 q 497 165 444 121 q 561 288 549 208 l 590 478 q 593 500 593 489 q 593 522 593 511 l 271 147 m 539 622 q 449 644 501 644 q 319 599 372 644 q 256 478 267 554 l 225 288 q 223 270 224 279 q 222 254 222 261 l 539 622 z "},"ł":{"ha":833,"x_min":118,"x_max":724,"o":"m 142 458 l 314 556 l 365 876 l 118 876 l 140 1014 l 540 1014 l 482 650 l 710 778 l 688 639 l 461 511 l 417 236 q 431 165 410 190 q 496 139 451 139 l 724 139 l 701 0 l 467 0 q 300 63 354 0 q 264 236 246 126 l 293 417 l 118 319 l 142 458 z "},"Ł":{"ha":833,"x_min":26,"x_max":731,"o":"m 335 493 l 279 140 l 731 140 l 708 0 l 104 0 l 167 399 l 26 319 l 49 458 l 189 538 l 263 1000 l 415 1000 l 357 632 l 617 778 l 596 639 l 335 493 z "},"Ā":{"ha":833,"x_min":26,"x_max":800,"o":"m 456 1000 l 664 1000 l 768 0 l 613 0 l 590 265 l 293 265 l 186 0 l 26 0 l 456 1000 m 343 388 l 581 388 l 550 760 q 546 854 546 814 q 546 894 546 875 l 540 894 q 528 854 535 875 q 513 811 521 835 q 494 761 506 788 l 343 388 m 419 1299 l 799 1299 l 778 1169 l 399 1169 l 419 1299 z "},"ā":{"ha":833,"x_min":58,"x_max":756,"o":"m 69 288 l 100 479 q 138 602 111 547 q 203 696 164 657 q 293 756 243 735 q 401 778 343 778 q 526 740 483 778 q 572 632 568 701 l 585 632 l 607 764 l 750 764 l 657 178 q 666 136 653 151 q 704 121 679 121 l 756 121 l 736 -6 l 638 -6 q 535 33 571 -6 q 507 132 500 71 l 494 132 q 413 25 468 64 q 276 -14 357 -14 q 175 8 218 -14 q 105 69 132 29 q 68 164 78 108 q 69 288 58 219 m 349 119 q 459 159 414 119 q 521 269 504 199 l 556 501 q 528 608 560 569 q 432 646 496 646 q 310 601 358 646 q 250 476 263 556 l 221 289 q 241 165 208 210 q 349 119 274 119 m 358 1076 l 738 1076 l 717 947 l 338 947 l 358 1076 z "},"Ă":{"ha":833,"x_min":26,"x_max":865,"o":"m 456 1000 l 664 1000 l 768 0 l 613 0 l 590 265 l 293 265 l 186 0 l 26 0 l 456 1000 m 343 388 l 581 388 l 550 760 q 546 854 546 814 q 546 894 546 875 l 540 894 q 528 854 535 875 q 513 811 521 835 q 494 761 506 788 l 343 388 m 383 1319 l 506 1319 q 524 1250 497 1275 q 606 1225 551 1225 q 697 1250 661 1225 q 740 1319 733 1275 l 865 1319 q 835 1238 858 1275 q 776 1176 811 1201 q 693 1136 740 1150 q 592 1122 646 1122 q 497 1137 539 1122 q 427 1177 454 1151 q 388 1240 400 1203 q 383 1319 376 1276 z "},"ă":{"ha":833,"x_min":58,"x_max":782,"o":"m 69 288 l 100 479 q 138 602 111 547 q 203 696 164 657 q 293 756 243 735 q 401 778 343 778 q 526 740 483 778 q 572 632 568 701 l 585 632 l 607 764 l 750 764 l 657 178 q 666 136 653 151 q 704 121 679 121 l 756 121 l 736 -6 l 638 -6 q 535 33 571 -6 q 507 132 500 71 l 494 132 q 413 25 468 64 q 276 -14 357 -14 q 175 8 218 -14 q 105 69 132 29 q 68 164 78 108 q 69 288 58 219 m 349 119 q 459 159 414 119 q 521 269 504 199 l 556 501 q 528 608 560 569 q 432 646 496 646 q 310 601 358 646 q 250 476 263 556 l 221 289 q 241 165 208 210 q 349 119 274 119 m 300 1097 l 422 1097 q 441 1028 414 1053 q 522 1003 468 1003 q 614 1028 578 1003 q 657 1097 650 1053 l 782 1097 q 751 1016 775 1053 q 692 953 728 979 q 610 914 657 928 q 508 900 563 900 q 413 915 456 900 q 344 955 371 929 q 305 1017 317 981 q 300 1097 293 1054 z "},"Ą":{"ha":833,"x_min":26,"x_max":779,"o":"m 456 1000 l 664 1000 l 768 0 l 613 0 l 590 265 l 293 265 l 186 0 l 26 0 l 456 1000 m 343 388 l 581 388 l 550 760 q 546 854 546 814 q 546 894 546 875 l 540 894 q 528 854 535 875 q 513 811 521 835 q 494 761 506 788 l 343 388 m 751 14 l 729 -1 q 656 -67 681 -37 q 628 -125 632 -97 q 640 -171 624 -154 q 690 -187 657 -187 l 778 -187 l 763 -282 l 646 -282 q 524 -247 567 -282 q 492 -153 482 -211 q 530 -72 499 -112 q 631 14 561 -32 l 751 14 z "},"ą":{"ha":833,"x_min":58,"x_max":756,"o":"m 69 288 l 100 479 q 138 602 111 547 q 203 696 164 657 q 293 756 243 735 q 401 778 343 778 q 526 740 483 778 q 572 632 568 701 l 585 632 l 607 764 l 750 764 l 657 178 q 666 136 653 151 q 704 121 679 121 l 756 121 l 736 -6 l 638 -6 q 535 33 571 -6 q 507 132 500 71 l 494 132 q 413 25 468 64 q 276 -14 357 -14 q 175 8 218 -14 q 105 69 132 29 q 68 164 78 108 q 69 288 58 219 m 349 119 q 459 159 414 119 q 521 269 504 199 l 556 501 q 528 608 560 569 q 432 646 496 646 q 310 601 358 646 q 250 476 263 556 l 221 289 q 241 165 208 210 q 349 119 274 119 m 693 14 l 671 -1 q 598 -67 622 -37 q 569 -125 574 -97 q 582 -171 565 -154 q 632 -187 599 -187 l 719 -187 l 704 -282 l 588 -282 q 466 -247 508 -282 q 433 -153 424 -211 q 472 -72 440 -112 q 572 14 503 -32 l 693 14 z "},"Ć":{"ha":833,"x_min":71,"x_max":799,"o":"m 515 1014 q 725 937 651 1014 q 788 729 799 860 l 638 729 q 604 840 643 800 q 494 879 565 879 q 365 834 417 879 q 300 711 313 789 l 233 289 q 258 165 221 210 q 374 121 296 121 q 498 161 447 121 q 565 271 549 201 l 715 271 q 588 62 685 138 q 353 -14 492 -14 q 225 7 281 -14 q 134 67 169 28 q 85 161 99 106 q 82 285 71 217 l 150 715 q 192 840 161 785 q 270 934 222 896 q 380 993 318 972 q 515 1014 442 1014 m 510 1363 l 338 1381 l 222 1191 l 365 1176 l 510 1363 z "},"ć":{"ha":833,"x_min":74,"x_max":761,"o":"m 356 -14 q 229 8 285 -14 q 138 68 174 29 q 88 162 103 107 q 85 285 74 217 l 115 479 q 235 699 138 619 q 481 778 332 778 q 594 758 543 778 q 683 704 646 739 q 741 621 721 669 q 761 514 761 572 l 608 514 q 567 608 608 572 q 460 644 526 644 q 329 601 381 644 q 267 479 278 557 l 235 285 q 261 165 224 208 q 376 121 299 121 q 497 155 447 121 q 567 250 547 189 l 719 250 q 586 55 682 124 q 356 -14 490 -14 m 510 1141 l 338 1159 l 222 969 l 365 953 l 510 1141 z "},"Ĉ":{"ha":833,"x_min":71,"x_max":799,"o":"m 515 1014 q 725 937 651 1014 q 788 729 799 860 l 638 729 q 604 840 643 800 q 494 879 565 879 q 365 834 417 879 q 300 711 313 789 l 233 289 q 258 165 221 210 q 374 121 296 121 q 498 161 447 121 q 565 271 549 201 l 715 271 q 588 62 685 138 q 353 -14 492 -14 q 225 7 281 -14 q 134 67 169 28 q 85 161 99 106 q 82 285 71 217 l 150 715 q 192 840 161 785 q 270 934 222 896 q 380 993 318 972 q 515 1014 442 1014 m 468 1326 l 611 1326 l 743 1125 l 625 1125 l 565 1204 q 539 1240 544 1232 q 533 1251 535 1247 l 529 1251 q 519 1242 525 1247 q 505 1228 514 1236 q 482 1206 496 1219 l 394 1125 l 267 1125 l 468 1326 z "},"ĉ":{"ha":833,"x_min":74,"x_max":761,"o":"m 356 -14 q 229 8 285 -14 q 138 68 174 29 q 88 162 103 107 q 85 285 74 217 l 115 479 q 235 699 138 619 q 481 778 332 778 q 594 758 543 778 q 683 704 646 739 q 741 621 721 669 q 761 514 761 572 l 608 514 q 567 608 608 572 q 460 644 526 644 q 329 601 381 644 q 267 479 278 557 l 235 285 q 261 165 224 208 q 376 121 299 121 q 497 155 447 121 q 567 250 547 189 l 719 250 q 586 55 682 124 q 356 -14 490 -14 m 468 1104 l 611 1104 l 743 903 l 625 903 l 565 982 q 539 1018 544 1010 q 533 1029 535 1025 l 529 1029 q 519 1019 525 1025 q 505 1006 514 1014 q 482 983 496 997 l 394 903 l 267 903 l 468 1104 z "},"Ċ":{"ha":833,"x_min":71,"x_max":799,"o":"m 515 1014 q 725 937 651 1014 q 788 729 799 860 l 638 729 q 604 840 643 800 q 494 879 565 879 q 365 834 417 879 q 300 711 313 789 l 233 289 q 258 165 221 210 q 374 121 296 121 q 498 161 447 121 q 565 271 549 201 l 715 271 q 588 62 685 138 q 353 -14 492 -14 q 225 7 281 -14 q 134 67 169 28 q 85 161 99 106 q 82 285 71 217 l 150 715 q 192 840 161 785 q 270 934 222 896 q 380 993 318 972 q 515 1014 442 1014 m 528 1340 l 560 1340 q 625 1316 603 1340 q 640 1251 647 1292 q 604 1188 633 1211 q 532 1164 575 1164 l 500 1164 q 434 1187 457 1164 q 418 1250 411 1210 q 455 1315 425 1290 q 528 1340 485 1340 z "},"ċ":{"ha":833,"x_min":74,"x_max":761,"o":"m 356 -14 q 229 8 285 -14 q 138 68 174 29 q 88 162 103 107 q 85 285 74 217 l 115 479 q 235 699 138 619 q 481 778 332 778 q 594 758 543 778 q 683 704 646 739 q 741 621 721 669 q 761 514 761 572 l 608 514 q 567 608 608 572 q 460 644 526 644 q 329 601 381 644 q 267 479 278 557 l 235 285 q 261 165 224 208 q 376 121 299 121 q 497 155 447 121 q 567 250 547 189 l 719 250 q 586 55 682 124 q 356 -14 490 -14 m 521 1118 l 553 1118 q 618 1094 596 1118 q 633 1029 640 1069 q 597 965 626 989 q 525 942 568 942 l 493 942 q 427 965 450 942 q 411 1028 404 988 q 448 1093 418 1068 q 521 1118 478 1118 z "},"Č":{"ha":833,"x_min":71,"x_max":799,"o":"m 515 1014 q 725 937 651 1014 q 788 729 799 860 l 638 729 q 604 840 643 800 q 494 879 565 879 q 365 834 417 879 q 300 711 313 789 l 233 289 q 258 165 221 210 q 374 121 296 121 q 498 161 447 121 q 565 271 549 201 l 715 271 q 588 62 685 138 q 353 -14 492 -14 q 225 7 281 -14 q 134 67 169 28 q 85 161 99 106 q 82 285 71 217 l 150 715 q 192 840 161 785 q 270 934 222 896 q 380 993 318 972 q 515 1014 442 1014 m 306 1326 l 425 1326 l 486 1246 q 502 1224 496 1233 q 511 1210 508 1215 q 518 1200 515 1204 l 521 1200 q 531 1211 524 1204 q 545 1226 536 1217 q 569 1247 554 1235 l 656 1326 l 782 1326 l 582 1125 l 439 1125 l 306 1326 z "},"Ď":{"ha":833,"x_min":43,"x_max":785,"o":"m 358 139 q 495 186 439 139 q 564 313 551 233 l 624 689 q 594 814 635 767 q 474 861 553 861 l 331 861 l 215 139 l 358 139 m 43 0 l 201 1000 l 496 1000 q 626 978 569 1000 q 720 915 683 956 q 771 817 757 874 q 774 689 785 760 l 714 313 q 670 184 703 242 q 588 85 638 126 q 475 22 539 44 q 338 0 411 0 l 43 0 m 306 1326 l 425 1326 l 486 1246 q 502 1224 496 1233 q 511 1210 508 1215 q 518 1200 515 1204 l 521 1200 q 531 1211 524 1204 q 545 1226 536 1217 q 569 1247 554 1235 l 656 1326 l 782 1326 l 582 1125 l 439 1125 l 306 1326 z "},"ď":{"ha":833,"x_min":39,"x_max":1028,"o":"m 50 288 l 81 479 q 119 601 92 546 q 186 696 146 657 q 278 756 226 735 q 388 778 329 778 q 519 739 471 778 q 571 632 567 700 l 582 632 q 584 654 582 639 q 588 689 586 669 q 592 728 590 708 q 597 764 594 749 l 636 1014 l 788 1014 l 626 0 l 482 0 l 504 132 l 492 132 q 405 26 465 65 q 263 -14 344 -14 q 160 8 204 -14 q 87 69 115 29 q 49 164 58 108 q 50 288 39 219 m 333 119 q 454 160 404 119 q 519 272 504 201 l 553 486 q 526 603 563 560 q 421 646 490 646 q 293 601 343 646 q 231 476 243 556 l 201 289 q 224 165 189 210 q 333 119 258 119 m 903 1050 l 1028 1050 l 900 847 l 803 847 l 903 1050 z "},"Ē":{"ha":833,"x_min":57,"x_max":818,"o":"m 215 1000 l 818 1000 l 797 867 l 346 867 l 300 582 l 703 582 l 682 446 l 279 446 l 229 135 l 681 135 l 660 0 l 57 0 l 215 1000 m 354 1299 l 733 1299 l 713 1169 l 333 1169 l 354 1299 z "},"ē":{"ha":833,"x_min":63,"x_max":753,"o":"m 344 -14 q 217 7 272 -14 q 126 67 161 28 q 76 160 90 106 q 74 282 63 214 l 106 482 q 147 605 117 550 q 226 698 178 660 q 335 757 274 736 q 471 778 397 778 q 598 757 543 778 q 688 697 653 736 q 738 603 724 658 q 742 482 753 549 l 719 342 l 232 342 l 224 288 q 249 158 211 204 q 365 111 286 111 q 469 131 424 111 q 540 185 515 150 l 689 185 q 635 103 669 140 q 557 41 601 67 q 458 1 513 15 q 344 -14 404 -14 m 588 451 l 593 482 q 568 608 606 563 q 450 653 531 653 q 319 608 371 653 q 256 482 268 563 l 250 451 l 588 451 m 326 1076 l 706 1076 l 685 947 l 306 947 l 326 1076 z "},"Ĕ":{"ha":833,"x_min":57,"x_max":818,"o":"m 215 1000 l 818 1000 l 797 867 l 346 867 l 300 582 l 703 582 l 682 446 l 279 446 l 229 135 l 681 135 l 660 0 l 57 0 l 215 1000 m 300 1319 l 422 1319 q 441 1250 414 1275 q 522 1225 468 1225 q 614 1250 578 1225 q 657 1319 650 1275 l 782 1319 q 751 1238 775 1275 q 692 1176 728 1201 q 610 1136 657 1150 q 508 1122 563 1122 q 413 1137 456 1122 q 344 1177 371 1151 q 305 1240 317 1203 q 300 1319 293 1276 z "},"ĕ":{"ha":833,"x_min":63,"x_max":782,"o":"m 344 -14 q 217 7 272 -14 q 126 67 161 28 q 76 160 90 106 q 74 282 63 214 l 106 482 q 147 605 117 550 q 226 698 178 660 q 335 757 274 736 q 471 778 397 778 q 598 757 543 778 q 688 697 653 736 q 738 603 724 658 q 742 482 753 549 l 719 342 l 232 342 l 224 288 q 249 158 211 204 q 365 111 286 111 q 469 131 424 111 q 540 185 515 150 l 689 185 q 635 103 669 140 q 557 41 601 67 q 458 1 513 15 q 344 -14 404 -14 m 588 451 l 593 482 q 568 608 606 563 q 450 653 531 653 q 319 608 371 653 q 256 482 268 563 l 250 451 l 588 451 m 300 1097 l 422 1097 q 441 1028 414 1053 q 522 1003 468 1003 q 614 1028 578 1003 q 657 1097 650 1053 l 782 1097 q 751 1016 775 1053 q 692 953 728 979 q 610 914 657 928 q 508 900 563 900 q 413 915 456 900 q 344 955 371 929 q 305 1017 317 981 q 300 1097 293 1054 z "},"Ė":{"ha":833,"x_min":57,"x_max":818,"o":"m 215 1000 l 818 1000 l 797 867 l 346 867 l 300 582 l 703 582 l 682 446 l 279 446 l 229 135 l 681 135 l 660 0 l 57 0 l 215 1000 m 540 1340 l 572 1340 q 638 1316 615 1340 q 653 1251 660 1292 q 617 1188 646 1211 q 544 1164 588 1164 l 513 1164 q 447 1187 469 1164 q 431 1250 424 1210 q 467 1315 438 1290 q 540 1340 497 1340 z "},"ė":{"ha":833,"x_min":63,"x_max":753,"o":"m 344 -14 q 217 7 272 -14 q 126 67 161 28 q 76 160 90 106 q 74 282 63 214 l 106 482 q 147 605 117 550 q 226 698 178 660 q 335 757 274 736 q 471 778 397 778 q 598 757 543 778 q 688 697 653 736 q 738 603 724 658 q 742 482 753 549 l 719 342 l 232 342 l 224 288 q 249 158 211 204 q 365 111 286 111 q 469 131 424 111 q 540 185 515 150 l 689 185 q 635 103 669 140 q 557 41 601 67 q 458 1 513 15 q 344 -14 404 -14 m 588 451 l 593 482 q 568 608 606 563 q 450 653 531 653 q 319 608 371 653 q 256 482 268 563 l 250 451 l 588 451 m 513 1118 l 544 1118 q 610 1094 588 1118 q 625 1029 632 1069 q 589 965 618 989 q 517 942 560 942 l 485 942 q 419 965 442 942 q 403 1028 396 988 q 440 1093 410 1068 q 513 1118 469 1118 z "},"Ę":{"ha":833,"x_min":57,"x_max":818,"o":"m 215 1000 l 818 1000 l 797 867 l 346 867 l 300 582 l 703 582 l 682 446 l 279 446 l 229 135 l 681 135 l 660 0 l 57 0 l 215 1000 m 615 14 l 593 -1 q 520 -67 544 -37 q 492 -125 496 -97 q 504 -171 488 -154 q 554 -187 521 -187 l 642 -187 l 626 -282 l 510 -282 q 388 -247 431 -282 q 356 -153 346 -211 q 394 -72 363 -112 q 494 14 425 -32 l 615 14 z "},"ę":{"ha":833,"x_min":63,"x_max":753,"o":"m 344 -14 q 217 7 272 -14 q 126 67 161 28 q 76 160 90 106 q 74 282 63 214 l 106 482 q 147 605 117 550 q 226 698 178 660 q 335 757 274 736 q 471 778 397 778 q 598 757 543 778 q 688 697 653 736 q 738 603 724 658 q 742 482 753 549 l 719 342 l 232 342 l 224 288 q 249 158 211 204 q 365 111 286 111 q 469 131 424 111 q 540 185 515 150 l 689 185 q 648 117 674 149 q 590 63 622 86 l 508 -3 q 447 -63 467 -36 q 422 -118 426 -90 q 435 -169 417 -150 q 489 -187 453 -187 l 594 -187 l 581 -282 l 443 -282 q 319 -245 361 -282 q 286 -156 278 -208 q 389 -11 297 -85 q 367 -13 378 -12 q 344 -14 356 -14 m 588 451 l 593 482 q 568 608 606 563 q 450 653 531 653 q 319 608 371 653 q 256 482 268 563 l 250 451 l 588 451 z "},"Ě":{"ha":833,"x_min":57,"x_max":818,"o":"m 215 1000 l 818 1000 l 797 867 l 346 867 l 300 582 l 703 582 l 682 446 l 279 446 l 229 135 l 681 135 l 660 0 l 57 0 l 215 1000 m 306 1326 l 425 1326 l 486 1246 q 502 1224 496 1233 q 511 1210 508 1215 q 518 1200 515 1204 l 521 1200 q 531 1211 524 1204 q 545 1226 536 1217 q 569 1247 554 1235 l 656 1326 l 782 1326 l 582 1125 l 439 1125 l 306 1326 z "},"ě":{"ha":833,"x_min":63,"x_max":782,"o":"m 344 -14 q 217 7 272 -14 q 126 67 161 28 q 76 160 90 106 q 74 282 63 214 l 106 482 q 147 605 117 550 q 226 698 178 660 q 335 757 274 736 q 471 778 397 778 q 598 757 543 778 q 688 697 653 736 q 738 603 724 658 q 742 482 753 549 l 719 342 l 232 342 l 224 288 q 249 158 211 204 q 365 111 286 111 q 469 131 424 111 q 540 185 515 150 l 689 185 q 635 103 669 140 q 557 41 601 67 q 458 1 513 15 q 344 -14 404 -14 m 588 451 l 593 482 q 568 608 606 563 q 450 653 531 653 q 319 608 371 653 q 256 482 268 563 l 250 451 l 588 451 m 306 1104 l 425 1104 l 486 1024 q 502 1002 496 1011 q 511 988 508 993 q 518 978 515 982 l 521 978 q 531 989 524 982 q 545 1003 536 994 q 569 1025 554 1013 l 656 1104 l 782 1104 l 582 903 l 439 903 l 306 1104 z "},"Ĝ":{"ha":833,"x_min":63,"x_max":790,"o":"m 411 528 l 751 528 l 714 289 q 672 163 703 219 q 592 67 640 107 q 481 7 544 28 q 344 -14 418 -14 q 217 8 272 -14 q 126 69 161 29 q 76 165 90 108 q 72 289 63 221 l 140 711 q 183 835 151 781 q 261 930 214 890 q 371 990 308 969 q 507 1011 433 1011 q 715 943 642 1011 q 790 749 789 875 l 636 749 q 595 841 635 807 q 486 875 556 875 q 356 831 408 875 q 292 711 304 788 l 225 289 q 251 165 213 210 q 367 121 289 121 q 497 165 444 121 q 561 289 549 210 l 578 394 l 390 394 l 411 528 m 468 1326 l 611 1326 l 743 1125 l 625 1125 l 565 1204 q 539 1240 544 1232 q 533 1251 535 1247 l 529 1251 q 519 1242 525 1247 q 505 1228 514 1236 q 482 1206 496 1219 l 394 1125 l 267 1125 l 468 1326 z "},"ĝ":{"ha":833,"x_min":67,"x_max":774,"o":"m 293 65 q 188 86 233 65 q 115 145 143 107 q 76 238 86 183 q 76 360 67 293 l 96 483 q 134 605 107 550 q 201 698 161 660 q 294 757 242 736 q 406 778 346 778 q 540 738 490 778 q 596 625 590 697 l 606 625 l 628 764 l 774 764 l 660 50 q 620 -67 650 -15 q 544 -154 590 -118 q 438 -210 499 -190 q 306 -229 378 -229 l 108 -229 l 129 -99 l 326 -99 q 449 -59 401 -99 q 508 50 497 -19 l 511 72 l 540 218 l 532 218 q 440 106 504 146 q 293 65 376 65 m 232 361 q 256 241 219 285 q 368 197 293 197 q 495 242 444 197 q 557 361 546 286 l 578 492 q 550 605 586 564 q 439 646 514 646 q 313 602 364 646 q 250 482 263 558 l 232 361 m 468 1104 l 611 1104 l 743 903 l 625 903 l 565 982 q 539 1018 544 1010 q 533 1029 535 1025 l 529 1029 q 519 1019 525 1025 q 505 1006 514 1014 q 482 983 496 997 l 394 903 l 267 903 l 468 1104 z "},"Ğ":{"ha":833,"x_min":63,"x_max":790,"o":"m 411 528 l 751 528 l 714 289 q 672 163 703 219 q 592 67 640 107 q 481 7 544 28 q 344 -14 418 -14 q 217 8 272 -14 q 126 69 161 29 q 76 165 90 108 q 72 289 63 221 l 140 711 q 183 835 151 781 q 261 930 214 890 q 371 990 308 969 q 507 1011 433 1011 q 715 943 642 1011 q 790 749 789 875 l 636 749 q 595 841 635 807 q 486 875 556 875 q 356 831 408 875 q 292 711 304 788 l 225 289 q 251 165 213 210 q 367 121 289 121 q 497 165 444 121 q 561 289 549 210 l 578 394 l 390 394 l 411 528 m 300 1319 l 422 1319 q 441 1250 414 1275 q 522 1225 468 1225 q 614 1250 578 1225 q 657 1319 650 1275 l 782 1319 q 751 1238 775 1275 q 692 1176 728 1201 q 610 1136 657 1150 q 508 1122 563 1122 q 413 1137 456 1122 q 344 1177 371 1151 q 305 1240 317 1203 q 300 1319 293 1276 z "},"ğ":{"ha":833,"x_min":67,"x_max":782,"o":"m 293 65 q 188 86 233 65 q 115 145 143 107 q 76 238 86 183 q 76 360 67 293 l 96 483 q 134 605 107 550 q 201 698 161 660 q 294 757 242 736 q 406 778 346 778 q 540 738 490 778 q 596 625 590 697 l 606 625 l 628 764 l 774 764 l 660 50 q 620 -67 650 -15 q 544 -154 590 -118 q 438 -210 499 -190 q 306 -229 378 -229 l 108 -229 l 129 -99 l 326 -99 q 449 -59 401 -99 q 508 50 497 -19 l 511 72 l 540 218 l 532 218 q 440 106 504 146 q 293 65 376 65 m 232 361 q 256 241 219 285 q 368 197 293 197 q 495 242 444 197 q 557 361 546 286 l 578 492 q 550 605 586 564 q 439 646 514 646 q 313 602 364 646 q 250 482 263 558 l 232 361 m 300 1097 l 422 1097 q 441 1028 414 1053 q 522 1003 468 1003 q 614 1028 578 1003 q 657 1097 650 1053 l 782 1097 q 751 1016 775 1053 q 692 953 728 979 q 610 914 657 928 q 508 900 563 900 q 413 915 456 900 q 344 955 371 929 q 305 1017 317 981 q 300 1097 293 1054 z "},"Ġ":{"ha":833,"x_min":63,"x_max":790,"o":"m 411 528 l 751 528 l 714 289 q 672 163 703 219 q 592 67 640 107 q 481 7 544 28 q 344 -14 418 -14 q 217 8 272 -14 q 126 69 161 29 q 76 165 90 108 q 72 289 63 221 l 140 711 q 183 835 151 781 q 261 930 214 890 q 371 990 308 969 q 507 1011 433 1011 q 715 943 642 1011 q 790 749 789 875 l 636 749 q 595 841 635 807 q 486 875 556 875 q 356 831 408 875 q 292 711 304 788 l 225 289 q 251 165 213 210 q 367 121 289 121 q 497 165 444 121 q 561 289 549 210 l 578 394 l 390 394 l 411 528 m 550 1340 l 582 1340 q 647 1316 625 1340 q 663 1251 669 1292 q 626 1188 656 1211 q 554 1164 597 1164 l 522 1164 q 456 1187 479 1164 q 440 1250 433 1210 q 477 1315 447 1290 q 550 1340 507 1340 z "},"ġ":{"ha":833,"x_min":67,"x_max":774,"o":"m 293 65 q 188 86 233 65 q 115 145 143 107 q 76 238 86 183 q 76 360 67 293 l 96 483 q 134 605 107 550 q 201 698 161 660 q 294 757 242 736 q 406 778 346 778 q 540 738 490 778 q 596 625 590 697 l 606 625 l 628 764 l 774 764 l 660 50 q 620 -67 650 -15 q 544 -154 590 -118 q 438 -210 499 -190 q 306 -229 378 -229 l 108 -229 l 129 -99 l 326 -99 q 449 -59 401 -99 q 508 50 497 -19 l 511 72 l 540 218 l 532 218 q 440 106 504 146 q 293 65 376 65 m 232 361 q 256 241 219 285 q 368 197 293 197 q 495 242 444 197 q 557 361 546 286 l 578 492 q 550 605 586 564 q 439 646 514 646 q 313 602 364 646 q 250 482 263 558 l 232 361 m 507 1118 l 539 1118 q 604 1094 582 1118 q 619 1029 626 1069 q 583 965 613 989 q 511 942 554 942 l 479 942 q 413 965 436 942 q 397 1028 390 988 q 434 1093 404 1068 q 507 1118 464 1118 z "},"Ĥ":{"ha":833,"x_min":44,"x_max":806,"o":"m 44 0 l 203 1000 l 356 1000 l 290 590 l 588 590 l 653 1000 l 806 1000 l 647 0 l 494 0 l 565 450 l 268 450 l 197 0 l 44 0 m 468 1326 l 611 1326 l 743 1125 l 625 1125 l 565 1204 q 539 1240 544 1232 q 533 1251 535 1247 l 529 1251 q 519 1242 525 1247 q 505 1228 514 1236 q 482 1206 496 1219 l 394 1125 l 267 1125 l 468 1326 z "},"ĥ":{"ha":833,"x_min":42,"x_max":742,"o":"m 42 0 l 203 1014 l 354 1014 l 314 764 q 306 722 311 744 q 295 678 300 699 q 288 645 290 658 q 285 632 285 632 l 297 632 q 382 740 322 701 q 525 778 442 778 q 624 758 581 778 q 694 701 667 738 q 731 613 721 664 q 732 499 742 561 l 653 0 l 501 0 l 578 482 q 557 604 589 561 q 454 647 525 647 q 335 606 383 647 q 271 490 286 564 l 193 0 l 42 0 m 333 1326 l 476 1326 l 608 1125 l 490 1125 l 431 1204 q 404 1240 410 1232 q 399 1251 400 1247 l 394 1251 q 385 1242 390 1247 q 370 1228 379 1236 q 347 1206 361 1219 l 260 1125 l 132 1125 l 333 1326 z "},"Ĩ":{"ha":833,"x_min":54,"x_max":811,"o":"m 54 0 l 75 133 l 292 133 l 408 867 l 192 867 l 213 1000 l 799 1000 l 778 867 l 561 867 l 444 133 l 661 133 l 640 0 l 54 0 m 639 1219 q 682 1236 664 1219 q 707 1283 700 1253 l 711 1319 l 811 1319 l 806 1285 q 744 1164 792 1207 q 625 1121 697 1121 q 551 1138 579 1121 q 501 1174 522 1154 q 459 1210 479 1193 q 410 1226 439 1226 q 367 1210 385 1226 q 342 1161 349 1193 l 336 1128 l 236 1128 l 242 1163 q 304 1283 257 1240 q 424 1326 351 1326 q 498 1310 469 1326 q 548 1273 526 1293 q 590 1236 569 1253 q 639 1219 610 1219 z "},"ĩ":{"ha":833,"x_min":53,"x_max":811,"o":"m 53 0 l 75 139 l 351 139 l 428 626 l 188 626 l 210 764 l 597 764 l 499 139 l 724 139 l 701 0 l 53 0 m 639 997 q 682 1014 664 997 q 707 1061 700 1031 l 711 1097 l 811 1097 l 806 1063 q 744 942 792 985 q 625 899 697 899 q 551 915 579 899 q 501 951 522 932 q 459 988 479 971 q 410 1004 439 1004 q 367 988 385 1004 q 342 939 349 971 l 336 906 l 236 906 l 242 940 q 304 1061 257 1018 q 424 1104 351 1104 q 498 1088 469 1104 q 548 1051 526 1071 q 590 1014 569 1031 q 639 997 610 997 z "},"Ī":{"ha":833,"x_min":54,"x_max":799,"o":"m 54 0 l 75 133 l 292 133 l 408 867 l 192 867 l 213 1000 l 799 1000 l 778 867 l 561 867 l 444 133 l 661 133 l 640 0 l 54 0 m 354 1299 l 733 1299 l 713 1169 l 333 1169 l 354 1299 z "},"ī":{"ha":833,"x_min":53,"x_max":724,"o":"m 53 0 l 75 139 l 351 139 l 428 626 l 188 626 l 210 764 l 597 764 l 499 139 l 724 139 l 701 0 l 53 0 m 326 1076 l 706 1076 l 685 947 l 306 947 l 326 1076 z "},"Į":{"ha":833,"x_min":54,"x_max":799,"o":"m 54 0 l 75 133 l 292 133 l 408 867 l 192 867 l 213 1000 l 799 1000 l 778 867 l 561 867 l 444 133 l 661 133 l 640 0 l 54 0 m 435 14 l 413 -1 q 340 -67 364 -37 q 311 -125 315 -97 q 324 -171 307 -154 q 374 -187 340 -187 l 461 -187 l 446 -282 l 329 -282 q 208 -247 250 -282 q 175 -153 165 -211 q 213 -72 182 -112 q 314 14 244 -32 l 435 14 z "},"į":{"ha":833,"x_min":53,"x_max":724,"o":"m 604 0 l 600 -3 q 538 -63 558 -36 q 514 -118 518 -90 q 526 -169 508 -150 q 581 -187 544 -187 l 686 -187 l 672 -282 l 535 -282 q 411 -245 453 -282 q 378 -156 369 -208 q 482 -11 390 -82 l 496 0 l 53 0 l 75 139 l 351 139 l 428 626 l 188 626 l 210 764 l 597 764 l 499 139 l 724 139 l 701 0 l 604 0 m 426 979 q 463 1042 433 1018 q 535 1067 492 1067 l 567 1067 q 632 1042 610 1067 q 647 978 654 1018 q 611 915 640 938 q 539 892 582 892 l 507 892 q 442 915 464 892 q 426 979 419 939 z "},"İ":{"ha":833,"x_min":54,"x_max":799,"o":"m 54 0 l 75 133 l 292 133 l 408 867 l 192 867 l 213 1000 l 799 1000 l 778 867 l 561 867 l 444 133 l 661 133 l 640 0 l 54 0 m 550 1340 l 582 1340 q 647 1316 625 1340 q 663 1251 669 1292 q 626 1188 656 1211 q 554 1164 597 1164 l 522 1164 q 456 1187 479 1164 q 440 1250 433 1210 q 477 1315 447 1290 q 550 1340 507 1340 z "},"Ń":{"ha":833,"x_min":36,"x_max":817,"o":"m 194 1000 l 385 1000 l 529 333 q 538 279 535 310 q 543 221 540 249 q 547 153 546 188 l 561 153 q 562 171 561 153 q 564 218 563 189 q 568 283 565 247 q 576 356 571 319 l 678 1000 l 817 1000 l 658 0 l 469 0 l 328 668 q 318 728 321 696 q 313 786 315 760 q 308 849 310 818 l 294 849 q 293 788 294 819 q 288 724 290 760 q 278 647 285 688 l 175 0 l 36 0 l 194 1000 m 510 1363 l 338 1381 l 222 1191 l 365 1176 l 510 1363 z "},"ń":{"ha":833,"x_min":40,"x_max":742,"o":"m 40 0 l 161 764 l 306 764 l 285 632 l 297 632 q 382 740 322 701 q 525 778 442 778 q 624 758 581 778 q 694 701 667 738 q 731 613 721 664 q 732 499 742 561 l 653 0 l 501 0 l 578 482 q 557 604 589 561 q 454 647 525 647 q 335 606 383 647 q 271 493 286 565 l 193 0 l 40 0 m 510 1141 l 338 1159 l 222 969 l 365 953 l 510 1141 z "},"Ň":{"ha":833,"x_min":36,"x_max":817,"o":"m 194 1000 l 385 1000 l 529 333 q 538 279 535 310 q 543 221 540 249 q 547 153 546 188 l 561 153 q 562 171 561 153 q 564 218 563 189 q 568 283 565 247 q 576 356 571 319 l 678 1000 l 817 1000 l 658 0 l 469 0 l 328 668 q 318 728 321 696 q 313 786 315 760 q 308 849 310 818 l 294 849 q 293 788 294 819 q 288 724 290 760 q 278 647 285 688 l 175 0 l 36 0 l 194 1000 m 306 1326 l 425 1326 l 486 1246 q 502 1224 496 1233 q 511 1210 508 1215 q 518 1200 515 1204 l 521 1200 q 531 1211 524 1204 q 545 1226 536 1217 q 569 1247 554 1235 l 656 1326 l 782 1326 l 582 1125 l 439 1125 l 306 1326 z "},"ň":{"ha":833,"x_min":40,"x_max":782,"o":"m 40 0 l 161 764 l 306 764 l 285 632 l 297 632 q 382 740 322 701 q 525 778 442 778 q 624 758 581 778 q 694 701 667 738 q 731 613 721 664 q 732 499 742 561 l 653 0 l 501 0 l 578 482 q 557 604 589 561 q 454 647 525 647 q 335 606 383 647 q 271 493 286 565 l 193 0 l 40 0 m 306 1104 l 425 1104 l 486 1024 q 502 1002 496 1011 q 511 988 508 993 q 518 978 515 982 l 521 978 q 531 989 524 982 q 545 1003 536 994 q 569 1025 554 1013 l 656 1104 l 782 1104 l 582 903 l 439 903 l 306 1104 z "},"Ō":{"ha":833,"x_min":63,"x_max":792,"o":"m 225 289 q 251 166 213 211 q 367 121 289 121 q 496 166 443 121 q 561 289 549 211 l 628 713 q 602 835 640 790 q 486 881 564 881 q 357 835 410 881 q 293 713 304 790 l 225 289 m 140 713 q 260 933 163 853 q 508 1014 358 1014 q 636 992 581 1014 q 727 931 692 971 q 777 836 763 892 q 781 713 792 781 l 713 289 q 670 163 701 219 q 591 67 639 107 q 481 7 543 28 q 344 -14 418 -14 q 217 8 272 -14 q 126 69 161 29 q 76 165 90 108 q 72 289 63 221 l 140 713 m 326 1299 l 706 1299 l 685 1169 l 306 1169 l 326 1299 z "},"ō":{"ha":833,"x_min":63,"x_max":753,"o":"m 225 288 q 250 165 213 210 q 367 121 288 121 q 497 165 444 121 q 561 288 549 208 l 590 478 q 565 600 603 556 q 449 644 526 644 q 319 599 372 644 q 256 478 267 554 l 225 288 m 104 478 q 146 603 115 547 q 224 697 176 658 q 335 757 272 736 q 471 778 397 778 q 599 757 544 778 q 690 697 654 736 q 739 603 725 658 q 742 478 753 547 l 713 288 q 592 67 689 147 q 344 -14 494 -14 q 217 7 272 -14 q 126 67 161 28 q 76 163 90 107 q 74 288 63 218 l 104 478 m 325 1076 l 704 1076 l 683 947 l 304 947 l 325 1076 z "},"Ŏ":{"ha":833,"x_min":63,"x_max":792,"o":"m 225 289 q 251 166 213 211 q 367 121 289 121 q 496 166 443 121 q 561 289 549 211 l 628 713 q 602 835 640 790 q 486 881 564 881 q 357 835 410 881 q 293 713 304 790 l 225 289 m 140 713 q 260 933 163 853 q 508 1014 358 1014 q 636 992 581 1014 q 727 931 692 971 q 777 836 763 892 q 781 713 792 781 l 713 289 q 670 163 701 219 q 591 67 639 107 q 481 7 543 28 q 344 -14 418 -14 q 217 8 272 -14 q 126 69 161 29 q 76 165 90 108 q 72 289 63 221 l 140 713 m 307 1319 l 429 1319 q 448 1250 421 1275 q 529 1225 475 1225 q 621 1250 585 1225 q 664 1319 657 1275 l 789 1319 q 758 1238 782 1275 q 699 1176 735 1201 q 617 1136 664 1150 q 515 1122 569 1122 q 420 1137 463 1122 q 351 1177 378 1151 q 312 1240 324 1203 q 307 1319 300 1276 z "},"ŏ":{"ha":833,"x_min":63,"x_max":789,"o":"m 225 288 q 250 165 213 210 q 367 121 288 121 q 497 165 444 121 q 561 288 549 208 l 590 478 q 565 600 603 556 q 449 644 526 644 q 319 599 372 644 q 256 478 267 554 l 225 288 m 104 478 q 146 603 115 547 q 224 697 176 658 q 335 757 272 736 q 471 778 397 778 q 599 757 544 778 q 690 697 654 736 q 739 603 725 658 q 742 478 753 547 l 713 288 q 592 67 689 147 q 344 -14 494 -14 q 217 7 272 -14 q 126 67 161 28 q 76 163 90 107 q 74 288 63 218 l 104 478 m 307 1097 l 429 1097 q 448 1028 421 1053 q 529 1003 475 1003 q 621 1028 585 1003 q 664 1097 657 1053 l 789 1097 q 758 1016 782 1053 q 699 953 735 979 q 617 914 664 928 q 515 900 569 900 q 420 915 463 900 q 351 955 378 929 q 312 1017 324 981 q 307 1097 300 1054 z "},"Ő":{"ha":833,"x_min":63,"x_max":871,"o":"m 225 289 q 251 166 213 211 q 367 121 289 121 q 496 166 443 121 q 561 289 549 211 l 628 713 q 602 835 640 790 q 486 881 564 881 q 357 835 410 881 q 293 713 304 790 l 225 289 m 140 713 q 260 933 163 853 q 508 1014 358 1014 q 636 992 581 1014 q 727 931 692 971 q 777 836 763 892 q 781 713 792 781 l 713 289 q 670 163 701 219 q 591 67 639 107 q 481 7 543 28 q 344 -14 418 -14 q 217 8 272 -14 q 126 69 161 29 q 76 165 90 108 q 72 289 63 221 l 140 713 m 228 1433 l 56 1487 l -60 1321 l 83 1276 l 228 1433 m 519 1433 l 347 1487 l 232 1321 l 375 1276 l 519 1433 z "},"ő":{"ha":833,"x_min":63,"x_max":871,"o":"m 225 288 q 250 165 213 210 q 367 121 288 121 q 497 165 444 121 q 561 288 549 208 l 590 478 q 565 600 603 556 q 449 644 526 644 q 319 599 372 644 q 256 478 267 554 l 225 288 m 104 478 q 146 603 115 547 q 224 697 176 658 q 335 757 272 736 q 471 778 397 778 q 599 757 544 778 q 690 697 654 736 q 739 603 725 658 q 742 478 753 547 l 713 288 q 592 67 689 147 q 344 -14 494 -14 q 217 7 272 -14 q 126 67 161 28 q 76 163 90 107 q 74 288 63 218 l 104 478 m 228 1211 l 56 1265 l -60 1099 l 83 1054 l 228 1211 m 519 1211 l 347 1265 l 232 1099 l 375 1054 l 519 1211 z "},"Ŕ":{"ha":833,"x_min":44,"x_max":810,"o":"m 203 1000 l 526 1000 q 654 978 599 1000 q 745 919 710 957 q 795 826 781 881 q 799 704 810 771 q 720 528 782 600 q 564 426 658 456 l 701 0 l 536 0 l 413 407 l 261 407 l 196 0 l 44 0 l 203 1000 m 453 535 q 579 581 528 535 q 643 701 631 626 q 617 822 654 776 q 506 868 581 868 l 333 868 l 281 535 l 453 535 m 510 1363 l 338 1381 l 222 1191 l 365 1176 l 510 1363 z "},"ŕ":{"ha":833,"x_min":72,"x_max":797,"o":"m 72 0 l 193 764 l 336 764 l 315 632 l 326 632 q 415 740 353 701 q 563 778 478 778 q 741 701 685 778 q 776 492 797 624 l 768 438 l 613 438 l 619 476 q 596 603 632 557 q 485 649 560 649 q 363 603 413 649 q 300 482 314 558 l 224 0 l 72 0 m 510 1141 l 338 1159 l 222 969 l 365 953 l 510 1141 z "},"Ř":{"ha":833,"x_min":44,"x_max":810,"o":"m 203 1000 l 526 1000 q 654 978 599 1000 q 745 919 710 957 q 795 826 781 881 q 799 704 810 771 q 720 528 782 600 q 564 426 658 456 l 701 0 l 536 0 l 413 407 l 261 407 l 196 0 l 44 0 l 203 1000 m 453 535 q 579 581 528 535 q 643 701 631 626 q 617 822 654 776 q 506 868 581 868 l 333 868 l 281 535 l 453 535 m 306 1326 l 425 1326 l 486 1246 q 502 1224 496 1233 q 511 1210 508 1215 q 518 1200 515 1204 l 521 1200 q 531 1211 524 1204 q 545 1226 536 1217 q 569 1247 554 1235 l 656 1326 l 782 1326 l 582 1125 l 439 1125 l 306 1326 z "},"ř":{"ha":833,"x_min":72,"x_max":797,"o":"m 72 0 l 193 764 l 336 764 l 315 632 l 326 632 q 415 740 353 701 q 563 778 478 778 q 741 701 685 778 q 776 492 797 624 l 768 438 l 613 438 l 619 476 q 596 603 632 557 q 485 649 560 649 q 363 603 413 649 q 300 482 314 558 l 224 0 l 72 0 m 306 1104 l 425 1104 l 486 1024 q 502 1002 496 1011 q 511 988 508 993 q 518 978 515 982 l 521 978 q 531 989 524 982 q 545 1003 536 994 q 569 1025 554 1013 l 656 1104 l 782 1104 l 582 903 l 439 903 l 306 1104 z "},"Ś":{"ha":833,"x_min":50,"x_max":789,"o":"m 344 -14 q 216 6 272 -14 q 122 63 160 26 q 67 149 85 99 q 58 261 50 200 l 215 261 q 249 160 207 199 q 369 121 292 121 q 504 157 453 121 q 567 257 556 193 q 547 357 575 314 q 458 421 518 400 l 358 456 q 194 567 246 492 q 157 742 142 642 q 271 942 178 871 q 513 1014 364 1014 q 634 994 581 1014 q 723 940 688 975 q 774 855 758 904 q 782 744 789 806 l 625 744 q 595 843 633 806 q 489 881 557 881 q 369 846 415 881 q 313 750 322 811 q 331 659 304 697 q 418 600 357 621 l 524 565 q 687 451 636 529 q 719 265 738 374 q 679 149 710 200 q 600 61 649 97 q 487 6 551 25 q 344 -14 422 -14 m 510 1363 l 338 1381 l 222 1191 l 365 1176 l 510 1363 z "},"ś":{"ha":833,"x_min":56,"x_max":750,"o":"m 319 -14 q 126 41 196 -14 q 58 192 56 96 l 208 192 q 247 132 211 154 q 339 110 282 110 l 388 110 q 499 138 457 110 q 549 214 542 165 q 444 317 564 300 l 335 332 q 132 556 100 361 q 231 719 149 661 q 449 778 314 778 l 499 778 q 683 725 617 778 q 749 579 750 672 l 597 579 q 563 634 594 614 q 479 654 532 654 l 429 654 q 326 630 365 654 q 279 557 288 606 q 374 463 267 476 l 485 447 q 699 218 731 414 q 595 46 681 106 q 368 -14 510 -14 l 319 -14 m 510 1141 l 338 1159 l 222 969 l 365 953 l 510 1141 z "},"Ŝ":{"ha":833,"x_min":50,"x_max":789,"o":"m 344 -14 q 216 6 272 -14 q 122 63 160 26 q 67 149 85 99 q 58 261 50 200 l 215 261 q 249 160 207 199 q 369 121 292 121 q 504 157 453 121 q 567 257 556 193 q 547 357 575 314 q 458 421 518 400 l 358 456 q 194 567 246 492 q 157 742 142 642 q 271 942 178 871 q 513 1014 364 1014 q 634 994 581 1014 q 723 940 688 975 q 774 855 758 904 q 782 744 789 806 l 625 744 q 595 843 633 806 q 489 881 557 881 q 369 846 415 881 q 313 750 322 811 q 331 659 304 697 q 418 600 357 621 l 524 565 q 687 451 636 529 q 719 265 738 374 q 679 149 710 200 q 600 61 649 97 q 487 6 551 25 q 344 -14 422 -14 m 468 1326 l 611 1326 l 743 1125 l 625 1125 l 565 1204 q 539 1240 544 1232 q 533 1251 535 1247 l 529 1251 q 519 1242 525 1247 q 505 1228 514 1236 q 482 1206 496 1219 l 394 1125 l 267 1125 l 468 1326 z "},"ŝ":{"ha":833,"x_min":56,"x_max":750,"o":"m 319 -14 q 126 41 196 -14 q 58 192 56 96 l 208 192 q 247 132 211 154 q 339 110 282 110 l 388 110 q 499 138 457 110 q 549 214 542 165 q 444 317 564 300 l 335 332 q 132 556 100 361 q 231 719 149 661 q 449 778 314 778 l 499 778 q 683 725 617 778 q 749 579 750 672 l 597 579 q 563 634 594 614 q 479 654 532 654 l 429 654 q 326 630 365 654 q 279 557 288 606 q 374 463 267 476 l 485 447 q 699 218 731 414 q 595 46 681 106 q 368 -14 510 -14 l 319 -14 m 468 1104 l 611 1104 l 743 903 l 625 903 l 565 982 q 539 1018 544 1010 q 533 1029 535 1025 l 529 1029 q 519 1019 525 1025 q 505 1006 514 1014 q 482 983 496 997 l 394 903 l 267 903 l 468 1104 z "},"Ş":{"ha":833,"x_min":50,"x_max":789,"o":"m 344 -14 q 216 6 272 -14 q 122 63 160 26 q 67 149 85 99 q 58 261 50 200 l 215 261 q 249 160 207 199 q 369 121 292 121 q 504 157 453 121 q 567 257 556 193 q 547 357 575 314 q 458 421 518 400 l 358 456 q 194 567 246 492 q 157 742 142 642 q 271 942 178 871 q 513 1014 364 1014 q 634 994 581 1014 q 723 940 688 975 q 774 855 758 904 q 782 744 789 806 l 625 744 q 595 843 633 806 q 489 881 557 881 q 369 846 415 881 q 313 750 322 811 q 331 659 304 697 q 418 600 357 621 l 524 565 q 687 451 636 529 q 719 265 738 374 q 679 149 710 200 q 600 61 649 97 q 487 6 551 25 q 344 -14 422 -14 m 351 36 l 440 36 l 390 -49 q 476 -68 439 -53 q 506 -83 492 -74 q 532 -103 521 -92 q 548 -131 543 -115 q 550 -167 553 -147 q 490 -244 543 -214 q 357 -274 436 -274 q 297 -273 321 -274 q 257 -271 272 -272 q 229 -267 239 -268 l 242 -186 q 268 -189 253 -187 q 300 -191 281 -190 q 343 -192 319 -192 q 392 -181 372 -192 q 415 -153 413 -171 q 383 -110 419 -125 q 275 -94 346 -94 l 351 36 z "},"ş":{"ha":833,"x_min":56,"x_max":750,"o":"m 319 -14 q 126 41 196 -14 q 58 192 56 96 l 208 192 q 247 132 211 154 q 339 110 282 110 l 388 110 q 499 138 457 110 q 549 214 542 165 q 444 317 564 300 l 335 332 q 132 556 100 361 q 231 719 149 661 q 449 778 314 778 l 499 778 q 683 725 617 778 q 749 579 750 672 l 597 579 q 563 634 594 614 q 479 654 532 654 l 429 654 q 326 630 365 654 q 279 557 288 606 q 374 463 267 476 l 485 447 q 699 218 731 414 q 595 46 681 106 q 368 -14 510 -14 l 319 -14 m 351 36 l 440 36 l 390 -49 q 476 -68 439 -53 q 506 -83 492 -74 q 532 -103 521 -92 q 548 -131 543 -115 q 550 -167 553 -147 q 490 -244 543 -214 q 357 -274 436 -274 q 297 -273 321 -274 q 257 -271 272 -272 q 229 -267 239 -268 l 242 -186 q 268 -189 253 -187 q 300 -191 281 -190 q 343 -192 319 -192 q 392 -181 372 -192 q 415 -153 413 -171 q 383 -110 419 -125 q 275 -94 346 -94 l 351 36 z "},"Ť":{"ha":833,"x_min":125,"x_max":864,"o":"m 125 863 l 147 1000 l 864 1000 l 843 863 l 561 863 l 425 0 l 269 0 l 407 863 l 125 863 m 306 1326 l 425 1326 l 486 1246 q 502 1224 496 1233 q 511 1210 508 1215 q 518 1200 515 1204 l 521 1200 q 531 1211 524 1204 q 545 1226 536 1217 q 569 1247 554 1235 l 656 1326 l 782 1326 l 582 1125 l 439 1125 l 306 1326 z "},"Ũ":{"ha":833,"x_min":71,"x_max":815,"o":"m 344 -14 q 219 7 274 -14 q 131 66 165 28 q 84 160 97 104 q 82 285 71 215 l 196 1000 l 349 1000 l 235 285 q 257 164 222 207 q 367 121 292 121 q 490 163 442 121 q 550 285 538 206 l 664 1000 l 815 1000 l 703 285 q 586 64 679 142 q 344 -14 493 -14 m 639 1219 q 682 1236 664 1219 q 707 1283 700 1253 l 711 1319 l 811 1319 l 806 1285 q 744 1164 792 1207 q 625 1121 697 1121 q 551 1138 579 1121 q 501 1174 522 1154 q 459 1210 479 1193 q 410 1226 439 1226 q 367 1210 385 1226 q 342 1161 349 1193 l 336 1128 l 236 1128 l 242 1163 q 304 1283 257 1240 q 424 1326 351 1326 q 498 1310 469 1326 q 548 1273 526 1293 q 590 1236 569 1253 q 639 1219 610 1219 z "},"ũ":{"ha":833,"x_min":68,"x_max":811,"o":"m 90 279 l 167 764 l 319 764 l 240 279 q 365 119 215 119 q 542 279 517 119 l 619 764 l 769 764 l 693 279 q 581 63 671 139 q 344 -14 490 -14 q 135 64 203 -14 q 90 279 68 142 m 639 997 q 682 1014 664 997 q 707 1061 700 1031 l 711 1097 l 811 1097 l 806 1063 q 744 942 792 985 q 625 899 697 899 q 551 915 579 899 q 501 951 522 932 q 459 988 479 971 q 410 1004 439 1004 q 367 988 385 1004 q 342 939 349 971 l 336 906 l 236 906 l 242 940 q 304 1061 257 1018 q 424 1104 351 1104 q 498 1088 469 1104 q 548 1051 526 1071 q 590 1014 569 1031 q 639 997 610 997 z "},"Ū":{"ha":833,"x_min":71,"x_max":815,"o":"m 344 -14 q 219 7 274 -14 q 131 66 165 28 q 84 160 97 104 q 82 285 71 215 l 196 1000 l 349 1000 l 235 285 q 257 164 222 207 q 367 121 292 121 q 490 163 442 121 q 550 285 538 206 l 664 1000 l 815 1000 l 703 285 q 586 64 679 142 q 344 -14 493 -14 m 325 1299 l 704 1299 l 683 1169 l 304 1169 l 325 1299 z "},"ū":{"ha":833,"x_min":68,"x_max":769,"o":"m 90 279 l 167 764 l 319 764 l 240 279 q 365 119 215 119 q 542 279 517 119 l 619 764 l 769 764 l 693 279 q 581 63 671 139 q 344 -14 490 -14 q 135 64 203 -14 q 90 279 68 142 m 325 1076 l 704 1076 l 683 947 l 304 947 l 325 1076 z "},"Ŭ":{"ha":833,"x_min":71,"x_max":815,"o":"m 344 -14 q 219 7 274 -14 q 131 66 165 28 q 84 160 97 104 q 82 285 71 215 l 196 1000 l 349 1000 l 235 285 q 257 164 222 207 q 367 121 292 121 q 490 163 442 121 q 550 285 538 206 l 664 1000 l 815 1000 l 703 285 q 586 64 679 142 q 344 -14 493 -14 m 306 1319 l 428 1319 q 447 1250 419 1275 q 528 1225 474 1225 q 619 1250 583 1225 q 663 1319 656 1275 l 788 1319 q 757 1238 781 1275 q 698 1176 733 1201 q 615 1136 663 1150 q 514 1122 568 1122 q 419 1137 461 1122 q 349 1177 376 1151 q 310 1240 322 1203 q 306 1319 299 1276 z "},"ŭ":{"ha":833,"x_min":68,"x_max":789,"o":"m 90 279 l 167 764 l 319 764 l 240 279 q 365 119 215 119 q 542 279 517 119 l 619 764 l 769 764 l 693 279 q 581 63 671 139 q 344 -14 490 -14 q 135 64 203 -14 q 90 279 68 142 m 307 1097 l 429 1097 q 448 1028 421 1053 q 529 1003 475 1003 q 621 1028 585 1003 q 664 1097 657 1053 l 789 1097 q 758 1016 782 1053 q 699 953 735 979 q 617 914 664 928 q 515 900 569 900 q 420 915 463 900 q 351 955 378 929 q 312 1017 324 981 q 307 1097 300 1054 z "},"Ů":{"ha":833,"x_min":71,"x_max":815,"o":"m 344 -14 q 219 7 274 -14 q 131 66 165 28 q 84 160 97 104 q 82 285 71 215 l 196 1000 l 349 1000 l 235 285 q 257 164 222 207 q 367 121 292 121 q 490 163 442 121 q 550 285 538 206 l 664 1000 l 815 1000 l 703 285 q 586 64 679 142 q 344 -14 493 -14 m 406 1222 q 469 1328 417 1289 q 597 1368 522 1368 q 711 1328 672 1368 q 739 1222 750 1289 q 675 1116 728 1156 q 547 1076 622 1076 q 433 1116 472 1076 q 406 1222 394 1156 m 494 1222 q 558 1149 482 1149 q 651 1222 639 1149 q 641 1278 658 1258 q 585 1297 624 1297 q 524 1278 549 1297 q 494 1222 500 1258 z "},"ů":{"ha":833,"x_min":68,"x_max":769,"o":"m 90 279 l 167 764 l 319 764 l 240 279 q 365 119 215 119 q 542 279 517 119 l 619 764 l 769 764 l 693 279 q 581 63 671 139 q 344 -14 490 -14 q 135 64 203 -14 q 90 279 68 142 m 350 1000 q 414 1106 361 1067 q 542 1146 467 1146 q 656 1106 617 1146 q 683 1000 694 1067 q 619 894 672 933 q 492 854 567 854 q 378 894 417 854 q 350 1000 339 933 m 439 1000 q 503 926 426 926 q 596 1000 583 926 q 585 1056 603 1036 q 529 1075 568 1075 q 469 1056 493 1075 q 439 1000 444 1036 z "},"Ŵ":{"ha":833,"x_min":58,"x_max":894,"o":"m 58 0 l 117 1000 l 240 1000 l 188 292 q 182 235 186 268 q 174 169 178 201 q 164 97 169 135 l 179 97 q 196 169 188 135 q 211 235 203 201 q 226 292 219 268 l 429 1000 l 585 1000 l 558 292 q 555 235 557 268 q 550 171 553 201 q 544 97 547 135 l 560 97 q 574 169 567 135 q 587 235 581 201 q 599 292 593 268 l 771 1000 l 894 1000 l 633 0 l 447 0 l 478 701 q 484 772 481 738 q 490 836 488 807 q 500 900 494 869 l 483 900 q 472 836 479 869 q 460 772 467 807 q 442 701 453 738 l 242 0 l 58 0 m 472 1326 l 615 1326 l 747 1125 l 629 1125 l 569 1204 q 543 1240 549 1232 q 538 1251 539 1247 l 533 1251 q 524 1242 529 1247 q 509 1228 518 1236 q 486 1206 500 1219 l 399 1125 l 271 1125 l 472 1326 z "},"ŵ":{"ha":833,"x_min":68,"x_max":854,"o":"m 68 0 l 75 764 l 183 764 l 178 268 q 177 223 178 254 q 175 160 176 192 q 172 79 174 122 l 186 79 q 204 153 196 118 q 219 217 211 185 q 233 268 228 249 l 375 764 l 529 764 l 533 267 q 535 224 535 254 q 533 161 535 193 q 533 81 533 124 l 547 81 q 565 154 557 118 q 581 215 572 183 q 596 268 589 247 l 735 764 l 854 764 l 625 0 l 440 0 l 433 515 q 434 551 433 526 q 436 604 435 576 q 439 672 438 635 l 426 672 q 418 614 422 643 q 408 563 414 590 q 396 514 403 535 l 249 0 l 68 0 m 472 1104 l 615 1104 l 747 903 l 629 903 l 569 982 q 543 1018 549 1010 q 538 1029 539 1025 l 533 1029 q 524 1019 529 1025 q 509 1006 518 1014 q 486 983 500 997 l 399 903 l 271 903 l 472 1104 z "},"Ŷ":{"ha":833,"x_min":124,"x_max":888,"o":"m 278 1000 l 399 589 q 409 546 406 567 q 414 508 413 525 q 417 474 417 490 l 424 474 q 436 508 428 490 q 452 546 443 525 q 474 589 461 567 l 722 1000 l 888 1000 l 479 347 l 424 0 l 271 0 l 326 347 l 124 1000 l 278 1000 m 478 1326 l 621 1326 l 753 1125 l 635 1125 l 575 1204 q 549 1240 554 1232 q 543 1251 544 1247 l 539 1251 q 529 1242 535 1247 q 515 1228 524 1236 q 492 1206 506 1219 l 404 1125 l 276 1125 l 478 1326 z "},"ŷ":{"ha":833,"x_min":76,"x_max":772,"o":"m 96 335 l 164 764 l 314 764 l 250 361 q 272 239 238 283 q 376 194 306 194 q 494 235 446 194 q 556 349 542 276 l 622 764 l 772 764 l 653 28 q 550 -161 633 -93 q 336 -229 467 -229 l 117 -229 l 138 -97 l 349 -97 q 453 -65 413 -97 q 503 28 493 -32 l 511 81 l 539 208 l 528 208 q 443 102 501 139 q 303 65 385 65 q 133 138 189 65 q 96 335 76 211 m 472 1104 l 615 1104 l 747 903 l 629 903 l 569 982 q 543 1018 549 1010 q 538 1029 539 1025 l 533 1029 q 524 1019 529 1025 q 509 1006 518 1014 q 486 983 500 997 l 399 903 l 271 903 l 472 1104 z "},"Ź":{"ha":833,"x_min":44,"x_max":793,"o":"m 793 1000 l 771 860 l 238 132 l 336 138 l 672 138 l 650 0 l 44 0 l 67 139 l 599 865 l 599 868 l 497 863 l 192 863 l 214 1000 l 793 1000 m 533 1363 l 361 1381 l 246 1191 l 389 1176 l 533 1363 z "},"ź":{"ha":833,"x_min":36,"x_max":764,"o":"m 169 764 l 764 764 l 739 610 l 239 135 q 238 131 239 133 q 238 126 238 128 q 271 131 254 128 q 304 133 286 132 q 340 133 322 133 l 679 133 l 658 0 l 36 0 l 61 153 l 564 629 l 564 636 q 528 635 546 635 q 494 633 513 633 q 456 632 475 632 l 147 632 l 169 764 m 533 1141 l 361 1159 l 246 969 l 389 953 l 533 1141 z "},"Ż":{"ha":833,"x_min":44,"x_max":793,"o":"m 793 1000 l 771 860 l 238 132 l 336 138 l 672 138 l 650 0 l 44 0 l 67 139 l 599 865 l 599 868 l 497 863 l 192 863 l 214 1000 l 793 1000 m 539 1340 l 571 1340 q 636 1316 614 1340 q 651 1251 658 1292 q 615 1188 644 1211 q 543 1164 586 1164 l 511 1164 q 445 1187 468 1164 q 429 1250 422 1210 q 466 1315 436 1290 q 539 1340 496 1340 z "},"ż":{"ha":833,"x_min":36,"x_max":764,"o":"m 169 764 l 764 764 l 739 610 l 239 135 q 238 131 239 133 q 238 126 238 128 q 271 131 254 128 q 304 133 286 132 q 340 133 322 133 l 679 133 l 658 0 l 36 0 l 61 153 l 564 629 l 564 636 q 528 635 546 635 q 494 633 513 633 q 456 632 475 632 l 147 632 l 169 764 m 499 1118 l 531 1118 q 596 1094 574 1118 q 611 1029 618 1069 q 575 965 604 989 q 503 942 546 942 l 471 942 q 405 965 428 942 q 389 1028 382 988 q 426 1093 396 1068 q 499 1118 456 1118 z "},"Ẁ":{"ha":833,"x_min":58,"x_max":894,"o":"m 58 0 l 117 1000 l 240 1000 l 188 292 q 182 235 186 268 q 174 169 178 201 q 164 97 169 135 l 179 97 q 196 169 188 135 q 211 235 203 201 q 226 292 219 268 l 429 1000 l 585 1000 l 558 292 q 555 235 557 268 q 550 171 553 201 q 544 97 547 135 l 560 97 q 574 169 567 135 q 587 235 581 201 q 599 292 593 268 l 771 1000 l 894 1000 l 633 0 l 447 0 l 478 701 q 484 772 481 738 q 490 836 488 807 q 500 900 494 869 l 483 900 q 472 836 479 869 q 460 772 467 807 q 442 701 453 738 l 242 0 l 58 0 m 332 1328 l 504 1328 l 619 1125 l 476 1125 l 332 1328 z "},"ẁ":{"ha":833,"x_min":68,"x_max":854,"o":"m 68 0 l 75 764 l 183 764 l 178 268 q 177 223 178 254 q 175 160 176 192 q 172 79 174 122 l 186 79 q 204 153 196 118 q 219 217 211 185 q 233 268 228 249 l 375 764 l 529 764 l 533 267 q 535 224 535 254 q 533 161 535 193 q 533 81 533 124 l 547 81 q 565 154 557 118 q 581 215 572 183 q 596 268 589 247 l 735 764 l 854 764 l 625 0 l 440 0 l 433 515 q 434 551 433 526 q 436 604 435 576 q 439 672 438 635 l 426 672 q 418 614 422 643 q 408 563 414 590 q 396 514 403 535 l 249 0 l 68 0 m 332 1106 l 504 1106 l 619 903 l 476 903 l 332 1106 z "},"Ẃ":{"ha":833,"x_min":58,"x_max":894,"o":"m 58 0 l 117 1000 l 240 1000 l 188 292 q 182 235 186 268 q 174 169 178 201 q 164 97 169 135 l 179 97 q 196 169 188 135 q 211 235 203 201 q 226 292 219 268 l 429 1000 l 585 1000 l 558 292 q 555 235 557 268 q 550 171 553 201 q 544 97 547 135 l 560 97 q 574 169 567 135 q 587 235 581 201 q 599 292 593 268 l 771 1000 l 894 1000 l 633 0 l 447 0 l 478 701 q 484 772 481 738 q 490 836 488 807 q 500 900 494 869 l 483 900 q 472 836 479 869 q 460 772 467 807 q 442 701 453 738 l 242 0 l 58 0 m 510 1359 l 338 1377 l 222 1187 l 365 1171 l 510 1359 z "},"ẃ":{"ha":833,"x_min":68,"x_max":854,"o":"m 68 0 l 75 764 l 183 764 l 178 268 q 177 223 178 254 q 175 160 176 192 q 172 79 174 122 l 186 79 q 204 153 196 118 q 219 217 211 185 q 233 268 228 249 l 375 764 l 529 764 l 533 267 q 535 224 535 254 q 533 161 535 193 q 533 81 533 124 l 547 81 q 565 154 557 118 q 581 215 572 183 q 596 268 589 247 l 735 764 l 854 764 l 625 0 l 440 0 l 433 515 q 434 551 433 526 q 436 604 435 576 q 439 672 438 635 l 426 672 q 418 614 422 643 q 408 563 414 590 q 396 514 403 535 l 249 0 l 68 0 m 510 1137 l 338 1155 l 222 964 l 365 949 l 510 1137 z "},"Ẅ":{"ha":833,"x_min":58,"x_max":894,"o":"m 58 0 l 117 1000 l 240 1000 l 188 292 q 182 235 186 268 q 174 169 178 201 q 164 97 169 135 l 179 97 q 196 169 188 135 q 211 235 203 201 q 226 292 219 268 l 429 1000 l 585 1000 l 558 292 q 555 235 557 268 q 550 171 553 201 q 544 97 547 135 l 560 97 q 574 169 567 135 q 587 235 581 201 q 599 292 593 268 l 771 1000 l 894 1000 l 633 0 l 447 0 l 478 701 q 484 772 481 738 q 490 836 488 807 q 500 900 494 869 l 483 900 q 472 836 479 869 q 460 772 467 807 q 442 701 453 738 l 242 0 l 58 0 m 304 1231 q 340 1292 311 1269 q 408 1315 368 1315 q 470 1292 449 1315 q 485 1231 492 1269 q 449 1167 478 1190 q 381 1143 421 1143 q 319 1167 340 1143 q 304 1231 297 1190 m 586 1231 q 622 1292 593 1269 q 692 1315 651 1315 q 753 1292 732 1315 q 767 1231 774 1269 q 731 1167 760 1190 q 663 1143 703 1143 q 601 1167 622 1143 q 586 1231 579 1190 z "},"ẅ":{"ha":833,"x_min":68,"x_max":854,"o":"m 68 0 l 75 764 l 183 764 l 178 268 q 177 223 178 254 q 175 160 176 192 q 172 79 174 122 l 186 79 q 204 153 196 118 q 219 217 211 185 q 233 268 228 249 l 375 764 l 529 764 l 533 267 q 535 224 535 254 q 533 161 535 193 q 533 81 533 124 l 547 81 q 565 154 557 118 q 581 215 572 183 q 596 268 589 247 l 735 764 l 854 764 l 625 0 l 440 0 l 433 515 q 434 551 433 526 q 436 604 435 576 q 439 672 438 635 l 426 672 q 418 614 422 643 q 408 563 414 590 q 396 514 403 535 l 249 0 l 68 0 m 304 1008 q 340 1070 311 1047 q 408 1093 368 1093 q 470 1070 449 1093 q 485 1008 492 1047 q 449 944 478 968 q 381 921 421 921 q 319 944 340 921 q 304 1008 297 968 m 586 1008 q 622 1070 593 1047 q 692 1093 651 1093 q 753 1070 732 1093 q 767 1008 774 1047 q 731 944 760 968 q 663 921 703 921 q 601 944 622 921 q 586 1008 579 968 z "},"Ŀ":{"ha":833,"x_min":100,"x_max":726,"o":"m 411 1000 l 275 140 l 726 140 l 704 0 l 100 0 l 258 1000 l 411 1000 m 451 488 q 501 581 461 546 q 600 617 542 617 q 688 581 658 617 q 707 488 717 546 q 656 393 697 429 q 557 357 615 357 q 469 393 499 357 q 451 488 440 429 z "},"ŀ":{"ha":833,"x_min":76,"x_max":796,"o":"m 529 488 q 579 581 539 546 q 678 617 619 617 q 765 581 736 617 q 785 488 794 546 q 734 393 775 429 q 635 357 693 357 q 547 393 576 357 q 529 488 518 429 m 499 1014 l 375 236 q 389 165 368 190 q 454 139 410 139 l 682 139 l 660 0 l 425 0 q 258 63 313 0 q 222 236 204 126 l 324 876 l 76 876 l 99 1014 l 499 1014 z "},"°":{"ha":833,"x_min":238,"x_max":683,"o":"m 253 826 q 333 973 267 918 q 493 1028 399 1028 q 635 973 588 1028 q 669 826 683 918 q 589 680 654 735 q 429 625 524 625 q 286 680 335 625 q 253 826 238 735 m 343 826 q 360 737 333 771 q 440 703 388 703 q 532 737 494 703 q 579 826 569 771 q 560 917 588 883 q 479 951 533 951 q 389 917 426 951 q 343 826 351 883 z "},"ț":{"ha":833,"x_min":101,"x_max":785,"o":"m 124 764 l 339 764 l 376 1000 l 529 1000 l 492 764 l 785 764 l 764 626 l 469 626 l 406 219 q 418 160 399 182 q 478 139 438 139 l 672 139 l 650 0 l 449 0 q 290 60 342 0 q 253 219 238 119 l 317 626 l 101 626 l 124 764 m 497 -131 l 333 -333 l 192 -333 l 319 -131 l 497 -131 z "},"Ļ":{"ha":833,"x_min":100,"x_max":726,"o":"m 411 1000 l 275 140 l 726 140 l 704 0 l 100 0 l 258 1000 l 411 1000 m 497 -131 l 333 -333 l 192 -333 l 319 -131 l 497 -131 z "},"ș":{"ha":833,"x_min":56,"x_max":750,"o":"m 319 -14 q 126 41 196 -14 q 58 192 56 96 l 208 192 q 247 132 211 154 q 339 110 282 110 l 388 110 q 499 138 457 110 q 549 214 542 165 q 444 317 564 300 l 335 332 q 132 556 100 361 q 231 719 149 661 q 449 778 314 778 l 499 778 q 683 725 617 778 q 749 579 750 672 l 597 579 q 563 634 594 614 q 479 654 532 654 l 429 654 q 326 630 365 654 q 279 557 288 606 q 374 463 267 476 l 485 447 q 699 218 731 414 q 595 46 681 106 q 368 -14 510 -14 l 319 -14 m 488 -131 l 324 -333 l 182 -333 l 310 -131 l 488 -131 z "},"ņ":{"ha":833,"x_min":40,"x_max":742,"o":"m 40 0 l 161 764 l 306 764 l 285 632 l 297 632 q 382 740 322 701 q 525 778 442 778 q 624 758 581 778 q 694 701 667 738 q 731 613 721 664 q 732 499 742 561 l 653 0 l 501 0 l 578 482 q 557 604 589 561 q 454 647 525 647 q 335 606 383 647 q 271 493 286 565 l 193 0 l 40 0 m 488 -131 l 324 -333 l 182 -333 l 310 -131 l 488 -131 z "},"Ț":{"ha":833,"x_min":125,"x_max":864,"o":"m 125 863 l 147 1000 l 864 1000 l 843 863 l 561 863 l 425 0 l 269 0 l 407 863 l 125 863 m 497 -131 l 333 -333 l 192 -333 l 319 -131 l 497 -131 z "},"Ņ":{"ha":833,"x_min":36,"x_max":817,"o":"m 194 1000 l 385 1000 l 529 333 q 538 279 535 310 q 543 221 540 249 q 547 153 546 188 l 561 153 q 562 171 561 153 q 564 218 563 189 q 568 283 565 247 q 576 356 571 319 l 678 1000 l 817 1000 l 658 0 l 469 0 l 328 668 q 318 728 321 696 q 313 786 315 760 q 308 849 310 818 l 294 849 q 293 788 294 819 q 288 724 290 760 q 278 647 285 688 l 175 0 l 36 0 l 194 1000 m 497 -131 l 333 -333 l 192 -333 l 319 -131 l 497 -131 z "},"Ķ":{"ha":833,"x_min":44,"x_max":878,"o":"m 203 1000 l 356 1000 l 289 586 l 432 586 l 706 1000 l 878 1000 l 556 513 l 732 0 l 565 0 l 417 450 l 268 450 l 197 0 l 44 0 l 203 1000 m 497 -131 l 333 -333 l 192 -333 l 319 -131 l 497 -131 z "},"ķ":{"ha":833,"x_min":49,"x_max":839,"o":"m 49 0 l 210 1014 l 363 1014 l 274 454 l 407 454 l 664 764 l 839 764 l 526 386 l 722 0 l 547 0 l 388 322 l 253 322 l 201 0 l 49 0 m 497 -131 l 333 -333 l 192 -333 l 319 -131 l 497 -131 z "},"Ģ":{"ha":833,"x_min":63,"x_max":790,"o":"m 411 528 l 751 528 l 714 289 q 672 163 703 219 q 592 67 640 107 q 481 7 544 28 q 344 -14 418 -14 q 217 8 272 -14 q 126 69 161 29 q 76 165 90 108 q 72 289 63 221 l 140 711 q 183 835 151 781 q 261 930 214 890 q 371 990 308 969 q 507 1011 433 1011 q 715 943 642 1011 q 790 749 789 875 l 636 749 q 595 841 635 807 q 486 875 556 875 q 356 831 408 875 q 292 711 304 788 l 225 289 q 251 165 213 210 q 367 121 289 121 q 497 165 444 121 q 561 289 549 210 l 578 394 l 390 394 l 411 528 m 497 -131 l 333 -333 l 192 -333 l 319 -131 l 497 -131 z "},"ĺ":{"ha":833,"x_min":118,"x_max":724,"o":"m 540 1014 l 417 236 q 431 165 410 190 q 496 139 451 139 l 724 139 l 701 0 l 467 0 q 300 63 354 0 q 264 236 246 126 l 365 876 l 118 876 l 140 1014 l 540 1014 m 510 1363 l 338 1381 l 222 1191 l 365 1176 l 510 1363 z "},"ļ":{"ha":833,"x_min":118,"x_max":724,"o":"m 540 1014 l 417 236 q 431 165 410 190 q 496 139 451 139 l 724 139 l 701 0 l 467 0 q 300 63 354 0 q 264 236 246 126 l 365 876 l 118 876 l 140 1014 l 540 1014 m 497 -131 l 333 -333 l 192 -333 l 319 -131 l 497 -131 z "},"ŗ":{"ha":833,"x_min":72,"x_max":797,"o":"m 72 0 l 193 764 l 336 764 l 315 632 l 326 632 q 415 740 353 701 q 563 778 478 778 q 741 701 685 778 q 776 492 797 624 l 768 438 l 613 438 l 619 476 q 596 603 632 557 q 485 649 560 649 q 363 603 413 649 q 300 482 314 558 l 224 0 l 72 0 m 497 -131 l 333 -333 l 192 -333 l 319 -131 l 497 -131 z "},"Ŗ":{"ha":833,"x_min":44,"x_max":810,"o":"m 203 1000 l 526 1000 q 654 978 599 1000 q 745 919 710 957 q 795 826 781 881 q 799 704 810 771 q 720 528 782 600 q 564 426 658 456 l 701 0 l 536 0 l 413 407 l 261 407 l 196 0 l 44 0 l 203 1000 m 453 535 q 579 581 528 535 q 643 701 631 626 q 617 822 654 776 q 506 868 581 868 l 333 868 l 281 535 l 453 535 m 497 -131 l 333 -333 l 192 -333 l 319 -131 l 497 -131 z "},"Ľ":{"ha":833,"x_min":100,"x_max":831,"o":"m 411 1000 l 275 140 l 726 140 l 704 0 l 100 0 l 258 1000 l 411 1000 m 713 1099 l 540 1117 l 425 927 l 568 912 l 713 1099 z "},"ľ":{"ha":833,"x_min":118,"x_max":929,"o":"m 540 1014 l 417 236 q 431 165 410 190 q 496 139 451 139 l 724 139 l 701 0 l 467 0 q 300 63 354 0 q 264 236 246 126 l 365 876 l 118 876 l 140 1014 l 540 1014 m 810 1099 l 638 1117 l 522 927 l 665 912 l 810 1099 z "},"Ŧ":{"ha":833,"x_min":125,"x_max":864,"o":"m 125 863 l 147 1000 l 864 1000 l 843 863 l 561 863 l 425 0 l 269 0 l 407 863 l 125 863 m 249 558 l 628 558 l 607 429 l 228 429 l 249 558 z "},"ŧ":{"ha":833,"x_min":101,"x_max":785,"o":"m 124 764 l 339 764 l 376 1000 l 529 1000 l 492 764 l 785 764 l 764 626 l 469 626 l 406 219 q 418 160 399 182 q 478 139 438 139 l 672 139 l 650 0 l 449 0 q 290 60 342 0 q 253 219 238 119 l 317 626 l 101 626 l 124 764 m 178 468 l 557 468 l 536 339 l 157 339 l 178 468 z "},"ħ":{"ha":833,"x_min":42,"x_max":742,"o":"m 174 831 l 83 831 l 100 940 l 192 940 l 203 1014 l 354 1014 l 342 940 l 485 940 l 467 831 l 325 831 l 314 764 q 306 722 311 744 q 295 678 300 699 q 288 645 290 658 q 285 632 285 632 l 297 632 q 382 740 322 701 q 525 778 442 778 q 624 758 581 778 q 694 701 667 738 q 731 613 721 664 q 732 499 742 561 l 653 0 l 501 0 l 578 482 q 557 604 589 561 q 454 647 525 647 q 335 606 383 647 q 271 490 286 564 l 193 0 l 42 0 l 174 831 z "},"Ĺ":{"ha":833,"x_min":100,"x_max":726,"o":"m 411 1000 l 275 140 l 726 140 l 704 0 l 100 0 l 258 1000 l 411 1000 m 536 1314 l 350 1111 l 207 1111 l 365 1314 l 536 1314 z "},"©":{"ha":833,"x_min":49,"x_max":815,"o":"m 138 486 q 140 378 128 426 q 184 294 153 329 q 263 241 215 260 q 374 222 311 222 q 490 241 436 222 q 586 294 544 260 q 656 378 628 329 q 693 486 683 426 l 726 694 q 724 803 736 754 q 680 886 711 851 q 601 940 649 921 q 490 958 553 958 q 374 940 428 958 q 278 886 319 921 q 208 803 236 851 q 171 694 181 754 l 138 486 m 94 694 q 142 831 107 769 q 230 937 176 893 q 353 1004 283 981 q 501 1028 422 1028 q 642 1004 581 1028 q 744 937 704 981 q 799 831 783 893 q 803 694 815 769 l 769 486 q 722 350 757 411 q 634 245 688 289 q 511 177 581 201 q 363 153 442 153 q 222 177 283 153 q 120 245 160 201 q 65 350 81 289 q 61 486 49 411 l 94 694 m 347 504 q 359 447 340 468 q 414 426 378 426 q 465 442 442 426 q 500 482 488 458 l 599 482 q 519 377 571 414 q 400 340 467 340 q 278 385 319 340 q 247 504 236 429 l 275 676 q 342 796 286 751 q 479 840 399 840 q 588 803 547 840 q 633 699 628 767 l 533 699 q 512 740 531 725 q 465 754 493 754 q 405 733 429 754 q 374 676 381 713 l 347 504 z "},"®":{"ha":833,"x_min":42,"x_max":808,"o":"m 356 153 q 215 177 276 153 q 113 245 153 201 q 58 350 74 289 q 54 486 42 411 l 88 694 q 135 831 100 769 q 223 937 169 893 q 346 1004 276 981 q 494 1028 415 1028 q 635 1004 574 1028 q 737 937 697 981 q 792 831 776 893 q 796 694 808 769 l 763 486 q 715 350 750 411 q 627 245 681 289 q 504 177 574 201 q 356 153 435 153 m 131 486 q 133 378 121 426 q 177 294 146 329 q 256 241 208 260 q 367 222 304 222 q 483 241 429 222 q 579 294 538 260 q 649 378 621 329 q 686 486 676 426 l 719 694 q 717 803 729 754 q 673 886 704 851 q 594 940 642 921 q 483 958 546 958 q 367 940 421 958 q 271 886 313 921 q 201 803 229 851 q 164 694 174 754 l 131 486 m 232 347 l 308 833 l 472 833 q 588 793 549 833 q 615 685 626 753 q 581 607 608 640 q 514 556 554 574 l 571 347 l 472 347 l 424 539 l 354 539 l 325 347 l 232 347 m 367 615 l 438 615 q 494 635 472 615 q 522 688 517 654 q 511 740 528 721 q 460 760 494 760 l 390 760 l 367 615 z "},"¡":{"ha":833,"x_min":244,"x_max":594,"o":"m 411 -229 l 244 -229 l 281 -7 l 385 458 l 489 458 l 446 -7 l 411 -229 m 476 601 l 444 601 q 379 626 401 601 q 364 690 357 650 q 401 754 371 731 q 475 778 431 778 l 506 778 q 572 754 549 778 q 588 690 594 731 q 550 626 581 650 q 476 601 519 601 z "},"¿":{"ha":833,"x_min":90,"x_max":644,"o":"m 526 601 l 493 601 q 429 626 450 601 q 415 690 408 650 q 453 754 422 731 q 528 778 483 778 l 558 778 q 623 754 601 778 q 638 690 644 731 q 600 626 631 650 q 526 601 569 601 m 101 74 q 201 267 119 196 q 413 343 283 339 l 433 476 l 575 476 l 535 211 l 442 211 q 311 172 363 211 q 249 63 260 133 q 277 -47 238 -8 q 397 -86 317 -86 l 589 -86 l 565 -229 l 378 -229 q 247 -208 304 -229 q 154 -147 190 -186 q 104 -51 118 -107 q 101 74 90 6 z "},"ŉ":{"ha":833,"x_min":18,"x_max":742,"o":"m 40 0 l 161 764 l 306 764 l 285 632 l 297 632 q 382 740 322 701 q 525 778 442 778 q 624 758 581 778 q 694 701 667 738 q 731 613 721 664 q 732 499 742 561 l 653 0 l 501 0 l 578 482 q 557 604 589 561 q 454 647 525 647 q 335 606 383 647 q 271 493 286 565 l 193 0 l 40 0 m 324 1018 l 160 815 l 18 815 l 146 1018 l 324 1018 z "},"Ș":{"ha":833,"x_min":50,"x_max":789,"o":"m 344 -14 q 216 6 272 -14 q 122 63 160 26 q 67 149 85 99 q 58 261 50 200 l 215 261 q 249 160 207 199 q 369 121 292 121 q 504 157 453 121 q 567 257 556 193 q 547 357 575 314 q 458 421 518 400 l 358 456 q 194 567 246 492 q 157 742 142 642 q 271 942 178 871 q 513 1014 364 1014 q 634 994 581 1014 q 723 940 688 975 q 774 855 758 904 q 782 744 789 806 l 625 744 q 595 843 633 806 q 489 881 557 881 q 369 846 415 881 q 313 750 322 811 q 331 659 304 697 q 418 600 357 621 l 524 565 q 687 451 636 529 q 719 265 738 374 q 679 149 710 200 q 600 61 649 97 q 487 6 551 25 q 344 -14 422 -14 m 497 -131 l 333 -333 l 192 -333 l 319 -131 l 497 -131 z "},"Þ":{"ha":833,"x_min":46,"x_max":797,"o":"m 199 0 l 46 0 l 204 1000 l 357 1000 l 326 806 l 524 806 q 648 785 594 806 q 736 728 701 765 q 784 639 771 692 q 786 521 797 586 q 747 403 776 456 q 671 313 717 350 q 565 256 625 276 q 433 236 504 236 l 236 236 l 199 0 m 443 368 q 570 408 521 368 q 631 521 619 449 q 605 633 642 593 q 492 674 568 674 l 306 674 l 257 368 l 443 368 z "},"ȷ":{"ha":833,"x_min":15,"x_max":674,"o":"m 500 624 l 186 624 l 210 764 l 674 764 l 565 74 q 523 -49 554 7 q 444 -145 492 -106 q 335 -207 396 -185 q 204 -229 274 -229 l 15 -229 l 38 -87 l 222 -87 q 349 -43 297 -87 q 413 74 401 1 l 500 624 z "},"Ţ":{"ha":833,"x_min":125,"x_max":864,"o":"m 125 863 l 147 1000 l 864 1000 l 843 863 l 561 863 l 425 0 l 269 0 l 407 863 l 125 863 m 328 36 l 417 36 l 367 -49 q 453 -68 415 -53 q 483 -83 468 -74 q 508 -103 497 -92 q 524 -131 519 -115 q 526 -167 529 -147 q 466 -244 519 -214 q 333 -274 413 -274 q 273 -273 297 -274 q 233 -271 249 -272 q 206 -267 215 -268 l 218 -186 q 244 -189 229 -187 q 276 -191 257 -190 q 319 -192 296 -192 q 369 -181 349 -192 q 392 -153 389 -171 q 359 -110 396 -125 q 251 -94 322 -94 l 328 36 z "},"ţ":{"ha":833,"x_min":101,"x_max":785,"o":"m 124 764 l 339 764 l 376 1000 l 529 1000 l 492 764 l 785 764 l 764 626 l 469 626 l 406 219 q 418 160 399 182 q 478 139 438 139 l 672 139 l 650 0 l 449 0 q 290 60 342 0 q 253 219 238 119 l 317 626 l 101 626 l 124 764 m 425 36 l 514 36 l 464 -49 q 550 -68 513 -53 q 580 -83 565 -74 q 606 -103 594 -92 q 622 -131 617 -115 q 624 -167 626 -147 q 563 -244 617 -214 q 431 -274 510 -274 q 370 -273 394 -274 q 331 -271 346 -272 q 303 -267 313 -268 l 315 -186 q 342 -189 326 -187 q 374 -191 354 -190 q 417 -192 393 -192 q 466 -181 446 -192 q 489 -153 486 -171 q 456 -110 493 -125 q 349 -94 419 -94 l 425 36 z "},"đ":{"ha":833,"x_min":63,"x_max":890,"o":"m 74 288 l 103 479 q 142 601 114 546 q 210 696 169 657 q 301 756 250 735 q 411 778 353 778 q 542 739 494 778 q 594 632 590 700 l 606 632 q 607 654 606 639 q 610 689 608 669 q 615 728 613 708 q 619 764 618 749 l 629 826 l 494 826 l 511 938 l 647 938 l 660 1014 l 810 1014 l 797 938 l 890 938 l 874 826 l 781 826 l 650 0 l 506 0 l 526 132 l 515 132 q 428 26 489 65 q 286 -14 368 -14 q 183 8 228 -14 q 110 69 139 29 q 72 164 82 108 q 74 288 63 219 m 356 119 q 478 162 428 119 q 543 276 528 204 l 578 493 q 548 605 585 564 q 443 646 511 646 q 317 601 367 646 q 254 476 267 556 l 224 289 q 246 165 211 210 q 356 119 281 119 z "},"ģ":{"ha":833,"x_min":67,"x_max":774,"o":"m 293 65 q 188 86 233 65 q 115 145 143 107 q 76 238 86 183 q 76 360 67 293 l 96 483 q 134 605 107 550 q 201 698 161 660 q 294 757 242 736 q 406 778 346 778 q 540 738 490 778 q 596 625 590 697 l 606 625 l 628 764 l 774 764 l 660 50 q 620 -67 650 -15 q 544 -154 590 -118 q 438 -210 499 -190 q 306 -229 378 -229 l 108 -229 l 129 -99 l 326 -99 q 449 -59 401 -99 q 508 50 497 -19 l 511 72 l 540 218 l 532 218 q 440 106 504 146 q 293 65 376 65 m 232 361 q 256 241 219 285 q 368 197 293 197 q 495 242 444 197 q 557 361 546 286 l 578 492 q 550 605 586 564 q 439 646 514 646 q 313 602 364 646 q 250 482 263 558 l 232 361 m 336 942 l 500 1144 l 642 1144 l 514 942 l 336 942 z "},"Ħ":{"ha":833,"x_min":44,"x_max":843,"o":"m 203 1000 l 356 1000 l 331 843 l 628 843 l 653 1000 l 806 1000 l 781 843 l 843 843 l 824 722 l 761 722 l 647 0 l 494 0 l 565 450 l 268 450 l 197 0 l 44 0 l 158 722 l 97 722 l 117 843 l 178 843 l 203 1000 m 311 722 l 290 590 l 588 590 l 608 722 l 311 722 z "},"Ĵ":{"ha":833,"x_min":19,"x_max":794,"o":"m 325 119 q 460 166 406 119 q 528 290 515 213 l 618 863 l 247 863 l 269 1000 l 793 1000 l 681 290 q 638 163 669 219 q 557 67 606 107 q 444 7 508 28 q 303 -14 379 -14 q 183 6 236 -14 q 94 60 131 25 q 38 147 57 96 q 22 260 19 197 l 175 260 q 215 158 174 197 q 325 119 256 119 m 519 1326 l 663 1326 l 794 1125 l 676 1125 l 617 1204 q 590 1240 596 1232 q 585 1251 586 1247 l 581 1251 q 571 1242 576 1247 q 556 1228 565 1236 q 533 1206 547 1219 l 446 1125 l 318 1125 l 519 1326 z "},"ĵ":{"ha":833,"x_min":15,"x_max":763,"o":"m 486 1104 l 629 1104 l 761 903 l 643 903 l 583 982 q 557 1018 563 1010 q 551 1029 553 1025 l 547 1029 q 538 1019 543 1025 q 523 1006 532 1014 q 500 983 514 997 l 413 903 l 285 903 l 486 1104 m 500 624 l 186 624 l 210 764 l 674 764 l 565 74 q 523 -49 554 7 q 444 -145 492 -106 q 335 -207 396 -185 q 204 -229 274 -229 l 15 -229 l 38 -87 l 222 -87 q 349 -43 297 -87 q 413 74 401 1 l 500 624 z "},"ť":{"ha":833,"x_min":101,"x_max":810,"o":"m 101 626 l 124 764 l 339 764 l 376 1000 l 529 1000 l 492 764 l 785 764 l 764 626 l 469 626 l 406 219 q 418 160 399 182 q 478 139 438 139 l 672 139 l 650 0 l 449 0 q 290 60 342 0 q 253 219 238 119 l 317 626 l 101 626 m 614 847 l 681 1050 l 810 1050 l 715 847 l 614 847 z "},"…":{"ha":833,"x_min":57,"x_max":764,"o":"m 78 160 q 108 218 85 196 q 167 240 132 240 q 219 218 201 240 q 231 160 236 196 l 215 67 q 185 8 210 31 q 126 -14 161 -14 q 74 8 92 -14 q 63 67 57 31 l 78 160 m 342 160 q 372 218 349 196 q 431 240 396 240 q 483 218 465 240 q 494 160 500 196 l 479 67 q 449 8 474 31 q 390 -14 425 -14 q 338 8 356 -14 q 326 67 321 31 l 342 160 m 606 160 q 636 218 613 196 q 694 240 660 240 q 747 218 729 240 q 758 160 764 196 l 743 67 q 713 8 738 31 q 654 -14 689 -14 q 602 8 619 -14 q 590 67 585 31 l 606 160 z "},"¶":{"ha":833,"x_min":110,"x_max":801,"o":"m 344 417 q 239 433 285 417 q 163 481 193 450 q 122 556 133 513 q 118 653 110 600 l 135 764 q 169 860 143 817 q 234 935 194 904 q 325 983 274 967 q 436 1000 376 1000 l 801 1000 l 643 0 l 518 0 l 660 888 l 543 888 l 403 0 l 278 0 l 344 417 z "},"µ":{"ha":833,"x_min":8,"x_max":771,"o":"m 8 -229 l 165 764 l 318 764 l 240 279 q 258 160 229 201 q 365 119 288 119 q 542 279 517 119 l 619 764 l 771 764 l 694 279 q 585 63 672 140 q 360 -14 499 -14 q 255 4 293 -14 q 197 43 217 22 q 167 100 174 68 l 158 100 q 162 88 160 100 q 165 58 164 76 q 168 19 167 40 q 168 -18 169 -1 l 154 -229 l 8 -229 z "},"Œ":{"ha":833,"x_min":0,"x_max":888,"o":"m 465 746 q 453 846 476 810 q 376 882 429 882 q 290 846 325 882 q 246 746 256 810 l 168 257 q 181 157 157 193 q 256 121 204 121 q 342 157 308 121 q 388 257 376 193 l 465 746 m 368 114 l 361 114 q 325 51 349 79 q 272 8 306 28 q 189 -11 239 -11 q 44 60 89 -11 q 19 257 0 131 l 97 746 q 184 943 117 872 q 350 1014 251 1014 q 428 994 401 1014 q 467 951 456 975 q 483 889 482 924 l 490 889 l 508 1000 l 888 1000 l 867 867 l 628 867 l 583 582 l 786 582 l 765 447 l 561 447 l 513 135 l 750 135 l 729 0 l 350 0 l 368 114 z "},"œ":{"ha":833,"x_min":-4,"x_max":819,"o":"m 358 97 q 325 42 347 67 q 271 3 306 21 q 178 -14 236 -14 q 40 43 83 -14 q 11 204 -4 100 l 68 560 q 147 721 85 664 q 304 778 210 778 q 390 760 361 778 q 433 722 419 743 q 449 667 449 697 l 457 667 q 490 722 468 697 q 545 760 510 743 q 638 778 581 778 q 776 720 732 778 q 804 560 819 663 l 771 347 l 468 347 l 446 204 q 458 131 439 158 q 514 103 476 103 q 571 122 546 103 q 607 174 596 142 l 739 174 q 650 36 711 86 q 511 -14 589 -14 q 425 3 454 -14 q 383 42 396 21 q 367 97 368 67 l 358 97 m 656 451 l 672 560 q 661 633 679 606 q 603 661 643 661 q 536 633 563 661 q 503 560 510 606 l 485 451 l 656 451 m 143 204 q 155 130 136 157 q 214 103 174 103 q 280 130 253 103 q 314 204 307 157 l 369 560 q 359 634 376 607 q 303 661 342 661 q 235 634 263 661 q 200 560 207 607 l 143 204 z "},"Æ":{"ha":833,"x_min":-42,"x_max":883,"o":"m 313 986 l 883 986 l 863 853 l 619 853 l 575 575 l 783 575 l 763 440 l 554 440 l 506 135 l 749 135 l 726 0 l 340 0 l 382 265 l 197 265 l 106 0 l -42 0 l 313 986 m 238 382 l 401 382 l 476 853 l 401 853 l 238 382 z "},"æ":{"ha":833,"x_min":-4,"x_max":821,"o":"m 11 185 l 22 264 q 104 403 38 351 q 271 454 171 454 l 360 454 l 376 560 q 310 661 393 661 q 215 578 235 661 l 83 578 q 167 726 110 674 q 306 778 225 778 q 392 760 363 778 q 435 722 421 743 q 451 667 450 697 l 458 667 q 499 722 474 697 q 556 760 521 743 q 639 778 590 778 q 776 719 732 778 q 806 560 821 660 l 774 351 l 471 351 l 447 204 q 459 131 440 158 q 515 103 478 103 q 572 122 547 103 q 608 174 597 142 l 740 174 q 653 36 713 86 q 514 -14 593 -14 q 427 3 457 -14 q 385 42 397 21 q 368 97 369 67 l 361 97 q 324 42 349 67 q 265 3 303 21 q 167 -14 228 -14 q 38 40 81 -14 q 11 185 -4 94 m 217 103 q 285 130 257 103 q 319 204 313 157 l 343 351 l 257 351 q 192 328 217 351 q 160 264 167 304 l 147 185 q 159 124 140 146 q 217 103 178 103 m 657 454 l 674 560 q 663 633 681 606 q 604 661 644 661 q 538 633 564 661 q 504 560 511 606 l 488 454 l 657 454 z "},"ß":{"ha":833,"x_min":0,"x_max":783,"o":"m 121 765 q 157 867 129 821 q 227 945 185 913 q 323 996 269 978 q 438 1014 376 1014 l 529 1014 q 642 996 593 1014 q 724 945 692 978 q 769 867 757 913 q 774 765 782 821 l 754 643 l 618 643 q 492 554 504 643 q 560 461 479 478 l 604 450 q 742 368 700 429 q 768 213 783 307 q 677 47 751 107 q 493 -14 603 -14 q 331 40 389 -14 q 275 185 272 93 l 415 185 q 442 128 417 149 q 513 107 468 107 q 591 133 561 107 q 628 208 621 160 q 560 322 643 304 l 517 332 q 351 551 322 376 q 441 707 367 650 q 631 764 515 764 q 606 855 639 821 q 510 889 574 889 l 417 889 q 317 855 358 889 q 267 764 276 821 l 146 0 l 0 0 l 121 765 z "},"ð":{"ha":833,"x_min":51,"x_max":749,"o":"m 344 -10 q 212 13 269 -10 q 117 78 154 36 q 66 178 81 119 q 63 308 51 236 q 103 434 74 378 q 178 531 133 490 q 279 593 222 571 q 401 615 336 615 q 475 601 446 615 q 522 571 504 588 q 556 525 543 550 l 572 525 q 554 556 565 536 q 529 601 544 572 q 490 671 514 629 l 428 783 l 197 690 l 217 814 l 376 878 l 300 1014 l 478 1014 l 519 935 l 749 1026 l 729 904 l 569 840 l 642 706 q 724 497 703 593 q 731 314 744 400 q 686 182 719 242 q 602 79 653 122 q 485 13 551 36 q 344 -10 419 -10 m 215 308 q 243 173 201 224 q 365 122 285 122 q 506 173 449 122 q 576 308 564 224 q 549 442 590 392 q 425 493 507 493 q 286 442 343 493 q 215 308 229 392 z "},"¬":{"ha":833,"x_min":100,"x_max":761,"o":"m 122 593 l 761 593 l 710 271 l 567 271 l 596 458 l 100 458 l 122 593 z "},"™":{"ha":833,"x_min":78,"x_max":851,"o":"m 417 514 l 497 1014 l 608 1014 l 632 872 q 635 842 635 858 q 636 811 636 826 q 635 778 636 794 l 643 778 q 653 811 647 794 q 662 842 657 826 q 674 872 667 858 l 743 1014 l 851 1014 l 771 514 l 694 514 l 750 863 q 757 891 753 875 q 765 922 761 907 q 775 958 769 940 l 763 958 q 750 922 757 939 q 739 890 744 907 q 728 861 733 874 l 663 708 l 590 708 l 569 863 q 567 891 568 875 q 565 922 567 907 q 564 958 564 940 l 553 958 q 553 922 553 940 q 552 891 553 907 q 549 863 551 875 l 493 514 l 417 514 m 78 944 l 89 1014 l 450 1014 l 439 944 l 300 944 l 231 514 l 147 514 l 217 944 l 78 944 z "},"ƒ":{"ha":833,"x_min":-18,"x_max":838,"o":"m 3 -90 l 76 -90 q 181 -58 142 -90 q 232 38 221 -25 l 313 550 l 93 550 l 115 688 l 335 688 l 353 804 q 436 958 368 901 q 608 1014 504 1014 l 838 1014 l 817 878 l 596 878 q 535 859 558 878 q 504 804 511 840 l 486 688 l 789 688 l 767 550 l 464 550 l 383 38 q 278 -160 364 -90 q 53 -229 192 -229 l -18 -229 l 3 -90 z "},"§":{"ha":833,"x_min":21,"x_max":792,"o":"m 21 -12 l 178 -12 q 219 -78 183 -53 q 310 -103 256 -103 l 351 -103 q 470 -72 426 -103 q 522 8 514 -42 q 410 124 535 99 l 300 147 q 138 231 193 169 q 96 375 82 292 q 167 509 108 456 q 311 569 226 563 l 313 579 q 226 610 263 586 q 174 672 196 631 q 164 785 153 713 q 267 952 181 890 q 490 1014 353 1014 l 532 1014 q 722 959 653 1014 q 790 810 792 904 l 633 810 q 598 866 631 844 q 513 888 565 888 l 471 888 q 363 860 404 888 q 315 785 322 832 q 335 715 308 744 q 419 674 361 685 l 531 650 q 694 563 639 626 q 736 417 749 500 q 664 283 724 336 q 517 228 604 231 l 515 218 q 606 186 568 211 q 662 123 639 164 q 674 8 685 82 q 566 -165 656 -101 q 332 -228 476 -228 l 290 -228 q 178 -212 228 -228 q 92 -169 128 -197 q 39 -102 57 -142 q 21 -12 21 -62 m 250 404 q 264 317 243 353 q 329 272 285 281 l 422 253 q 435 251 429 251 q 446 250 440 250 q 534 292 497 250 q 582 396 571 333 q 565 479 589 444 q 496 525 542 514 l 406 544 q 383 547 392 547 q 297 507 333 547 q 250 404 261 467 z "},"¤":{"ha":833,"x_min":13,"x_max":814,"o":"m 100 769 l 201 857 l 304 735 q 457 774 375 774 q 603 731 543 774 l 740 849 l 814 761 l 676 643 q 695 573 690 611 q 693 493 700 535 q 626 340 681 407 l 728 219 l 626 132 l 525 253 q 449 223 489 233 q 368 213 410 213 q 226 253 283 213 l 86 132 l 13 219 l 151 339 q 131 493 118 404 q 156 577 138 538 q 200 650 174 617 l 100 769 m 385 314 q 522 363 465 314 q 590 493 578 413 q 563 623 603 574 q 442 672 522 672 q 303 623 361 672 q 233 493 246 574 q 263 363 221 413 q 385 314 304 314 z "},"¢":{"ha":833,"x_min":65,"x_max":761,"o":"m 276 -7 q 118 92 171 15 q 85 285 65 168 l 115 479 q 209 676 135 600 q 400 771 283 751 l 419 889 l 571 889 l 553 771 q 705 682 649 750 q 761 514 761 614 l 608 514 q 567 608 608 572 q 460 644 526 644 q 329 601 381 644 q 267 479 278 557 l 235 285 q 261 165 224 208 q 376 121 299 121 q 497 155 447 121 q 567 250 547 189 l 719 250 q 612 76 688 142 q 429 -8 536 10 l 411 -126 l 258 -126 l 276 -7 z "},"£":{"ha":833,"x_min":35,"x_max":790,"o":"m 35 0 l 61 167 q 144 215 107 189 q 205 269 176 239 q 239 335 233 299 q 243 385 243 363 l 92 385 l 111 514 l 213 514 q 187 563 200 539 q 164 612 174 586 q 150 667 154 638 q 151 732 146 696 q 190 844 161 794 q 265 928 219 893 q 372 981 311 963 q 506 1000 433 1000 q 719 928 647 1000 q 775 731 790 857 l 618 731 q 590 830 626 793 q 482 867 553 867 q 362 830 408 867 q 304 728 315 793 q 304 663 299 690 q 321 612 310 636 q 347 565 332 588 q 372 514 361 542 l 617 514 l 596 385 l 390 385 q 386 347 389 368 q 343 244 376 285 q 274 181 310 204 q 182 139 232 153 l 696 139 l 674 0 l 35 0 z "},"¥":{"ha":833,"x_min":39,"x_max":888,"o":"m 449 157 l 424 0 l 271 0 l 296 157 l 39 157 l 57 275 l 314 275 l 329 371 l 72 371 l 92 489 l 290 489 l 124 1000 l 282 1000 l 408 611 q 418 572 415 592 q 424 535 421 551 q 425 500 425 517 l 431 500 q 444 535 436 517 q 461 572 451 551 q 482 611 471 592 l 725 1000 l 888 1000 l 558 489 l 758 489 l 739 371 l 482 371 l 467 275 l 724 275 l 706 157 l 449 157 z "},"ª":{"ha":833,"x_min":272,"x_max":664,"o":"m 281 746 q 335 832 289 800 q 450 864 381 864 l 567 864 l 572 903 q 557 947 576 931 q 500 963 538 963 q 443 949 468 963 q 411 914 418 936 l 328 914 q 393 997 344 967 q 511 1028 442 1028 q 625 994 586 1028 q 656 903 664 961 l 613 632 l 533 632 l 546 708 l 542 708 q 482 647 519 669 q 399 625 444 625 q 304 658 336 625 q 281 746 272 690 m 432 686 q 513 708 481 686 q 551 771 544 731 l 557 804 l 440 804 q 388 789 408 804 q 364 746 368 774 q 378 702 360 718 q 432 686 396 686 z "},"º":{"ha":833,"x_min":276,"x_max":651,"o":"m 371 771 q 384 710 364 733 q 443 688 404 688 q 509 710 482 688 q 542 771 536 733 l 557 868 q 544 928 564 906 q 485 951 524 951 q 419 928 446 951 q 386 868 393 906 l 371 771 m 625 771 q 561 660 614 701 q 432 618 508 618 q 317 660 357 618 q 288 771 276 703 l 303 868 q 367 979 314 938 q 496 1021 419 1021 q 612 979 572 1021 q 640 868 651 938 l 625 771 z "},"¹":{"ha":833,"x_min":253,"x_max":674,"o":"m 267 692 l 428 692 l 465 922 q 477 972 471 956 q 483 990 483 989 l 476 990 q 460 975 469 983 q 419 943 443 961 l 322 871 l 340 981 l 453 1063 l 585 1063 l 525 692 l 674 692 l 660 611 l 253 611 l 267 692 z "},"²":{"ha":833,"x_min":226,"x_max":642,"o":"m 631 918 q 588 830 624 874 q 485 753 553 786 l 360 693 l 358 681 q 389 686 372 683 q 420 690 403 689 q 456 692 438 692 l 603 692 l 589 611 l 226 611 l 243 713 l 436 814 q 505 862 481 839 q 533 913 529 885 q 520 969 539 949 q 465 990 501 990 q 403 969 429 990 q 371 911 376 947 l 274 911 q 343 1026 288 982 q 478 1069 399 1069 q 600 1028 558 1069 q 631 918 642 986 z "},"³":{"ha":833,"x_min":242,"x_max":639,"o":"m 408 604 q 335 615 368 604 q 282 644 303 625 q 251 691 261 664 q 247 750 242 718 l 344 750 q 360 701 339 719 q 421 683 382 683 q 483 702 458 683 q 514 753 508 721 q 500 803 519 785 q 444 822 481 822 l 403 822 l 415 908 l 554 990 l 556 1000 q 525 993 542 996 q 492 988 511 990 q 451 986 474 986 l 319 986 l 332 1063 l 639 1063 l 625 974 l 540 915 q 518 903 531 908 q 494 894 506 899 q 589 849 557 888 q 611 753 621 811 q 546 644 600 683 q 408 604 492 604 z "},"⁰":{"ha":833,"x_min":260,"x_max":674,"o":"m 490 983 q 417 956 446 983 q 381 882 389 929 l 367 792 q 379 717 360 744 q 443 690 399 690 q 519 719 492 690 q 553 792 546 749 l 567 882 q 554 956 574 929 q 490 983 535 983 m 429 604 q 301 654 342 604 q 275 792 260 704 l 289 882 q 360 1019 303 969 q 504 1069 417 1069 q 633 1019 592 1069 q 658 882 674 969 l 644 792 q 574 654 631 704 q 429 604 517 604 z "},"⁴":{"ha":833,"x_min":268,"x_max":633,"o":"m 381 804 l 378 782 l 521 782 l 538 888 l 633 888 l 590 611 l 493 611 l 508 704 l 268 704 l 288 828 l 500 1063 l 610 1063 l 381 804 z "},"₀":{"ha":833,"x_min":260,"x_max":674,"o":"m 490 310 q 417 283 446 310 q 381 208 389 256 l 367 118 q 379 44 360 71 q 443 17 399 17 q 519 46 492 17 q 553 118 546 75 l 567 208 q 554 283 574 256 q 490 310 535 310 m 429 -69 q 301 -19 342 -69 q 275 118 260 31 l 289 208 q 360 346 303 296 q 504 396 417 396 q 633 346 592 396 q 658 208 674 296 l 644 118 q 574 -19 631 31 q 429 -69 517 -69 z "},"₁":{"ha":833,"x_min":253,"x_max":674,"o":"m 267 17 l 428 17 l 465 247 q 477 297 471 281 q 483 315 483 314 l 476 315 q 460 300 469 308 q 419 268 443 286 l 322 196 l 340 306 l 453 388 l 585 388 l 525 17 l 674 17 l 660 -64 l 253 -64 l 267 17 z "},"₂":{"ha":833,"x_min":226,"x_max":642,"o":"m 631 244 q 588 156 624 200 q 485 79 553 113 l 360 19 l 358 7 q 389 13 372 10 q 420 17 403 15 q 456 18 438 18 l 603 18 l 589 -62 l 226 -62 l 243 39 l 436 140 q 505 188 481 165 q 533 239 529 211 q 520 296 539 275 q 465 317 501 317 q 403 295 429 317 q 371 238 376 274 l 274 238 q 343 352 288 308 q 478 396 399 396 q 600 354 558 396 q 631 244 642 313 z "},"₃":{"ha":833,"x_min":242,"x_max":639,"o":"m 408 -69 q 335 -59 368 -69 q 282 -29 303 -49 q 251 17 261 -10 q 247 76 242 44 l 344 76 q 360 28 339 46 q 421 10 382 10 q 483 28 458 10 q 514 79 508 47 q 500 130 519 111 q 444 149 481 149 l 403 149 l 415 235 l 554 317 l 556 326 q 525 319 542 322 q 492 315 511 317 q 451 313 474 313 l 319 313 l 332 389 l 639 389 l 625 300 l 540 242 q 518 230 531 235 q 494 221 506 225 q 589 176 557 214 q 611 79 621 138 q 546 -30 600 10 q 408 -69 492 -69 z "},"₄":{"ha":833,"x_min":268,"x_max":633,"o":"m 381 131 l 378 108 l 521 108 l 538 214 l 633 214 l 590 -62 l 493 -62 l 508 31 l 268 31 l 288 154 l 500 389 l 610 389 l 381 131 z "},"⁄":{"ha":833,"x_min":47,"x_max":803,"o":"m 703 1000 l 803 1000 l 149 0 l 47 0 l 703 1000 z "},"¼":{"ha":833,"x_min":26,"x_max":826,"o":"m 403 547 l 54 547 l 68 628 l 229 628 l 267 858 q 278 908 272 892 q 285 926 285 925 l 278 926 q 261 911 271 919 q 221 879 244 897 l 124 807 l 142 917 l 254 999 l 386 999 l 326 628 l 458 628 l 714 1000 l 826 1000 l 139 0 l 26 0 l 403 547 m 443 93 l 463 217 l 675 451 l 785 451 l 556 193 l 553 171 l 696 171 l 713 276 l 810 276 l 765 0 l 668 0 l 683 93 l 443 93 z "},"½":{"ha":833,"x_min":49,"x_max":864,"o":"m 61 629 l 224 629 l 260 858 q 272 909 265 892 q 279 928 279 926 l 271 928 q 254 913 264 921 q 237 897 247 906 q 214 879 226 889 l 117 808 l 135 918 l 247 1000 l 379 1000 l 321 629 l 464 629 l 707 1000 l 808 1000 l 154 0 l 53 0 l 411 549 l 49 549 l 61 629 m 465 101 l 658 203 q 727 251 703 228 q 756 301 751 274 q 742 358 761 338 q 688 379 724 379 q 625 358 651 379 q 593 300 599 336 l 496 300 q 565 415 510 371 q 700 458 621 458 q 822 417 781 458 q 853 307 864 375 q 810 219 846 263 q 707 142 775 175 l 582 82 l 581 69 q 611 75 594 72 q 642 79 625 78 q 678 81 660 81 l 825 81 l 811 0 l 449 0 l 465 101 z "},"¾":{"ha":833,"x_min":33,"x_max":814,"o":"m 703 1000 l 803 1000 l 149 0 l 47 0 l 703 1000 m 200 542 q 127 552 160 542 q 74 582 94 563 q 43 628 53 601 q 39 688 33 656 l 136 688 q 152 639 131 657 q 213 621 174 621 q 275 640 250 621 q 306 690 300 658 q 292 741 311 722 q 236 760 272 760 l 194 760 l 207 846 l 346 928 l 347 938 q 317 931 333 933 q 284 926 303 928 q 243 924 265 924 l 111 924 l 124 1000 l 431 1000 l 417 911 l 332 853 q 310 841 322 846 q 286 832 297 836 q 381 787 349 825 q 403 690 413 749 q 338 581 392 621 q 200 542 283 542 m 561 193 l 558 171 l 701 171 l 718 276 l 814 276 l 771 0 l 674 0 l 689 93 l 449 93 l 468 217 l 681 451 l 790 451 l 561 193 z "},"‰":{"ha":833,"x_min":13,"x_max":831,"o":"m 249 146 l 268 264 q 328 377 279 338 q 446 417 378 417 q 507 403 486 417 q 539 372 528 389 q 553 328 550 353 q 582 372 564 353 q 625 403 599 389 q 690 417 651 417 q 794 377 758 417 q 819 264 831 338 l 800 146 q 740 33 789 72 q 624 -7 692 -7 q 563 7 585 -7 q 531 38 542 21 q 515 82 518 57 q 486 38 504 57 q 444 7 469 21 q 378 -7 418 -7 q 274 33 310 -7 q 249 146 238 72 m 588 264 l 568 146 q 579 90 563 110 q 629 71 596 71 q 683 90 661 71 q 710 146 704 110 l 729 264 q 719 319 735 300 q 671 339 703 339 q 615 319 638 339 q 588 264 593 300 m 399 71 q 453 90 432 71 q 481 146 475 110 l 500 264 q 490 319 506 300 q 440 339 474 339 q 387 319 408 339 q 358 264 365 300 l 340 146 q 350 90 333 110 q 399 71 367 71 m 782 690 l 782 600 l 13 379 l 13 469 l 782 690 m 240 924 q 177 899 199 924 q 150 838 156 875 l 139 767 q 146 706 132 731 q 201 681 160 681 q 266 707 246 681 q 292 767 286 733 l 303 838 q 295 899 310 875 q 240 924 281 924 m 188 597 q 67 644 101 597 q 43 767 32 690 l 56 838 q 117 960 67 914 q 253 1007 167 1007 q 374 960 339 1007 q 397 838 410 914 l 386 767 q 324 644 375 690 q 188 597 274 597 z "},"†":{"ha":833,"x_min":139,"x_max":717,"o":"m 453 1153 l 606 1153 l 399 -153 l 246 -153 l 453 1153 m 160 585 l 715 585 l 694 451 l 139 451 l 160 585 z "},"‡":{"ha":833,"x_min":92,"x_max":778,"o":"m 467 276 l 399 -153 l 246 -153 l 314 276 l 92 276 l 114 414 l 336 414 l 367 614 l 146 614 l 167 753 l 389 753 l 453 1153 l 606 1153 l 542 753 l 778 753 l 757 614 l 519 614 l 489 414 l 725 414 l 703 276 l 467 276 z "},"ĸ":{"ha":833,"x_min":49,"x_max":839,"o":"m 171 764 l 322 764 l 274 454 l 407 454 l 664 764 l 839 764 l 526 386 l 722 0 l 547 0 l 388 322 l 253 322 l 201 0 l 49 0 l 171 764 z "},"ĭ":{"ha":833,"x_min":53,"x_max":789,"o":"m 53 0 l 75 139 l 351 139 l 428 626 l 188 626 l 210 764 l 597 764 l 499 139 l 724 139 l 701 0 l 53 0 m 307 1097 l 429 1097 q 448 1028 421 1053 q 529 1003 475 1003 q 621 1028 585 1003 q 664 1097 657 1053 l 789 1097 q 758 1016 782 1053 q 699 953 735 979 q 617 914 664 928 q 515 900 569 900 q 420 915 463 900 q 351 955 378 929 q 312 1017 324 981 q 307 1097 300 1054 z "},"Ĭ":{"ha":833,"x_min":54,"x_max":800,"o":"m 54 0 l 75 133 l 292 133 l 408 867 l 192 867 l 213 1000 l 799 1000 l 778 867 l 561 867 l 444 133 l 661 133 l 640 0 l 54 0 m 338 1306 l 460 1306 q 551 1215 444 1215 q 638 1238 604 1215 q 678 1306 671 1261 l 800 1306 q 770 1227 793 1263 q 713 1167 747 1192 q 633 1128 678 1142 q 536 1114 589 1114 q 377 1166 432 1114 q 338 1306 322 1218 z "},"ſ":{"ha":833,"x_min":146,"x_max":811,"o":"m 811 1014 l 790 881 l 546 881 q 463 850 497 881 q 421 771 428 819 l 299 0 l 146 0 l 268 772 q 302 872 276 826 q 367 948 328 917 q 455 997 406 979 q 563 1014 504 1014 l 811 1014 z "},"ŋ":{"ha":833,"x_min":40,"x_max":753,"o":"m 306 764 l 283 628 l 297 628 q 383 738 324 699 q 522 778 442 778 q 697 704 640 778 q 733 506 753 631 l 661 46 q 622 -67 651 -17 q 547 -154 592 -118 q 442 -210 501 -190 q 317 -229 383 -229 l 228 -229 l 251 -86 l 343 -86 q 455 -49 411 -86 q 510 54 499 -12 l 578 488 q 555 603 589 561 q 450 646 521 646 q 330 604 378 646 q 271 490 282 563 l 193 0 l 40 0 l 161 764 l 306 764 z "},"Ŋ":{"ha":833,"x_min":35,"x_max":815,"o":"m 35 0 l 192 986 l 397 986 l 550 410 q 560 363 557 389 q 564 314 563 338 q 567 260 567 286 l 578 260 q 578 278 578 260 q 581 325 579 296 q 585 391 582 354 q 593 464 588 428 l 676 986 l 815 986 l 667 46 q 627 -67 657 -17 q 552 -154 597 -118 q 449 -210 507 -190 q 322 -229 390 -229 l 225 -229 l 249 -86 l 350 -86 q 460 -49 417 -86 q 515 54 504 -12 l 326 708 q 316 760 319 733 q 311 808 313 786 q 311 857 310 833 l 301 857 q 296 796 299 828 q 289 732 293 768 q 278 656 285 696 l 175 0 l 35 0 z "},"Н":{"ha":833,"x_min":44,"x_max":806,"o":"m 44 0 l 203 1000 l 356 1000 l 290 590 l 588 590 l 653 1000 l 806 1000 l 647 0 l 494 0 l 565 450 l 268 450 l 197 0 l 44 0 z "},"О":{"ha":833,"x_min":63,"x_max":792,"o":"m 225 289 q 251 166 213 211 q 367 121 289 121 q 496 166 443 121 q 561 289 549 211 l 628 713 q 602 835 640 790 q 486 881 564 881 q 357 835 410 881 q 293 713 304 790 l 225 289 m 140 713 q 260 933 163 853 q 508 1014 358 1014 q 636 992 581 1014 q 727 931 692 971 q 777 836 763 892 q 781 713 792 781 l 713 289 q 670 163 701 219 q 591 67 639 107 q 481 7 543 28 q 344 -14 418 -14 q 217 8 272 -14 q 126 69 161 29 q 76 165 90 108 q 72 289 63 221 l 140 713 z "},"А":{"ha":833,"x_min":26,"x_max":768,"o":"m 456 1000 l 664 1000 l 768 0 l 613 0 l 590 265 l 293 265 l 186 0 l 26 0 l 456 1000 m 343 388 l 581 388 l 550 760 q 546 854 546 814 q 546 894 546 875 l 540 894 q 528 854 535 875 q 513 811 521 835 q 494 761 506 788 l 343 388 z "},"В":{"ha":833,"x_min":43,"x_max":799,"o":"m 779 739 q 703 591 764 647 q 556 528 643 535 l 553 518 q 696 452 650 514 q 725 285 742 390 q 608 75 704 150 q 363 0 513 0 l 43 0 l 201 1000 l 508 1000 q 726 931 654 1000 q 779 739 799 861 m 568 290 q 542 408 581 365 q 419 450 503 450 l 264 450 l 214 132 l 369 132 q 505 174 453 132 q 568 290 557 215 m 618 722 q 593 830 629 790 q 485 869 557 869 l 331 869 l 285 578 l 438 578 q 559 617 511 578 q 618 722 607 656 z "},"Р":{"ha":833,"x_min":43,"x_max":826,"o":"m 196 0 l 43 0 l 201 1000 l 543 1000 q 671 978 615 1000 q 762 918 726 957 q 812 824 797 879 q 815 701 826 768 q 773 578 804 633 q 694 483 742 522 q 585 424 647 444 q 449 403 522 403 l 260 403 l 196 0 m 469 535 q 596 581 544 535 q 660 701 647 626 q 634 822 671 776 q 522 868 597 868 l 333 868 l 281 535 l 469 535 z "},"С":{"ha":833,"x_min":71,"x_max":799,"o":"m 515 1014 q 725 937 651 1014 q 788 729 799 860 l 638 729 q 604 840 643 800 q 494 879 565 879 q 365 834 417 879 q 300 711 313 789 l 233 289 q 258 165 221 210 q 374 121 296 121 q 498 161 447 121 q 565 271 549 201 l 715 271 q 588 62 685 138 q 353 -14 492 -14 q 225 7 281 -14 q 134 67 169 28 q 85 161 99 106 q 82 285 71 217 l 150 715 q 192 840 161 785 q 270 934 222 896 q 380 993 318 972 q 515 1014 442 1014 z "},"Е":{"ha":833,"x_min":57,"x_max":818,"o":"m 215 1000 l 818 1000 l 797 867 l 346 867 l 300 582 l 703 582 l 682 446 l 279 446 l 229 135 l 681 135 l 660 0 l 57 0 l 215 1000 z "},"К":{"ha":833,"x_min":44,"x_max":878,"o":"m 203 1000 l 356 1000 l 289 586 l 432 586 l 706 1000 l 878 1000 l 556 513 l 732 0 l 565 0 l 417 450 l 268 450 l 197 0 l 44 0 l 203 1000 z "},"М":{"ha":833,"x_min":19,"x_max":835,"o":"m 19 0 l 178 1000 l 361 1000 l 426 674 q 431 639 429 658 q 435 604 433 619 q 438 567 436 585 l 443 567 q 457 604 450 585 q 472 639 464 619 q 488 674 481 658 l 644 1000 l 835 1000 l 676 0 l 538 0 l 574 224 l 642 672 q 653 729 647 700 q 664 783 658 758 q 678 842 671 813 l 669 842 q 647 789 658 815 q 624 738 636 765 q 601 688 613 711 l 485 442 l 353 442 l 310 688 q 301 740 306 713 q 294 790 297 767 q 288 843 290 817 l 282 843 q 278 785 279 815 q 272 730 275 760 q 264 672 268 700 l 157 0 l 19 0 z "},"Х":{"ha":833,"x_min":-24,"x_max":860,"o":"m -24 0 l 343 513 l 151 1000 l 321 1000 l 419 735 q 432 701 426 717 q 440 672 438 685 q 447 646 444 658 l 451 646 q 467 672 458 658 q 484 699 474 683 q 506 733 494 715 l 693 1000 l 860 1000 l 515 517 l 718 0 l 550 0 l 439 294 q 427 330 432 314 q 418 358 422 346 q 411 385 414 372 l 406 385 q 390 358 399 372 q 374 330 383 346 q 351 296 364 314 l 146 0 l -24 0 z "},"а":{"ha":833,"x_min":58,"x_max":757,"o":"m 71 288 l 101 479 q 139 602 113 547 q 205 696 165 657 q 294 756 244 735 q 403 778 344 778 q 527 740 485 778 q 574 632 569 701 l 586 632 l 608 764 l 751 764 l 658 178 q 667 136 654 151 q 706 121 681 121 l 757 121 l 738 -6 l 639 -6 q 537 33 572 -6 q 508 132 501 71 l 496 132 q 414 25 469 64 q 278 -14 358 -14 q 176 8 219 -14 q 106 69 133 29 q 69 164 79 108 q 71 288 60 219 m 350 119 q 460 159 415 119 q 522 269 506 199 l 557 501 q 529 608 561 569 q 433 646 497 646 q 312 601 360 646 q 251 476 264 556 l 222 289 q 242 165 210 210 q 350 119 275 119 z "},"е":{"ha":833,"x_min":63,"x_max":753,"o":"m 344 -14 q 217 7 272 -14 q 126 67 161 28 q 76 160 90 106 q 74 282 63 214 l 106 482 q 147 605 117 550 q 226 698 178 660 q 335 757 274 736 q 471 778 397 778 q 598 757 543 778 q 688 697 653 736 q 738 603 724 658 q 742 482 753 549 l 719 342 l 232 342 l 224 288 q 249 158 211 204 q 365 111 286 111 q 469 131 424 111 q 540 185 515 150 l 689 185 q 635 103 669 140 q 557 41 601 67 q 458 1 513 15 q 344 -14 404 -14 m 588 451 l 593 482 q 568 608 606 563 q 450 653 531 653 q 319 608 371 653 q 256 482 268 563 l 250 451 l 588 451 z "},"о":{"ha":833,"x_min":63,"x_max":753,"o":"m 225 288 q 250 165 213 210 q 367 121 288 121 q 497 165 444 121 q 561 288 549 208 l 590 478 q 565 600 603 556 q 449 644 526 644 q 319 599 372 644 q 256 478 267 554 l 225 288 m 104 478 q 146 603 115 547 q 224 697 176 658 q 335 757 272 736 q 471 778 397 778 q 599 757 544 778 q 690 697 654 736 q 739 603 725 658 q 742 478 753 547 l 713 288 q 592 67 689 147 q 344 -14 494 -14 q 217 7 272 -14 q 126 67 161 28 q 76 163 90 107 q 74 288 63 218 l 104 478 z "},"с":{"ha":833,"x_min":71,"x_max":760,"o":"m 354 -14 q 228 8 283 -14 q 137 68 172 29 q 87 162 101 107 q 83 285 72 217 l 114 479 q 233 699 136 619 q 479 778 331 778 q 593 758 542 778 q 682 704 644 739 q 740 621 719 669 q 760 514 760 572 l 607 514 q 566 608 607 572 q 458 644 525 644 q 328 601 379 644 q 265 479 276 557 l 233 285 q 260 165 222 208 q 375 121 297 121 q 496 155 446 121 q 565 250 546 189 l 718 250 q 585 55 681 124 q 354 -14 489 -14 z "},"у":{"ha":833,"x_min":83,"x_max":781,"o":"m 103 335 l 171 764 l 321 764 l 257 361 q 278 239 244 283 q 383 194 313 194 q 501 235 453 194 q 563 349 549 276 l 629 764 l 779 764 l 660 28 q 557 -161 640 -93 q 343 -229 474 -229 l 124 -229 l 144 -97 l 356 -97 q 460 -65 419 -97 q 510 28 500 -32 l 518 81 l 546 208 l 535 208 q 450 102 508 139 q 310 65 392 65 q 140 138 196 65 q 103 335 83 211 z "},"х":{"ha":833,"x_min":-14,"x_max":814,"o":"m -14 0 l 322 396 l 124 764 l 289 764 l 399 547 q 407 528 404 538 q 413 513 410 519 q 417 497 415 504 l 425 497 q 435 513 429 504 q 461 547 443 526 l 636 764 l 814 764 l 499 392 l 710 0 l 544 0 l 424 235 q 415 255 419 246 q 408 272 411 264 q 401 289 404 281 l 393 289 q 383 271 389 281 q 372 255 378 264 q 358 236 365 246 l 164 0 l -14 0 z "},"р":{"ha":833,"x_min":10,"x_max":754,"o":"m 10 -229 l 167 764 l 310 764 l 289 632 l 301 632 q 388 739 328 700 q 531 778 447 778 q 633 756 589 778 q 706 696 678 735 q 744 601 733 657 q 743 479 754 546 l 713 288 q 674 164 701 219 q 606 69 646 108 q 514 8 565 29 q 404 -14 463 -14 q 275 26 324 -14 q 222 132 226 65 l 210 132 q 208 114 210 128 q 206 81 207 100 q 201 41 204 63 q 196 0 199 19 l 160 -229 l 10 -229 m 242 288 q 265 165 229 211 q 376 119 301 119 q 501 165 451 119 q 563 289 550 210 l 593 476 q 569 601 606 556 q 456 646 532 646 q 338 603 388 646 q 274 488 289 561 l 242 288 z "},"П":{"ha":833,"x_min":44,"x_max":808,"o":"m 203 1000 l 808 1000 l 650 0 l 499 0 l 635 860 l 333 860 l 197 0 l 44 0 l 203 1000 z "},"Б":{"ha":840,"x_min":51,"x_max":808,"o":"m 583 300 q 555 423 596 378 q 433 468 514 468 l 274 468 l 219 133 l 381 133 q 518 178 464 133 q 583 300 572 224 m 808 1000 l 786 860 l 335 860 l 294 603 l 476 603 q 599 581 546 603 q 688 518 653 558 q 737 422 722 478 q 740 301 751 367 q 699 178 729 233 q 621 83 668 122 q 513 22 574 43 q 382 0 453 0 l 51 0 l 210 1000 l 808 1000 z "},"И":{"ha":833,"x_min":35,"x_max":818,"o":"m 35 0 l 193 1000 l 333 1000 l 228 333 q 214 262 222 297 q 199 199 206 226 q 187 156 192 172 q 182 139 182 139 l 192 139 q 218 204 204 172 q 242 262 229 232 q 268 315 256 292 l 626 1000 l 818 1000 l 660 0 l 519 0 l 626 669 q 640 744 633 710 q 654 806 647 778 q 669 863 663 836 l 660 863 q 635 803 649 833 q 609 745 624 776 q 579 685 594 714 l 226 0 l 35 0 z "},"Т":{"ha":833,"x_min":125,"x_max":864,"o":"m 125 863 l 147 1000 l 864 1000 l 843 863 l 561 863 l 425 0 l 269 0 l 407 863 l 125 863 z "},"Г":{"ha":833,"x_min":72,"x_max":835,"o":"m 835 1000 l 813 860 l 361 860 l 225 0 l 72 0 l 231 1000 l 835 1000 z "},"Ж":{"ha":833,"x_min":-65,"x_max":904,"o":"m 188 526 l 106 1000 l 238 1000 l 306 560 l 372 560 l 442 1000 l 568 1000 l 499 560 l 564 560 l 768 1000 l 904 1000 l 674 515 l 760 0 l 626 0 l 557 474 l 485 474 l 413 0 l 285 0 l 358 474 l 292 474 l 74 0 l -65 0 l 188 526 z "},"Ц":{"ha":833,"x_min":44,"x_max":786,"o":"m 203 1000 l 356 1000 l 218 139 l 497 139 l 633 1000 l 786 1000 l 650 139 l 754 139 l 701 -192 l 563 -192 l 593 0 l 44 0 l 203 1000 z "},"Щ":{"ha":833,"x_min":-4,"x_max":828,"o":"m 154 1000 l 289 1000 l 149 118 l 283 118 l 424 1000 l 557 1000 l 418 118 l 554 118 l 694 1000 l 828 1000 l 689 118 l 750 118 l 701 -192 l 581 -192 l 611 0 l -4 0 l 154 1000 z "},"Ш":{"ha":833,"x_min":-1,"x_max":854,"o":"m 157 1000 l 296 1000 l 156 121 l 297 121 l 436 1000 l 575 1000 l 436 121 l 576 121 l 715 1000 l 854 1000 l 696 0 l -1 0 l 157 1000 z "},"З":{"ha":833,"x_min":35,"x_max":801,"o":"m 126 729 q 171 849 139 796 q 251 938 203 901 q 363 994 300 975 q 497 1014 425 1014 q 725 941 649 1014 q 782 743 801 868 q 707 591 767 650 q 560 525 647 532 l 557 515 q 697 446 651 508 q 726 279 743 383 q 601 63 704 140 q 336 -14 499 -14 q 205 6 263 -14 q 108 60 147 25 q 52 147 69 96 q 40 261 35 199 l 192 261 q 233 158 189 194 q 357 121 278 121 q 501 164 443 121 q 569 279 558 207 q 538 397 581 354 q 408 440 494 440 l 271 440 l 293 578 l 429 578 q 562 619 508 578 q 626 729 615 660 q 597 840 638 799 q 476 881 556 881 q 347 840 401 881 q 279 729 293 799 l 126 729 z "},"Й":{"ha":833,"x_min":35,"x_max":818,"o":"m 35 0 l 193 1000 l 333 1000 l 228 333 q 214 262 222 297 q 199 199 206 226 q 187 156 192 172 q 182 139 182 139 l 192 139 q 218 204 204 172 q 242 262 229 232 q 268 315 256 292 l 626 1000 l 818 1000 l 660 0 l 519 0 l 626 669 q 640 744 633 710 q 654 806 647 778 q 669 863 663 836 l 660 863 q 635 803 649 833 q 609 745 624 776 q 579 685 594 714 l 226 0 l 35 0 m 322 1306 l 444 1306 q 536 1215 429 1215 q 622 1238 589 1215 q 663 1306 656 1261 l 785 1306 q 755 1227 778 1263 q 697 1167 732 1192 q 618 1128 663 1142 q 521 1114 574 1114 q 362 1166 417 1114 q 322 1306 307 1218 z "},"Ѕ":{"ha":833,"x_min":50,"x_max":789,"o":"m 344 -14 q 216 6 272 -14 q 122 63 160 26 q 67 149 85 99 q 58 261 50 200 l 215 261 q 249 160 207 199 q 369 121 292 121 q 504 157 453 121 q 567 257 556 193 q 547 357 575 314 q 458 421 518 400 l 358 456 q 194 567 246 492 q 157 742 142 642 q 271 942 178 871 q 513 1014 364 1014 q 634 994 581 1014 q 723 940 688 975 q 774 855 758 904 q 782 744 789 806 l 625 744 q 595 843 633 806 q 489 881 557 881 q 369 846 415 881 q 313 750 322 811 q 331 659 304 697 q 418 600 357 621 l 524 565 q 687 451 636 529 q 719 265 738 374 q 679 149 710 200 q 600 61 649 97 q 487 6 551 25 q 344 -14 422 -14 z "},"ѕ":{"ha":833,"x_min":56,"x_max":750,"o":"m 319 -14 q 126 41 196 -14 q 58 192 56 96 l 208 192 q 247 132 211 154 q 339 110 282 110 l 388 110 q 499 138 457 110 q 549 214 542 165 q 444 317 564 300 l 335 332 q 132 556 100 361 q 231 719 149 661 q 449 778 314 778 l 499 778 q 683 725 617 778 q 749 579 750 672 l 597 579 q 563 634 594 614 q 479 654 532 654 l 429 654 q 326 630 365 654 q 279 557 288 606 q 374 463 267 476 l 485 447 q 699 218 731 414 q 595 46 681 106 q 368 -14 510 -14 l 319 -14 z "},"і":{"ha":833,"x_min":53,"x_max":724,"o":"m 75 139 l 351 139 l 428 626 l 188 626 l 210 764 l 597 764 l 499 139 l 724 139 l 701 0 l 53 0 l 75 139 m 426 979 q 463 1042 433 1018 q 535 1067 492 1067 l 567 1067 q 632 1042 610 1067 q 647 978 654 1018 q 611 915 640 938 q 539 892 582 892 l 507 892 q 442 915 464 892 q 426 979 419 939 z "},"Ю":{"ha":833,"x_min":-42,"x_max":865,"o":"m 117 1000 l 260 1000 l 194 585 l 319 585 l 346 756 q 381 861 356 814 q 446 942 407 908 q 535 995 485 976 q 642 1014 585 1014 q 742 995 699 1014 q 815 942 786 976 q 854 861 843 908 q 856 756 865 814 l 775 246 q 740 140 765 188 q 675 58 714 92 q 586 5 636 24 q 479 -14 536 -14 q 378 5 422 -14 q 306 58 335 24 q 267 140 278 92 q 265 246 257 188 l 299 456 l 174 456 l 101 0 l -42 0 l 117 1000 m 622 889 q 537 856 572 889 q 490 760 501 822 l 408 240 q 424 144 397 178 q 499 111 450 111 q 585 144 549 111 q 631 240 621 178 l 713 760 q 698 856 724 822 q 622 889 672 889 z "},"Ь":{"ha":833,"x_min":46,"x_max":765,"o":"m 597 299 q 569 421 610 375 q 451 467 529 467 l 272 467 l 221 136 l 399 136 q 532 180 478 136 q 597 299 586 224 m 357 1000 l 294 603 l 482 603 q 610 581 554 603 q 701 520 665 560 q 751 425 736 481 q 754 301 765 369 q 712 176 743 232 q 633 81 681 119 q 522 21 585 42 q 386 0 460 0 l 46 0 l 204 1000 l 357 1000 z "},"Ы":{"ha":833,"x_min":-14,"x_max":867,"o":"m -14 0 l 144 1000 l 286 1000 l 222 603 l 308 603 q 421 583 372 603 q 501 528 469 564 q 544 441 532 492 q 547 329 557 390 l 539 272 q 501 161 529 211 q 429 75 472 111 q 331 19 386 39 q 213 0 276 0 l -14 0 m 725 1000 l 867 1000 l 708 0 l 567 0 l 725 1000 m 147 128 l 231 128 q 342 167 297 128 q 397 274 386 207 l 407 328 q 385 435 418 396 q 286 475 353 475 l 203 475 l 147 128 z "},"Ъ":{"ha":833,"x_min":78,"x_max":781,"o":"m 78 869 l 99 1000 l 397 1000 l 333 603 l 497 603 q 624 581 568 603 q 715 519 679 558 q 766 424 751 479 q 769 301 781 368 q 727 177 758 233 q 648 82 696 121 q 538 22 600 43 q 403 0 476 0 l 86 0 l 224 869 l 78 869 m 415 136 q 549 181 494 136 q 614 301 603 225 q 585 422 625 376 q 468 467 546 467 l 313 467 l 260 136 l 415 136 z "},"Я":{"ha":833,"x_min":-7,"x_max":808,"o":"m -7 0 l 263 429 q 142 533 181 461 q 119 704 103 604 q 161 827 131 772 q 239 920 192 882 q 349 979 286 958 q 485 1000 411 1000 l 808 1000 l 650 0 l 499 0 l 563 407 l 414 407 l 165 0 l -7 0 m 411 535 l 583 535 l 636 868 l 464 868 q 338 822 390 868 q 274 700 286 776 q 299 580 263 625 q 411 535 336 535 z "},"Э":{"ha":833,"x_min":54,"x_max":785,"o":"m 338 -14 q 128 62 201 -14 q 63 268 54 138 l 215 268 q 248 161 210 200 q 358 122 286 122 q 489 166 438 122 q 553 288 540 210 l 576 439 l 254 439 l 275 574 l 599 574 l 621 714 q 594 834 632 790 q 478 878 557 878 q 355 839 406 878 q 289 732 304 800 l 136 732 q 186 849 153 797 q 267 938 219 901 q 373 994 314 975 q 500 1014 432 1014 q 629 993 574 1014 q 720 934 685 972 q 770 841 756 896 q 774 718 785 786 l 704 282 q 663 160 694 215 q 584 67 632 106 q 474 7 536 28 q 338 -14 411 -14 z "},"Л":{"ha":833,"x_min":-44,"x_max":811,"o":"m 260 1000 l 811 1000 l 653 0 l 500 0 l 636 860 l 388 860 l 299 342 q -6 -7 240 -7 l -44 -7 l -24 133 l 8 133 q 94 183 61 133 q 147 342 128 232 l 260 1000 z "},"Д":{"ha":833,"x_min":-68,"x_max":797,"o":"m -17 133 l 39 133 q 90 229 65 171 q 137 356 113 279 q 181 542 161 433 l 261 1000 l 797 1000 l 660 133 l 753 133 l 701 -194 l 563 -194 l 593 0 l 101 0 l 71 -194 l -68 -194 l -17 133 m 511 133 l 626 864 l 385 864 l 328 542 q 286 354 308 429 q 244 232 264 279 q 199 144 221 176 l 196 133 l 511 133 z "},"У":{"ha":833,"x_min":135,"x_max":876,"o":"m 299 1000 l 404 546 q 413 491 411 518 q 417 442 415 464 q 415 393 417 417 l 426 393 q 438 442 431 415 q 453 491 444 464 q 476 546 463 518 l 711 1000 l 876 1000 l 343 0 l 182 0 l 326 261 l 135 1000 l 299 1000 z "},"Ф":{"ha":833,"x_min":38,"x_max":821,"o":"m 290 63 q 176 84 226 63 q 94 144 126 106 q 49 236 61 182 q 47 357 38 290 l 97 674 q 138 796 108 740 q 212 890 168 851 q 313 951 256 929 q 435 972 369 972 l 450 1065 l 582 1065 l 568 972 q 683 951 633 972 q 765 890 733 929 q 809 796 797 851 q 810 674 821 740 l 760 357 q 720 236 750 290 q 646 144 690 182 q 545 84 601 106 q 424 63 489 63 l 410 -31 l 276 -31 l 290 63 m 443 186 q 565 233 514 186 q 626 357 615 279 l 678 674 q 655 801 690 753 q 549 849 619 849 l 443 186 m 181 357 q 203 233 168 279 q 310 186 239 186 l 415 849 q 294 801 344 849 q 231 674 243 753 l 181 357 z "},"Ч":{"ha":833,"x_min":99,"x_max":808,"o":"m 367 354 q 165 430 232 354 q 119 635 99 506 l 178 1000 l 329 1000 l 272 639 q 301 531 261 571 q 418 490 340 490 q 493 495 463 490 q 543 507 524 500 q 581 524 567 514 l 657 1000 l 808 1000 l 650 0 l 499 0 l 546 301 q 558 368 554 347 q 563 390 560 381 q 513 372 542 381 q 451 360 488 365 q 367 354 415 354 z "},"н":{"ha":833,"x_min":44,"x_max":771,"o":"m 44 0 l 165 764 l 318 764 l 268 454 l 569 454 l 619 764 l 771 764 l 650 0 l 499 0 l 547 314 l 246 314 l 197 0 l 44 0 z "},"ё":{"ha":833,"x_min":63,"x_max":765,"o":"m 344 -14 q 217 7 272 -14 q 126 67 161 28 q 76 160 90 106 q 74 282 63 214 l 106 482 q 147 605 117 550 q 226 698 178 660 q 335 757 274 736 q 471 778 397 778 q 598 757 543 778 q 688 697 653 736 q 738 603 724 658 q 742 482 753 549 l 719 342 l 232 342 l 224 288 q 249 158 211 204 q 365 111 286 111 q 469 131 424 111 q 540 185 515 150 l 689 185 q 635 103 669 140 q 557 41 601 67 q 458 1 513 15 q 344 -14 404 -14 m 588 451 l 593 482 q 568 608 606 563 q 450 653 531 653 q 319 608 371 653 q 256 482 268 563 l 250 451 l 588 451 m 294 1008 q 330 1070 301 1047 q 399 1093 358 1093 q 460 1070 439 1093 q 475 1008 482 1047 q 440 944 468 968 q 371 921 411 921 q 309 944 331 921 q 294 1008 288 968 m 576 1008 q 613 1070 583 1047 q 682 1093 642 1093 q 743 1070 722 1093 q 757 1008 764 1047 q 722 944 750 968 q 653 921 693 921 q 591 944 613 921 q 576 1008 569 968 z "},"и":{"ha":833,"x_min":71,"x_max":769,"o":"m 81 256 l 161 764 l 311 764 l 235 282 q 255 160 222 203 q 360 117 288 117 q 481 160 432 117 q 542 278 531 203 l 619 764 l 769 764 l 649 0 l 506 0 l 526 132 l 515 132 q 429 24 489 63 q 288 -14 369 -14 q 188 6 232 -14 q 117 60 144 25 q 81 145 90 96 q 81 256 71 194 z "},"я":{"ha":833,"x_min":-4,"x_max":771,"o":"m 232 283 q 112 366 149 307 q 90 514 75 425 q 197 698 110 632 q 421 764 283 764 l 771 764 l 650 0 l 499 0 l 540 269 l 385 269 l 172 0 l -4 0 l 232 283 m 244 513 q 267 424 235 456 q 367 393 300 393 l 560 393 l 599 632 l 404 632 q 295 601 338 632 q 244 513 253 569 z "},"п":{"ha":833,"x_min":44,"x_max":771,"o":"m 165 764 l 771 764 l 650 0 l 499 0 l 597 624 l 296 624 l 197 0 l 44 0 l 165 764 z "},"л":{"ha":833,"x_min":-44,"x_max":774,"o":"m 222 764 l 774 764 l 653 0 l 500 0 l 599 624 l 350 624 l 294 315 q 192 72 265 150 q -6 -7 118 -7 l -44 -7 l -24 133 l 8 133 q 94 177 63 133 q 144 324 126 221 l 222 764 z "},"д":{"ha":833,"x_min":61,"x_max":781,"o":"m 225 288 q 250 165 213 208 q 367 121 288 121 q 497 165 444 121 q 561 288 549 208 l 578 396 q 552 519 590 475 q 436 563 514 563 q 306 519 358 563 q 242 396 254 475 l 225 288 m 231 1014 l 446 1014 q 601 986 535 1014 q 708 908 667 958 q 765 783 750 857 q 765 618 781 710 l 713 288 q 592 66 690 146 q 344 -14 494 -14 q 216 7 272 -14 q 124 67 160 28 q 75 163 89 107 q 72 288 61 218 l 90 396 q 194 613 113 535 q 401 690 275 690 q 507 669 469 690 q 563 621 544 647 q 589 551 585 590 l 603 551 l 613 618 q 579 798 631 732 q 422 864 528 864 l 207 864 l 231 1014 z "},"г":{"ha":833,"x_min":43,"x_max":757,"o":"m 319 -14 q 110 47 176 -14 q 60 218 43 107 q 350 449 90 415 l 467 464 q 589 556 576 478 q 566 629 597 604 q 471 654 535 654 l 421 654 q 332 634 369 654 q 281 579 294 614 l 124 579 q 236 724 151 671 q 440 778 321 778 l 490 778 q 692 719 626 778 q 740 556 757 661 q 463 329 710 363 l 349 315 q 211 214 224 299 q 237 138 203 165 q 340 110 271 110 l 389 110 q 486 132 444 110 q 543 192 528 154 l 700 192 q 583 42 672 97 q 369 -14 494 -14 l 319 -14 z "},"к":{"ha":833,"x_min":49,"x_max":839,"o":"m 171 764 l 322 764 l 274 454 l 407 454 l 664 764 l 839 764 l 526 386 l 722 0 l 547 0 l 388 322 l 253 322 l 201 0 l 49 0 l 171 764 z "},"м":{"ha":833,"x_min":14,"x_max":801,"o":"m 135 764 l 318 764 l 390 467 q 397 434 394 451 q 400 401 399 417 q 401 364 401 382 l 411 364 q 426 401 418 382 q 442 434 433 417 q 457 467 450 451 l 615 764 l 801 764 l 681 0 l 543 0 l 613 436 q 624 493 617 464 q 638 547 631 522 q 653 606 644 576 l 640 606 q 614 549 628 576 q 590 498 603 525 q 565 450 576 471 l 453 239 l 321 239 l 272 450 q 263 499 268 472 q 256 550 258 526 q 247 607 251 578 l 236 607 q 233 549 235 579 q 228 494 231 524 q 221 436 225 464 l 151 0 l 14 0 l 135 764 z "},"ф":{"ha":833,"x_min":22,"x_max":807,"o":"m 290 21 q 88 96 154 21 q 43 304 22 171 l 74 490 q 184 697 94 622 q 408 771 274 771 l 410 771 l 417 814 q 497 963 432 913 q 667 1014 563 1014 l 794 1014 l 776 899 l 649 899 q 581 875 608 899 q 546 813 553 851 l 539 771 q 741 697 675 771 q 786 490 807 622 l 757 304 q 718 185 747 238 q 645 97 689 133 q 544 40 601 60 q 421 21 488 21 l 414 -25 q 335 -176 399 -122 q 181 -229 272 -229 l 44 -229 l 63 -118 l 189 -118 q 251 -95 226 -118 q 283 -26 276 -72 l 290 21 m 175 304 q 198 183 163 226 q 308 140 233 140 l 390 653 q 265 610 315 653 q 204 490 215 567 l 175 304 m 440 140 q 565 183 515 140 q 625 304 614 226 l 656 490 q 631 610 667 567 q 521 653 594 653 l 440 140 z "},"й":{"ha":833,"x_min":71,"x_max":769,"o":"m 81 256 l 161 764 l 311 764 l 235 282 q 255 160 222 203 q 360 117 288 117 q 481 160 432 117 q 542 278 531 203 l 619 764 l 769 764 l 649 0 l 506 0 l 526 132 l 515 132 q 429 24 489 63 q 288 -14 369 -14 q 188 6 232 -14 q 117 60 144 25 q 81 145 90 96 q 81 256 71 194 m 275 1097 l 397 1097 q 416 1028 389 1053 q 497 1003 443 1003 q 589 1028 553 1003 q 632 1097 625 1053 l 757 1097 q 726 1016 750 1053 q 667 953 703 979 q 585 914 632 928 q 483 900 538 900 q 388 915 431 900 q 319 955 346 929 q 280 1017 292 981 q 275 1097 268 1054 z "},"т":{"ha":833,"x_min":88,"x_max":826,"o":"m 88 626 l 110 764 l 826 764 l 806 626 l 524 626 l 425 0 l 269 0 l 369 626 l 88 626 z "},"ж":{"ha":833,"x_min":-64,"x_max":868,"o":"m 160 393 l 69 764 l 200 764 l 276 431 l 351 431 l 404 764 l 532 764 l 479 431 l 546 431 l 729 764 l 868 764 l 660 394 l 758 0 l 622 0 l 543 347 l 467 347 l 411 0 l 283 0 l 338 347 l 269 347 l 81 0 l -64 0 l 160 393 z "},"в":{"ha":833,"x_min":75,"x_max":761,"o":"m 263 447 l 458 447 q 549 473 514 447 q 592 544 585 499 q 572 615 599 589 q 489 642 546 642 l 293 642 l 263 447 m 229 242 q 249 155 221 188 q 331 122 276 122 l 413 122 q 513 149 475 122 q 558 224 551 175 q 538 300 567 272 q 446 328 508 328 l 243 328 l 229 242 m 515 764 q 701 710 642 764 q 746 560 761 656 q 684 449 735 489 q 551 404 633 408 l 550 394 q 683 347 642 392 q 711 218 724 303 q 612 59 694 115 q 399 0 529 3 l 308 0 q 203 18 249 0 q 128 68 157 36 q 87 145 99 100 q 83 246 75 190 l 165 764 l 515 764 z "},"ш":{"ha":833,"x_min":24,"x_max":811,"o":"m 40 222 l 126 764 l 256 764 l 171 222 q 188 141 163 171 q 264 111 213 111 l 300 111 l 403 764 l 533 764 l 431 111 l 576 111 l 681 764 l 811 764 l 690 0 l 246 0 q 79 60 135 0 q 40 222 24 119 z "},"щ":{"ha":833,"x_min":24,"x_max":785,"o":"m 40 222 l 126 764 l 251 764 l 165 222 q 183 141 158 171 q 258 111 208 111 l 293 111 l 397 764 l 522 764 l 419 111 l 556 111 l 660 764 l 785 764 l 682 111 l 746 111 l 699 -192 l 578 -192 l 608 0 l 240 0 q 78 60 132 0 q 40 222 24 121 z "},"ь":{"ha":833,"x_min":69,"x_max":760,"o":"m 239 254 q 261 165 231 196 q 358 133 292 133 l 436 133 q 542 164 503 133 q 589 250 581 194 q 569 336 599 306 q 472 367 539 367 l 257 367 l 239 254 m 89 254 l 171 764 l 319 764 l 278 500 l 503 500 q 699 435 638 500 q 740 250 760 369 q 640 66 721 132 q 424 0 558 0 l 331 0 q 133 68 197 0 q 89 254 69 136 z "},"ъ":{"ha":833,"x_min":31,"x_max":782,"o":"m 294 254 q 315 165 285 196 q 408 135 344 135 l 461 135 q 561 166 522 135 q 608 250 600 197 q 588 334 617 303 q 499 365 558 365 l 313 365 l 294 254 m 142 254 l 203 626 l 31 626 l 53 764 l 375 764 l 333 500 l 519 500 q 718 434 654 500 q 763 250 782 368 q 659 66 743 132 q 442 0 575 0 l 386 0 q 187 67 251 0 q 142 254 122 135 z "},"э":{"ha":833,"x_min":53,"x_max":744,"o":"m 335 -14 q 130 53 204 -14 q 53 239 56 119 l 206 239 q 249 153 208 185 q 356 121 290 121 q 486 163 435 121 q 549 285 538 206 l 556 324 l 293 324 l 313 451 l 576 451 l 581 479 q 554 601 592 557 q 439 644 517 644 q 322 613 372 644 q 251 525 271 581 l 99 525 q 234 712 139 646 q 460 778 329 778 q 589 757 533 778 q 680 698 644 736 q 730 605 715 660 q 733 483 744 550 l 701 279 q 582 63 679 140 q 335 -14 485 -14 z "},"ц":{"ha":833,"x_min":65,"x_max":753,"o":"m 83 250 l 165 764 l 317 764 l 235 250 q 253 169 228 199 q 329 139 278 139 l 497 139 l 596 764 l 747 764 l 649 139 l 753 139 l 700 -192 l 563 -192 l 593 0 l 308 0 q 126 68 188 0 q 83 250 65 136 z "},"ю":{"ha":833,"x_min":-18,"x_max":817,"o":"m 103 764 l 232 764 l 182 447 l 307 447 l 321 535 q 411 713 339 649 q 597 778 483 778 q 765 713 713 778 q 797 535 817 649 l 750 229 q 658 51 731 115 q 472 -14 586 -14 q 306 51 358 -14 q 272 229 254 115 l 288 326 l 163 326 l 111 0 l -18 0 l 103 764 m 579 663 q 494 630 528 663 q 450 535 461 597 l 401 229 q 416 134 392 167 q 490 101 440 101 q 576 134 542 101 q 619 229 610 167 l 668 535 q 654 630 678 597 q 579 663 631 663 z "},"ч":{"ha":833,"x_min":76,"x_max":771,"o":"m 344 215 q 143 291 210 215 q 97 496 76 367 l 140 764 l 292 764 l 250 500 q 278 392 239 432 q 396 351 318 351 q 471 356 440 351 q 521 368 501 361 q 558 383 544 375 l 619 764 l 771 764 l 650 0 l 499 0 l 524 161 q 536 228 532 207 q 540 250 538 240 q 490 233 519 240 q 429 221 465 226 q 344 215 393 215 z "},"ы":{"ha":833,"x_min":33,"x_max":808,"o":"m 40 208 l 129 764 l 263 764 l 221 500 l 315 500 q 477 441 422 500 q 517 282 532 382 l 504 208 q 474 122 497 161 q 416 53 451 82 q 335 10 381 25 q 238 -6 290 -6 q 146 10 186 -6 q 80 53 106 25 q 44 120 54 81 q 40 208 33 160 m 553 0 l 675 764 l 808 764 l 688 0 l 553 0 m 257 111 q 333 138 301 111 q 371 210 364 165 l 382 283 q 365 355 389 328 q 297 382 342 382 l 201 382 l 174 208 q 190 138 167 164 q 257 111 213 111 z "},"з":{"ha":833,"x_min":36,"x_max":757,"o":"m 103 565 q 148 651 118 613 q 219 716 178 689 q 313 758 261 743 q 424 774 365 774 l 503 774 q 693 717 629 774 q 742 561 757 661 q 678 449 731 492 q 542 400 625 406 l 540 394 q 679 342 640 388 q 706 214 718 297 q 671 121 697 163 q 603 50 644 79 q 506 6 561 21 q 383 -10 450 -10 l 301 -10 q 108 44 179 -10 q 36 194 38 99 l 189 194 q 228 138 193 158 q 322 118 264 118 l 404 118 q 503 147 465 118 q 549 222 542 175 q 528 299 557 271 q 436 328 500 328 l 242 328 l 263 453 l 451 453 q 542 479 508 453 q 583 550 576 506 q 565 621 590 596 q 482 646 539 646 l 403 646 q 312 624 351 646 q 257 565 272 601 l 103 565 z "},"б":{"ha":833,"x_min":50,"x_max":786,"o":"m 225 288 q 251 165 213 208 q 367 121 289 121 q 497 165 444 121 q 561 288 549 208 l 578 396 q 553 519 590 475 q 436 563 515 563 q 306 519 358 563 q 242 396 254 475 l 225 288 m 125 618 q 178 785 140 711 q 273 909 215 858 q 406 987 331 960 q 571 1014 482 1014 l 786 1014 l 763 864 l 547 864 q 368 798 440 864 q 278 618 296 732 l 267 551 l 281 551 q 329 621 297 590 q 400 669 356 647 q 513 690 444 690 q 694 612 636 690 q 731 396 753 533 l 713 288 q 592 67 690 147 q 344 -14 494 -14 q 124 67 197 -14 q 72 288 50 147 l 125 618 z "},"≠":{"ha":833,"x_min":60,"x_max":781,"o":"m 196 221 l 76 221 l 99 358 l 281 358 l 403 558 l 131 558 l 151 697 l 489 697 l 628 924 l 781 924 l 642 697 l 763 697 l 742 558 l 556 558 l 433 358 l 710 358 l 688 221 l 349 221 l 213 0 l 60 0 l 196 221 z "},"Ё":{"ha":833,"x_min":57,"x_max":819,"o":"m 215 1000 l 818 1000 l 797 867 l 346 867 l 300 582 l 703 582 l 682 446 l 279 446 l 229 135 l 681 135 l 660 0 l 57 0 l 215 1000 m 350 1231 q 385 1292 357 1269 q 454 1315 414 1315 q 516 1292 494 1315 q 531 1231 538 1269 q 495 1167 524 1190 q 426 1143 467 1143 q 365 1167 386 1143 q 350 1231 343 1190 m 632 1231 q 668 1292 639 1269 q 738 1315 697 1315 q 799 1292 778 1315 q 813 1231 819 1269 q 777 1167 806 1190 q 708 1143 749 1143 q 647 1167 668 1143 q 632 1231 625 1190 z "},"І":{"ha":833,"x_min":54,"x_max":799,"o":"m 54 0 l 75 133 l 292 133 l 408 867 l 192 867 l 213 1000 l 799 1000 l 778 867 l 561 867 l 444 133 l 661 133 l 640 0 l 54 0 z "},"Ї":{"ha":833,"x_min":54,"x_max":799,"o":"m 54 0 l 75 133 l 292 133 l 408 867 l 192 867 l 213 1000 l 799 1000 l 778 867 l 561 867 l 444 133 l 661 133 l 640 0 l 54 0 m 322 1231 q 358 1292 329 1269 q 426 1315 386 1315 q 488 1292 467 1315 q 503 1231 510 1269 q 467 1167 496 1190 q 399 1143 439 1143 q 337 1167 358 1143 q 322 1231 315 1190 m 604 1231 q 640 1292 611 1269 q 710 1315 669 1315 q 771 1292 750 1315 q 785 1231 792 1269 q 749 1167 778 1190 q 681 1143 721 1143 q 619 1167 640 1143 q 604 1231 597 1190 z "},"Ј":{"ha":833,"x_min":19,"x_max":793,"o":"m 325 119 q 460 166 406 119 q 528 290 515 213 l 618 863 l 247 863 l 269 1000 l 793 1000 l 681 290 q 638 163 669 219 q 557 67 606 107 q 444 7 508 28 q 303 -14 379 -14 q 183 6 236 -14 q 94 60 131 25 q 38 147 57 96 q 22 260 19 197 l 175 260 q 215 158 174 197 q 325 119 256 119 z "},"ї":{"ha":833,"x_min":53,"x_max":774,"o":"m 304 1008 q 340 1070 311 1047 q 408 1093 368 1093 q 470 1070 449 1093 q 485 1008 492 1047 q 449 944 478 968 q 381 921 421 921 q 319 944 340 921 q 304 1008 297 968 m 586 1008 q 622 1070 593 1047 q 692 1093 651 1093 q 753 1070 732 1093 q 767 1008 774 1047 q 731 944 760 968 q 663 921 703 921 q 601 944 622 921 q 586 1008 579 968 m 53 0 l 75 139 l 351 139 l 428 626 l 188 626 l 210 764 l 597 764 l 499 139 l 724 139 l 701 0 l 53 0 z "},"ј":{"ha":833,"x_min":15,"x_max":733,"o":"m 500 624 l 186 624 l 210 764 l 674 764 l 565 74 q 523 -49 554 7 q 444 -145 492 -106 q 335 -207 396 -185 q 204 -229 274 -229 l 15 -229 l 38 -87 l 222 -87 q 349 -43 297 -87 q 413 74 401 1 l 500 624 m 615 1067 l 647 1067 q 712 1042 690 1067 q 726 978 733 1018 q 689 915 719 938 q 615 892 658 892 l 583 892 q 519 915 540 892 q 504 978 497 938 q 542 1042 511 1018 q 615 1067 572 1067 z "},"Ґ":{"ha":833,"x_min":72,"x_max":857,"o":"m 689 1000 l 713 1146 l 857 1146 l 813 860 l 361 860 l 225 0 l 72 0 l 231 1000 l 689 1000 z "},"ґ":{"ha":833,"x_min":72,"x_max":819,"o":"m 651 764 l 675 910 l 819 910 l 775 624 l 324 624 l 225 0 l 72 0 l 193 764 l 651 764 z "},"Ѓ":{"ha":833,"x_min":72,"x_max":835,"o":"m 835 1000 l 813 860 l 361 860 l 225 0 l 72 0 l 231 1000 l 835 1000 m 647 1314 l 461 1111 l 318 1111 l 476 1314 l 647 1314 z "},"ѓ":{"ha":833,"x_min":43,"x_max":757,"o":"m 319 -14 q 110 47 176 -14 q 60 218 43 107 q 350 449 90 415 l 467 464 q 589 556 576 478 q 566 629 597 604 q 471 654 535 654 l 421 654 q 332 634 369 654 q 281 579 294 614 l 124 579 q 236 724 151 671 q 440 778 321 778 l 490 778 q 692 719 626 778 q 740 556 757 661 q 463 329 710 363 l 349 315 q 211 214 224 299 q 237 138 203 165 q 340 110 271 110 l 389 110 q 486 132 444 110 q 543 192 528 154 l 700 192 q 583 42 672 97 q 369 -14 494 -14 l 319 -14 m 547 1137 l 375 1155 l 260 964 l 403 949 l 547 1137 z "},"Ќ":{"ha":833,"x_min":44,"x_max":878,"o":"m 203 1000 l 356 1000 l 289 586 l 432 586 l 706 1000 l 878 1000 l 556 513 l 732 0 l 565 0 l 417 450 l 268 450 l 197 0 l 44 0 l 203 1000 m 647 1314 l 461 1111 l 318 1111 l 476 1314 l 647 1314 z "},"ќ":{"ha":833,"x_min":49,"x_max":839,"o":"m 171 764 l 322 764 l 274 454 l 407 454 l 664 764 l 839 764 l 526 386 l 722 0 l 547 0 l 388 322 l 253 322 l 201 0 l 49 0 l 171 764 m 538 1137 l 365 1155 l 250 964 l 393 949 l 538 1137 z "},"Ў":{"ha":833,"x_min":135,"x_max":876,"o":"m 299 1000 l 404 546 q 413 491 411 518 q 417 442 415 464 q 415 393 417 417 l 426 393 q 438 442 431 415 q 453 491 444 464 q 476 546 463 518 l 711 1000 l 876 1000 l 343 0 l 182 0 l 326 261 l 135 1000 l 299 1000 m 371 1306 l 493 1306 q 585 1215 478 1215 q 671 1238 638 1215 q 711 1306 704 1261 l 833 1306 q 803 1227 826 1263 q 746 1167 781 1192 q 667 1128 711 1142 q 569 1114 622 1114 q 410 1166 465 1114 q 371 1306 356 1218 z "},"ў":{"ha":833,"x_min":83,"x_max":781,"o":"m 103 335 l 171 764 l 321 764 l 257 361 q 278 239 244 283 q 383 194 313 194 q 501 235 453 194 q 563 349 549 276 l 629 764 l 779 764 l 660 28 q 557 -161 640 -93 q 343 -229 474 -229 l 124 -229 l 144 -97 l 356 -97 q 460 -65 419 -97 q 510 28 500 -32 l 518 81 l 546 208 l 535 208 q 450 102 508 139 q 310 65 392 65 q 140 138 196 65 q 103 335 83 211 m 297 1097 l 419 1097 q 438 1028 411 1053 q 519 1003 465 1003 q 611 1028 575 1003 q 654 1097 647 1053 l 779 1097 q 749 1016 772 1053 q 690 953 725 979 q 607 914 654 928 q 506 900 560 900 q 410 915 453 900 q 341 955 368 929 q 302 1017 314 981 q 297 1097 290 1054 z "},"Џ":{"ha":833,"x_min":44,"x_max":808,"o":"m 203 1000 l 356 1000 l 219 140 l 521 140 l 657 1000 l 808 1000 l 650 0 l 424 0 l 396 -174 l 243 -174 l 271 0 l 44 0 l 203 1000 z "},"џ":{"ha":833,"x_min":44,"x_max":771,"o":"m 165 764 l 318 764 l 219 140 l 521 140 l 619 764 l 771 764 l 650 0 l 424 0 l 396 -174 l 243 -174 l 271 0 l 44 0 l 165 764 z "},"Њ":{"ha":833,"x_min":-1,"x_max":818,"o":"m -1 0 l 157 1000 l 286 1000 l 224 608 l 414 608 l 475 1000 l 606 1000 l 543 608 l 601 608 q 764 547 710 608 q 801 379 818 485 l 776 229 q 745 134 768 176 q 686 62 722 92 q 604 16 650 32 q 504 0 558 0 l 317 0 l 394 489 l 206 489 l 128 0 l -1 0 m 524 121 q 606 150 572 121 q 647 229 640 179 l 671 378 q 655 459 679 429 q 582 489 631 489 l 524 489 l 465 121 l 524 121 z "},"њ":{"ha":833,"x_min":-1,"x_max":803,"o":"m -1 0 l 119 764 l 249 764 l 207 497 l 396 497 l 439 764 l 568 764 l 525 497 l 600 497 q 751 439 700 497 q 788 283 803 381 l 775 199 q 746 113 767 151 q 692 48 725 75 q 619 6 660 21 q 531 -10 578 -10 q 384 47 435 -10 q 349 199 333 104 l 376 378 l 188 378 l 128 0 l -1 0 m 478 199 q 490 132 471 157 q 547 107 510 107 q 612 132 585 107 q 646 199 639 157 l 658 285 q 644 351 665 326 q 581 376 622 376 l 507 376 l 478 199 z "},"Љ":{"ha":833,"x_min":-79,"x_max":817,"o":"m -79 -7 l -60 121 l -33 121 q 31 164 3 121 q 71 275 58 207 l 193 1000 l 606 1000 l 542 604 l 600 604 q 763 542 708 604 q 800 375 817 481 l 776 229 q 745 134 768 176 q 686 62 722 92 q 604 16 650 32 q 504 0 558 0 l 317 0 l 457 881 l 301 881 l 199 275 q 172 176 190 226 q 122 85 153 126 q 48 19 92 44 q -53 -7 4 -7 l -79 -7 m 524 121 q 606 150 572 121 q 647 229 640 179 l 671 374 q 654 454 678 425 q 582 483 631 483 l 524 483 l 465 121 l 524 121 z "},"љ":{"ha":833,"x_min":-68,"x_max":806,"o":"m 486 189 q 499 130 479 153 q 557 107 518 107 q 620 130 594 107 q 653 190 646 153 l 669 294 q 657 355 676 332 q 599 378 638 378 l 515 378 l 486 189 m 576 764 l 535 497 l 618 497 q 703 483 667 497 q 764 442 740 468 q 797 378 788 415 q 799 294 806 340 l 782 190 q 754 109 775 146 q 701 46 733 72 q 627 5 668 19 q 538 -10 586 -10 q 392 45 442 -10 q 357 189 343 100 l 428 642 l 274 642 l 213 275 q 122 69 190 146 q -42 -7 54 -7 l -68 -7 l -47 125 l -22 125 q 42 165 14 125 q 82 275 69 206 l 165 764 l 576 764 z "},"є":{"ha":833,"x_min":38,"x_max":740,"o":"m 60 279 l 92 483 q 134 605 103 550 q 213 698 165 660 q 324 757 261 736 q 458 778 386 778 q 663 712 589 778 q 740 525 738 646 l 588 525 q 544 613 585 581 q 438 644 503 644 q 308 601 360 644 q 243 479 256 557 l 239 451 l 503 451 l 482 324 l 218 324 l 213 285 q 238 163 200 206 q 354 121 276 121 q 471 153 421 121 q 542 239 521 185 l 694 239 q 559 53 654 119 q 333 -14 464 -14 q 110 63 182 -14 q 60 279 38 140 z "},"Є":{"ha":833,"x_min":54,"x_max":779,"o":"m 65 282 l 133 718 q 176 841 144 786 q 255 934 207 896 q 365 993 303 972 q 501 1014 428 1014 q 622 994 569 1014 q 710 938 675 975 q 763 849 746 901 q 775 732 779 797 l 624 732 q 590 839 629 800 q 479 878 551 878 q 349 834 401 878 q 286 714 297 790 l 264 574 l 586 574 l 565 439 l 242 439 l 218 288 q 243 166 206 210 q 360 122 281 122 q 483 161 432 122 q 550 268 533 200 l 703 268 q 653 151 686 203 q 572 62 619 99 q 465 6 525 25 q 338 -14 406 -14 q 209 7 265 -14 q 117 67 153 28 q 68 160 82 106 q 65 282 54 215 z "},"ћ":{"ha":833,"x_min":42,"x_max":742,"o":"m 174 831 l 82 831 l 99 940 l 192 940 l 203 1014 l 354 1014 l 342 940 l 483 940 l 467 831 l 325 831 l 314 764 q 306 722 311 744 q 295 678 300 699 q 288 645 290 658 q 285 632 285 632 l 297 632 q 382 740 322 701 q 525 778 442 778 q 624 758 581 778 q 694 701 667 738 q 731 613 721 664 q 732 499 742 561 l 653 0 l 501 0 l 578 482 q 557 604 589 561 q 454 647 525 647 q 335 606 383 647 q 271 490 286 564 l 193 0 l 42 0 l 174 831 z "},"ђ":{"ha":833,"x_min":44,"x_max":754,"o":"m 176 831 l 83 831 l 101 940 l 193 940 l 206 1014 l 358 1014 l 346 940 l 485 940 l 468 831 l 329 831 l 318 764 q 300 678 311 721 q 289 632 294 656 l 303 632 q 388 740 329 701 q 529 778 447 778 q 699 705 644 778 q 738 508 754 632 l 665 46 q 626 -67 656 -17 q 551 -154 596 -118 q 447 -210 506 -190 q 321 -229 388 -229 l 232 -229 l 256 -86 l 347 -86 q 459 -49 415 -86 q 514 54 503 -12 l 582 482 q 560 603 593 560 q 456 647 526 647 q 335 604 383 647 q 275 486 286 561 l 197 0 l 44 0 l 176 831 z "},"Ћ":{"ha":833,"x_min":67,"x_max":769,"o":"m 67 863 l 89 1000 l 551 1000 l 531 863 l 368 863 l 321 563 l 346 586 q 451 661 396 635 q 560 688 507 688 q 656 669 614 688 q 724 616 697 650 q 760 534 750 582 q 760 426 769 486 l 692 0 l 539 0 l 603 406 q 514 557 628 557 q 441 540 476 557 q 365 483 406 522 l 299 421 l 232 0 l 79 0 l 215 863 l 67 863 z "}}}
